<ttFont>
<head>
    <!-- Most of this table will be recalculated by the compiler -->
    <tableVersion value="1.0"/>
    <fontRevision value="1.0"/>
    <checkSumAdjustment value="0x4317510d"/>
    <magicNumber value="0x5f0f3cf5"/>
    <flags value="00000000 00011011"/>
    <unitsPerEm value="1000"/>
    <created value="Sat Dec  6 13:43:38 2025"/>
    <modified value="Sat Dec  6 13:46:49 2025"/>
    <xMin value="-36"/>
    <yMin value="-251"/>
    <xMax value="1103"/>
    <yMax value="750"/>
    <macStyle value="00000000 00000010"/>
    <lowestRecPPEM value="6"/>
    <fontDirectionHint value="2"/>
    <indexToLocFormat value="0"/>
    <glyphDataFormat value="0"/>
  </head>
    <TTGlyph name="A" xMin="56" yMin="0" xMax="677" yMax="714">
      <contour>
        <pt x="517" y="696" on="1"/>
        <pt x="522" y="705" on="0"/>
        <pt x="530" y="714" on="0"/>
        <pt x="541" y="714" on="1"/>
        <pt x="552" y="714" on="0"/>
        <pt x="556" y="706" on="0"/>
        <pt x="557" y="690" on="1"/>
        <pt x="601" y="62" on="1"/>
        <pt x="602" y="52" on="0"/>
        <pt x="606" y="40" on="0"/>
        <pt x="617" y="32" on="0"/>
        <pt x="639" y="29" on="0"/>
        <pt x="657" y="29" on="1"/>
        <pt x="667" y="29" on="0"/>
        <pt x="677" y="26" on="0"/>
        <pt x="677" y="18" on="1"/>
        <pt x="677" y="4" on="0"/>
        <pt x="664" y="0" on="0"/>
        <pt x="659" y="0" on="1"/>
        <pt x="635" y="0" on="0"/>
        <pt x="585" y="2" on="0"/>
        <pt x="560" y="2" on="1"/>
        <pt x="534" y="2" on="0"/>
        <pt x="482" y="0" on="0"/>
        <pt x="457" y="0" on="1"/>
        <pt x="454" y="0" on="0"/>
        <pt x="443" y="2" on="0"/>
        <pt x="443" y="10" on="1"/>
        <pt x="443" y="24" on="0"/>
        <pt x="455" y="29" on="0"/>
        <pt x="466" y="29" on="1"/>
        <pt x="489" y="29" on="0"/>
        <pt x="514" y="39" on="0"/>
        <pt x="524" y="52" on="0"/>
        <pt x="525" y="67" on="0"/>
        <pt x="525" y="73" on="1"/>
        <pt x="514" y="234" on="1"/>
        <pt x="282" y="234" on="1"/>
        <pt x="209" y="105" on="1"/>
        <pt x="202" y="93" on="0"/>
        <pt x="192" y="73" on="0"/>
        <pt x="192" y="62" on="1"/>
        <pt x="192" y="32" on="0"/>
        <pt x="230" y="29" on="1"/>
        <pt x="235" y="29" on="0"/>
        <pt x="244" y="26" on="0"/>
        <pt x="244" y="19" on="1"/>
        <pt x="244" y="5" on="0"/>
        <pt x="231" y="0" on="0"/>
        <pt x="226" y="0" on="1"/>
        <pt x="206" y="0" on="0"/>
        <pt x="164" y="2" on="0"/>
        <pt x="144" y="2" on="1"/>
        <pt x="125" y="2" on="0"/>
        <pt x="86" y="0" on="0"/>
        <pt x="68" y="0" on="1"/>
        <pt x="66" y="0" on="0"/>
        <pt x="56" y="2" on="0"/>
        <pt x="56" y="10" on="1"/>
        <pt x="56" y="23" on="0"/>
        <pt x="67" y="28" on="0"/>
        <pt x="75" y="29" on="1"/>
        <pt x="113" y="33" on="0"/>
        <pt x="161" y="70" on="0"/>
        <pt x="184" y="112" on="1"/>
      </contour>
      <contour>
        <pt x="512" y="263" on="1"/>
        <pt x="489" y="596" on="1"/>
        <pt x="299" y="263" on="1"/>
      </contour>
    </TTGlyph>
    <TTGlyph name="AE" xMin="57" yMin="0" xMax="932" yMax="683">
      <contour>
        <pt x="498" y="653" on="1"/>
        <pt x="492" y="654" on="0"/>
        <pt x="476" y="654" on="0"/>
        <pt x="469" y="654" on="1"/>
        <pt x="452" y="654" on="1"/>
        <pt x="440" y="654" on="0"/>
        <pt x="428" y="656" on="0"/>
        <pt x="428" y="664" on="1"/>
        <pt x="428" y="678" on="0"/>
        <pt x="441" y="683" on="0"/>
        <pt x="455" y="683" on="1"/>
        <pt x="907" y="683" on="1"/>
        <pt x="923" y="683" on="0"/>
        <pt x="932" y="677" on="0"/>
        <pt x="930" y="658" on="1"/>
        <pt x="906" y="482" on="1"/>
        <pt x="904" y="468" on="0"/>
        <pt x="900" y="460" on="0"/>
        <pt x="890" y="460" on="1"/>
        <pt x="888" y="460" on="0"/>
        <pt x="877" y="462" on="0"/>
        <pt x="877" y="470" on="1"/>
        <pt x="877" y="472" on="0"/>
        <pt x="879" y="491" on="0"/>
        <pt x="879" y="495" on="1"/>
        <pt x="881" y="512" on="0"/>
        <pt x="885" y="544" on="0"/>
        <pt x="885" y="561" on="1"/>
        <pt x="885" y="582" on="0"/>
        <pt x="877" y="617" on="0"/>
        <pt x="851" y="641" on="0"/>
        <pt x="803" y="654" on="0"/>
        <pt x="763" y="654" on="1"/>
        <pt x="672" y="654" on="1"/>
        <pt x="660" y="654" on="0"/>
        <pt x="644" y="653" on="0"/>
        <pt x="633" y="646" on="0"/>
        <pt x="626" y="630" on="0"/>
        <pt x="623" y="616" on="1"/>
        <pt x="555" y="343" on="1"/>
        <pt x="634" y="343" on="1"/>
        <pt x="664" y="343" on="0"/>
        <pt x="703" y="353" on="0"/>
        <pt x="728" y="377" on="0"/>
        <pt x="743" y="415" on="0"/>
        <pt x="750" y="443" on="1"/>
        <pt x="753" y="454" on="0"/>
        <pt x="758" y="460" on="0"/>
        <pt x="767" y="460" on="1"/>
        <pt x="769" y="460" on="0"/>
        <pt x="780" y="458" on="0"/>
        <pt x="780" y="450" on="1"/>
        <pt x="722" y="214" on="1"/>
        <pt x="720" y="203" on="0"/>
        <pt x="714" y="197" on="0"/>
        <pt x="706" y="197" on="1"/>
        <pt x="702" y="197" on="0"/>
        <pt x="692" y="200" on="0"/>
        <pt x="692" y="208" on="1"/>
        <pt x="692" y="209" on="0"/>
        <pt x="692" y="212" on="0"/>
        <pt x="694" y="218" on="1"/>
        <pt x="700" y="243" on="0"/>
        <pt x="703" y="264" on="0"/>
        <pt x="703" y="272" on="1"/>
        <pt x="703" y="283" on="0"/>
        <pt x="698" y="298" on="0"/>
        <pt x="683" y="309" on="0"/>
        <pt x="654" y="314" on="0"/>
        <pt x="631" y="314" on="1"/>
        <pt x="548" y="314" on="1"/>
        <pt x="485" y="61" on="1"/>
        <pt x="482" y="50" on="0"/>
        <pt x="481" y="44" on="0"/>
        <pt x="481" y="41" on="1"/>
        <pt x="481" y="33" on="0"/>
        <pt x="489" y="29" on="0"/>
        <pt x="511" y="29" on="1"/>
        <pt x="604" y="29" on="1"/>
        <pt x="658" y="29" on="0"/>
        <pt x="728" y="53" on="0"/>
        <pt x="778" y="101" on="0"/>
        <pt x="815" y="172" on="0"/>
        <pt x="834" y="220" on="1"/>
        <pt x="838" y="228" on="0"/>
        <pt x="847" y="251" on="0"/>
        <pt x="849" y="253" on="1"/>
        <pt x="852" y="256" on="0"/>
        <pt x="860" y="256" on="1"/>
        <pt x="862" y="256" on="0"/>
        <pt x="873" y="254" on="0"/>
        <pt x="873" y="246" on="1"/>
        <pt x="873" y="245" on="0"/>
        <pt x="872" y="241" on="0"/>
        <pt x="869" y="234" on="1"/>
        <pt x="781" y="16" on="1"/>
        <pt x="776" y="5" on="0"/>
        <pt x="769" y="0" on="0"/>
        <pt x="754" y="0" on="1"/>
        <pt x="361" y="0" on="1"/>
        <pt x="349" y="0" on="0"/>
        <pt x="337" y="2" on="0"/>
        <pt x="337" y="10" on="1"/>
        <pt x="337" y="24" on="0"/>
        <pt x="350" y="29" on="0"/>
        <pt x="361" y="29" on="1"/>
        <pt x="377" y="29" on="0"/>
        <pt x="396" y="32" on="0"/>
        <pt x="408" y="41" on="0"/>
        <pt x="414" y="56" on="0"/>
        <pt x="417" y="68" on="1"/>
        <pt x="478" y="314" on="1"/>
        <pt x="331" y="314" on="1"/>
        <pt x="208" y="103" on="1"/>
        <pt x="206" y="101" on="0"/>
        <pt x="193" y="73" on="0"/>
        <pt x="193" y="62" on="1"/>
        <pt x="193" y="44" on="0"/>
        <pt x="217" y="31" on="0"/>
        <pt x="231" y="29" on="1"/>
        <pt x="236" y="29" on="0"/>
        <pt x="244" y="26" on="0"/>
        <pt x="244" y="18" on="1"/>
        <pt x="244" y="4" on="0"/>
        <pt x="231" y="0" on="0"/>
        <pt x="226" y="0" on="1"/>
        <pt x="206" y="0" on="0"/>
        <pt x="164" y="2" on="0"/>
        <pt x="144" y="2" on="1"/>
        <pt x="102" y="2" on="0"/>
        <pt x="69" y="0" on="0"/>
        <pt x="68" y="0" on="1"/>
        <pt x="61" y="0" on="0"/>
        <pt x="57" y="7" on="0"/>
        <pt x="57" y="10" on="1"/>
        <pt x="57" y="23" on="0"/>
        <pt x="67" y="28" on="0"/>
        <pt x="75" y="29" on="1"/>
        <pt x="87" y="30" on="0"/>
        <pt x="114" y="36" on="0"/>
        <pt x="141" y="53" on="0"/>
        <pt x="170" y="85" on="0"/>
        <pt x="185" y="111" on="1"/>
      </contour>
      <contour>
        <pt x="486" y="343" on="1"/>
        <pt x="552" y="610" on="1"/>
        <pt x="555" y="621" on="0"/>
        <pt x="556" y="627" on="0"/>
        <pt x="556" y="630" on="1"/>
        <pt x="556" y="637" on="0"/>
        <pt x="546" y="651" on="0"/>
        <pt x="526" y="651" on="1"/>
        <pt x="347" y="343" on="1"/>
      </contour>
    </TTGlyph>
    <TTGlyph name="B" xMin="69" yMin="0" xMax="720" yMax="683">
      <contour>
        <pt x="556" y="683" on="1"/>
        <pt x="597" y="683" on="0"/>
        <pt x="658" y="661" on="0"/>
        <pt x="699" y="623" on="0"/>
        <pt x="720" y="574" on="0"/>
        <pt x="720" y="548" on="1"/>
        <pt x="720" y="515" on="0"/>
        <pt x="689" y="453" on="0"/>
        <pt x="636" y="402" on="0"/>
        <pt x="565" y="365" on="0"/>
        <pt x="525" y="357" on="1"/>
        <pt x="584" y="349" on="0"/>
        <pt x="662" y="279" on="0"/>
        <pt x="662" y="220" on="1"/>
        <pt x="662" y="180" on="0"/>
        <pt x="622" y="102" on="0"/>
        <pt x="553" y="39" on="0"/>
        <pt x="461" y="0" on="0"/>
        <pt x="410" y="0" on="1"/>
        <pt x="93" y="0" on="1"/>
        <pt x="81" y="0" on="0"/>
        <pt x="69" y="2" on="0"/>
        <pt x="69" y="10" on="1"/>
        <pt x="69" y="24" on="0"/>
        <pt x="82" y="29" on="0"/>
        <pt x="96" y="29" on="1"/>
        <pt x="119" y="29" on="0"/>
        <pt x="146" y="33" on="0"/>
        <pt x="161" y="42" on="0"/>
        <pt x="169" y="59" on="0"/>
        <pt x="172" y="72" on="1"/>
        <pt x="309" y="623" on="1"/>
        <pt x="311" y="628" on="0"/>
        <pt x="311" y="633" on="0"/>
        <pt x="311" y="638" on="1"/>
        <pt x="311" y="650" on="0"/>
        <pt x="277" y="654" on="0"/>
        <pt x="258" y="654" on="1"/>
        <pt x="244" y="654" on="0"/>
        <pt x="232" y="656" on="0"/>
        <pt x="232" y="664" on="1"/>
        <pt x="232" y="678" on="0"/>
        <pt x="245" y="683" on="0"/>
        <pt x="259" y="683" on="1"/>
      </contour>
      <contour>
        <pt x="446" y="365" on="1"/>
        <pt x="489" y="365" on="0"/>
        <pt x="560" y="399" on="0"/>
        <pt x="611" y="453" on="0"/>
        <pt x="639" y="520" on="0"/>
        <pt x="639" y="553" on="1"/>
        <pt x="639" y="569" on="0"/>
        <pt x="631" y="604" on="0"/>
        <pt x="610" y="634" on="0"/>
        <pt x="573" y="654" on="0"/>
        <pt x="543" y="654" on="1"/>
        <pt x="426" y="654" on="1"/>
        <pt x="414" y="654" on="0"/>
        <pt x="398" y="653" on="0"/>
        <pt x="387" y="646" on="0"/>
        <pt x="380" y="630" on="0"/>
        <pt x="377" y="616" on="1"/>
        <pt x="315" y="365" on="1"/>
      </contour>
      <contour>
        <pt x="388" y="29" on="1"/>
        <pt x="428" y="29" on="0"/>
        <pt x="498" y="63" on="0"/>
        <pt x="550" y="119" on="0"/>
        <pt x="580" y="193" on="0"/>
        <pt x="580" y="232" on="1"/>
        <pt x="580" y="251" on="0"/>
        <pt x="571" y="291" on="0"/>
        <pt x="548" y="324" on="0"/>
        <pt x="509" y="345" on="0"/>
        <pt x="480" y="345" on="1"/>
        <pt x="309" y="345" on="1"/>
        <pt x="239" y="61" on="1"/>
        <pt x="236" y="50" on="0"/>
        <pt x="235" y="44" on="0"/>
        <pt x="235" y="41" on="1"/>
        <pt x="235" y="33" on="0"/>
        <pt x="243" y="29" on="0"/>
        <pt x="265" y="29" on="1"/>
      </contour>
    </TTGlyph>
    <TTGlyph name="C" xMin="148" yMin="-21" xMax="797" yMax="704">
      <contour>
        <pt x="734" y="438" on="1"/>
        <pt x="731" y="426" on="0"/>
        <pt x="726" y="421" on="0"/>
        <pt x="718" y="421" on="1"/>
        <pt x="714" y="421" on="0"/>
        <pt x="705" y="423" on="0"/>
        <pt x="705" y="430" on="1"/>
        <pt x="705" y="439" on="1"/>
        <pt x="707" y="450" on="0"/>
        <pt x="710" y="481" on="0"/>
        <pt x="710" y="492" on="1"/>
        <pt x="710" y="509" on="0"/>
        <pt x="702" y="570" on="0"/>
        <pt x="674" y="630" on="0"/>
        <pt x="617" y="675" on="0"/>
        <pt x="569" y="675" on="1"/>
        <pt x="535" y="675" on="0"/>
        <pt x="467" y="653" on="0"/>
        <pt x="406" y="615" on="0"/>
        <pt x="354" y="567" on="0"/>
        <pt x="335" y="541" on="1"/>
        <pt x="299" y="491" on="0"/>
        <pt x="256" y="382" on="0"/>
        <pt x="233" y="288" on="0"/>
        <pt x="227" y="219" on="0"/>
        <pt x="227" y="208" on="1"/>
        <pt x="227" y="157" on="0"/>
        <pt x="255" y="82" on="0"/>
        <pt x="303" y="32" on="0"/>
        <pt x="366" y="8" on="0"/>
        <pt x="400" y="8" on="1"/>
        <pt x="435" y="8" on="0"/>
        <pt x="511" y="37" on="0"/>
        <pt x="580" y="95" on="0"/>
        <pt x="638" y="182" on="0"/>
        <pt x="655" y="239" on="1"/>
        <pt x="657" y="246" on="0"/>
        <pt x="664" y="249" on="0"/>
        <pt x="670" y="249" on="1"/>
        <pt x="675" y="249" on="0"/>
        <pt x="684" y="247" on="0"/>
        <pt x="684" y="240" on="1"/>
        <pt x="684" y="239" on="0"/>
        <pt x="676" y="208" on="0"/>
        <pt x="654" y="159" on="0"/>
        <pt x="614" y="96" on="0"/>
        <pt x="581" y="64" on="1"/>
        <pt x="578" y="61" on="0"/>
        <pt x="547" y="34" on="0"/>
        <pt x="495" y="4" on="0"/>
        <pt x="426" y="-21" on="0"/>
        <pt x="385" y="-21" on="1"/>
        <pt x="337" y="-21" on="0"/>
        <pt x="251" y="14" on="0"/>
        <pt x="186" y="81" on="0"/>
        <pt x="148" y="179" on="0"/>
        <pt x="148" y="243" on="1"/>
        <pt x="148" y="332" on="0"/>
        <pt x="221" y="498" on="0"/>
        <pt x="338" y="627" on="0"/>
        <pt x="486" y="704" on="0"/>
        <pt x="562" y="704" on="1"/>
        <pt x="662" y="704" on="0"/>
        <pt x="710" y="615" on="1"/>
        <pt x="775" y="695" on="1"/>
        <pt x="780" y="702" on="0"/>
        <pt x="786" y="704" on="0"/>
        <pt x="788" y="704" on="1"/>
        <pt x="790" y="704" on="0"/>
        <pt x="797" y="702" on="0"/>
        <pt x="797" y="695" on="1"/>
        <pt x="797" y="693" on="0"/>
        <pt x="796" y="684" on="0"/>
        <pt x="795" y="682" on="1"/>
      </contour>
    </TTGlyph>
    <TTGlyph name="D" xMin="67" yMin="0" xMax="759" yMax="683">
      <contour>
        <pt x="555" y="683" on="1"/>
        <pt x="601" y="683" on="0"/>
        <pt x="676" y="649" on="0"/>
        <pt x="730" y="585" on="0"/>
        <pt x="759" y="496" on="0"/>
        <pt x="759" y="440" on="1"/>
        <pt x="759" y="383" on="0"/>
        <pt x="729" y="273" on="0"/>
        <pt x="677" y="176" on="0"/>
        <pt x="606" y="93" on="0"/>
        <pt x="523" y="34" on="0"/>
        <pt x="431" y="0" on="0"/>
        <pt x="385" y="0" on="1"/>
        <pt x="91" y="0" on="1"/>
        <pt x="79" y="0" on="0"/>
        <pt x="67" y="2" on="0"/>
        <pt x="67" y="10" on="1"/>
        <pt x="67" y="24" on="0"/>
        <pt x="80" y="29" on="0"/>
        <pt x="94" y="29" on="1"/>
        <pt x="117" y="29" on="0"/>
        <pt x="144" y="33" on="0"/>
        <pt x="159" y="42" on="0"/>
        <pt x="167" y="59" on="0"/>
        <pt x="170" y="72" on="1"/>
        <pt x="307" y="623" on="1"/>
        <pt x="309" y="628" on="0"/>
        <pt x="309" y="633" on="0"/>
        <pt x="309" y="638" on="1"/>
        <pt x="309" y="650" on="0"/>
        <pt x="275" y="654" on="0"/>
        <pt x="256" y="654" on="1"/>
        <pt x="242" y="654" on="0"/>
        <pt x="230" y="656" on="0"/>
        <pt x="230" y="664" on="1"/>
        <pt x="230" y="678" on="0"/>
        <pt x="243" y="683" on="0"/>
        <pt x="257" y="683" on="1"/>
      </contour>
      <contour>
        <pt x="240" y="64" on="1"/>
        <pt x="238" y="59" on="0"/>
        <pt x="236" y="47" on="0"/>
        <pt x="236" y="41" on="1"/>
        <pt x="236" y="33" on="0"/>
        <pt x="244" y="29" on="0"/>
        <pt x="266" y="29" on="1"/>
        <pt x="369" y="29" on="1"/>
        <pt x="439" y="29" on="0"/>
        <pt x="555" y="104" on="0"/>
        <pt x="593" y="162" on="1"/>
        <pt x="617" y="198" on="0"/>
        <pt x="651" y="289" on="0"/>
        <pt x="673" y="378" on="0"/>
        <pt x="684" y="455" on="0"/>
        <pt x="684" y="477" on="1"/>
        <pt x="684" y="513" on="0"/>
        <pt x="665" y="578" on="0"/>
        <pt x="626" y="626" on="0"/>
        <pt x="566" y="654" on="0"/>
        <pt x="525" y="654" on="1"/>
        <pt x="427" y="654" on="1"/>
        <pt x="414" y="654" on="0"/>
        <pt x="398" y="653" on="0"/>
        <pt x="388" y="646" on="0"/>
        <pt x="381" y="630" on="0"/>
        <pt x="378" y="616" on="1"/>
      </contour>
    </TTGlyph>
    <TTGlyph name="E" xMin="66" yMin="0" xMax="731" yMax="681">
      <contour>
        <pt x="581" y="16" on="1"/>
        <pt x="576" y="5" on="0"/>
        <pt x="569" y="0" on="0"/>
        <pt x="554" y="0" on="1"/>
        <pt x="90" y="0" on="1"/>
        <pt x="78" y="0" on="0"/>
        <pt x="66" y="2" on="0"/>
        <pt x="66" y="10" on="1"/>
        <pt x="66" y="24" on="0"/>
        <pt x="79" y="29" on="0"/>
        <pt x="93" y="29" on="1"/>
        <pt x="116" y="29" on="0"/>
        <pt x="143" y="33" on="0"/>
        <pt x="158" y="42" on="0"/>
        <pt x="166" y="59" on="0"/>
        <pt x="169" y="72" on="1"/>
        <pt x="304" y="615" on="1"/>
        <pt x="307" y="626" on="0"/>
        <pt x="308" y="632" on="0"/>
        <pt x="308" y="634" on="1"/>
        <pt x="308" y="638" on="0"/>
        <pt x="306" y="644" on="0"/>
        <pt x="296" y="649" on="0"/>
        <pt x="274" y="652" on="0"/>
        <pt x="253" y="652" on="1"/>
        <pt x="241" y="652" on="0"/>
        <pt x="229" y="654" on="0"/>
        <pt x="229" y="662" on="1"/>
        <pt x="229" y="676" on="0"/>
        <pt x="242" y="681" on="0"/>
        <pt x="255" y="681" on="1"/>
        <pt x="706" y="681" on="1"/>
        <pt x="719" y="681" on="0"/>
        <pt x="731" y="678" on="0"/>
        <pt x="731" y="670" on="1"/>
        <pt x="731" y="668" on="0"/>
        <pt x="729" y="658" on="0"/>
        <pt x="729" y="656" on="1"/>
        <pt x="705" y="479" on="1"/>
        <pt x="703" y="465" on="0"/>
        <pt x="699" y="458" on="0"/>
        <pt x="690" y="458" on="1"/>
        <pt x="686" y="458" on="0"/>
        <pt x="676" y="461" on="0"/>
        <pt x="676" y="469" on="1"/>
        <pt x="676" y="473" on="0"/>
        <pt x="678" y="485" on="0"/>
        <pt x="678" y="489" on="1"/>
        <pt x="682" y="513" on="0"/>
        <pt x="683" y="543" on="0"/>
        <pt x="683" y="550" on="1"/>
        <pt x="683" y="573" on="0"/>
        <pt x="676" y="610" on="0"/>
        <pt x="649" y="637" on="0"/>
        <pt x="597" y="652" on="0"/>
        <pt x="552" y="652" on="1"/>
        <pt x="427" y="652" on="1"/>
        <pt x="403" y="652" on="0"/>
        <pt x="386" y="642" on="0"/>
        <pt x="379" y="616" on="1"/>
        <pt x="317" y="368" on="1"/>
        <pt x="400" y="368" on="1"/>
        <pt x="431" y="368" on="0"/>
        <pt x="470" y="378" on="0"/>
        <pt x="496" y="401" on="0"/>
        <pt x="513" y="440" on="0"/>
        <pt x="520" y="468" on="1"/>
        <pt x="522" y="479" on="0"/>
        <pt x="527" y="485" on="0"/>
        <pt x="536" y="485" on="1"/>
        <pt x="538" y="485" on="0"/>
        <pt x="549" y="483" on="0"/>
        <pt x="549" y="475" on="1"/>
        <pt x="549" y="469" on="0"/>
        <pt x="547" y="461" on="1"/>
        <pt x="491" y="239" on="1"/>
        <pt x="489" y="229" on="0"/>
        <pt x="484" y="222" on="0"/>
        <pt x="475" y="222" on="1"/>
        <pt x="472" y="222" on="0"/>
        <pt x="461" y="224" on="0"/>
        <pt x="461" y="232" on="1"/>
        <pt x="461" y="234" on="0"/>
        <pt x="463" y="239" on="0"/>
        <pt x="463" y="241" on="1"/>
        <pt x="465" y="247" on="0"/>
        <pt x="472" y="281" on="0"/>
        <pt x="472" y="295" on="1"/>
        <pt x="472" y="306" on="0"/>
        <pt x="467" y="322" on="0"/>
        <pt x="452" y="333" on="0"/>
        <pt x="422" y="339" on="0"/>
        <pt x="397" y="339" on="1"/>
        <pt x="310" y="339" on="1"/>
        <pt x="241" y="61" on="1"/>
        <pt x="238" y="50" on="0"/>
        <pt x="237" y="44" on="0"/>
        <pt x="237" y="41" on="1"/>
        <pt x="237" y="33" on="0"/>
        <pt x="245" y="29" on="0"/>
        <pt x="267" y="29" on="1"/>
        <pt x="389" y="29" on="1"/>
        <pt x="445" y="29" on="0"/>
        <pt x="520" y="51" on="0"/>
        <pt x="574" y="98" on="0"/>
        <pt x="613" y="170" on="0"/>
        <pt x="634" y="220" on="1"/>
        <pt x="638" y="228" on="0"/>
        <pt x="647" y="251" on="0"/>
        <pt x="649" y="253" on="1"/>
        <pt x="652" y="256" on="0"/>
        <pt x="660" y="256" on="1"/>
        <pt x="662" y="256" on="0"/>
        <pt x="673" y="254" on="0"/>
        <pt x="673" y="246" on="1"/>
        <pt x="673" y="245" on="0"/>
        <pt x="672" y="241" on="0"/>
        <pt x="669" y="234" on="1"/>
      </contour>
    </TTGlyph>
    <TTGlyph name="F" xMin="66" yMin="0" xMax="718" yMax="681">
      <contour>
        <pt x="243" y="69" on="1"/>
        <pt x="240" y="58" on="0"/>
        <pt x="239" y="52" on="0"/>
        <pt x="239" y="49" on="1"/>
        <pt x="239" y="34" on="0"/>
        <pt x="280" y="29" on="0"/>
        <pt x="309" y="29" on="1"/>
        <pt x="315" y="29" on="1"/>
        <pt x="327" y="29" on="0"/>
        <pt x="339" y="27" on="0"/>
        <pt x="339" y="19" on="1"/>
        <pt x="339" y="5" on="0"/>
        <pt x="326" y="0" on="0"/>
        <pt x="319" y="0" on="1"/>
        <pt x="289" y="0" on="0"/>
        <pt x="226" y="2" on="0"/>
        <pt x="195" y="2" on="1"/>
        <pt x="166" y="2" on="0"/>
        <pt x="108" y="0" on="0"/>
        <pt x="80" y="0" on="1"/>
        <pt x="77" y="0" on="0"/>
        <pt x="66" y="2" on="0"/>
        <pt x="66" y="10" on="1"/>
        <pt x="66" y="24" on="0"/>
        <pt x="79" y="29" on="0"/>
        <pt x="93" y="29" on="1"/>
        <pt x="116" y="29" on="0"/>
        <pt x="143" y="33" on="0"/>
        <pt x="158" y="42" on="0"/>
        <pt x="166" y="59" on="0"/>
        <pt x="169" y="72" on="1"/>
        <pt x="304" y="615" on="1"/>
        <pt x="307" y="626" on="0"/>
        <pt x="308" y="632" on="0"/>
        <pt x="308" y="634" on="1"/>
        <pt x="308" y="638" on="0"/>
        <pt x="306" y="644" on="0"/>
        <pt x="296" y="649" on="0"/>
        <pt x="274" y="652" on="0"/>
        <pt x="253" y="652" on="1"/>
        <pt x="241" y="652" on="0"/>
        <pt x="229" y="654" on="0"/>
        <pt x="229" y="662" on="1"/>
        <pt x="229" y="676" on="0"/>
        <pt x="242" y="681" on="0"/>
        <pt x="255" y="681" on="1"/>
        <pt x="693" y="681" on="1"/>
        <pt x="706" y="681" on="0"/>
        <pt x="718" y="678" on="0"/>
        <pt x="718" y="670" on="1"/>
        <pt x="718" y="668" on="0"/>
        <pt x="716" y="658" on="0"/>
        <pt x="716" y="656" on="1"/>
        <pt x="692" y="479" on="1"/>
        <pt x="690" y="465" on="0"/>
        <pt x="686" y="458" on="0"/>
        <pt x="677" y="458" on="1"/>
        <pt x="673" y="458" on="0"/>
        <pt x="663" y="461" on="0"/>
        <pt x="663" y="469" on="1"/>
        <pt x="663" y="471" on="0"/>
        <pt x="663" y="477" on="0"/>
        <pt x="665" y="488" on="1"/>
        <pt x="667" y="505" on="0"/>
        <pt x="671" y="535" on="0"/>
        <pt x="671" y="554" on="1"/>
        <pt x="671" y="580" on="0"/>
        <pt x="660" y="617" on="0"/>
        <pt x="632" y="641" on="0"/>
        <pt x="581" y="652" on="0"/>
        <pt x="542" y="652" on="1"/>
        <pt x="427" y="652" on="1"/>
        <pt x="403" y="652" on="0"/>
        <pt x="386" y="642" on="0"/>
        <pt x="379" y="616" on="1"/>
        <pt x="314" y="355" on="1"/>
        <pt x="393" y="355" on="1"/>
        <pt x="424" y="355" on="0"/>
        <pt x="463" y="365" on="0"/>
        <pt x="489" y="389" on="0"/>
        <pt x="504" y="427" on="0"/>
        <pt x="511" y="455" on="1"/>
        <pt x="514" y="466" on="0"/>
        <pt x="519" y="472" on="0"/>
        <pt x="528" y="472" on="1"/>
        <pt x="530" y="472" on="0"/>
        <pt x="541" y="470" on="0"/>
        <pt x="541" y="462" on="1"/>
        <pt x="483" y="226" on="1"/>
        <pt x="481" y="215" on="0"/>
        <pt x="475" y="209" on="0"/>
        <pt x="467" y="209" on="1"/>
        <pt x="463" y="209" on="0"/>
        <pt x="453" y="212" on="0"/>
        <pt x="453" y="220" on="1"/>
        <pt x="453" y="222" on="0"/>
        <pt x="455" y="227" on="0"/>
        <pt x="455" y="229" on="1"/>
        <pt x="457" y="237" on="0"/>
        <pt x="464" y="271" on="0"/>
        <pt x="464" y="283" on="1"/>
        <pt x="464" y="304" on="0"/>
        <pt x="438" y="326" on="0"/>
        <pt x="391" y="326" on="1"/>
        <pt x="307" y="326" on="1"/>
      </contour>
    </TTGlyph>
    <TTGlyph name="G" xMin="148" yMin="-21" xMax="797" yMax="704">
      <contour>
        <pt x="625" y="4" on="1"/>
        <pt x="622" y="1" on="0"/>
        <pt x="618" y="1" on="1"/>
        <pt x="614" y="1" on="0"/>
        <pt x="604" y="13" on="0"/>
        <pt x="593" y="32" on="0"/>
        <pt x="583" y="54" on="0"/>
        <pt x="580" y="64" on="1"/>
        <pt x="558" y="37" on="0"/>
        <pt x="504" y="4" on="0"/>
        <pt x="451" y="-14" on="0"/>
        <pt x="403" y="-21" on="0"/>
        <pt x="386" y="-21" on="1"/>
        <pt x="337" y="-21" on="0"/>
        <pt x="250" y="15" on="0"/>
        <pt x="185" y="82" on="0"/>
        <pt x="148" y="180" on="0"/>
        <pt x="148" y="243" on="1"/>
        <pt x="148" y="332" on="0"/>
        <pt x="221" y="498" on="0"/>
        <pt x="338" y="627" on="0"/>
        <pt x="486" y="704" on="0"/>
        <pt x="562" y="704" on="1"/>
        <pt x="662" y="704" on="0"/>
        <pt x="710" y="615" on="1"/>
        <pt x="775" y="695" on="1"/>
        <pt x="780" y="702" on="0"/>
        <pt x="786" y="704" on="0"/>
        <pt x="788" y="704" on="1"/>
        <pt x="790" y="704" on="0"/>
        <pt x="797" y="702" on="0"/>
        <pt x="797" y="695" on="1"/>
        <pt x="797" y="693" on="0"/>
        <pt x="796" y="684" on="0"/>
        <pt x="795" y="682" on="1"/>
        <pt x="734" y="438" on="1"/>
        <pt x="731" y="426" on="0"/>
        <pt x="726" y="421" on="0"/>
        <pt x="718" y="421" on="1"/>
        <pt x="714" y="421" on="0"/>
        <pt x="705" y="423" on="0"/>
        <pt x="705" y="430" on="1"/>
        <pt x="705" y="439" on="1"/>
        <pt x="707" y="450" on="0"/>
        <pt x="710" y="481" on="0"/>
        <pt x="710" y="492" on="1"/>
        <pt x="710" y="509" on="0"/>
        <pt x="702" y="570" on="0"/>
        <pt x="674" y="630" on="0"/>
        <pt x="617" y="675" on="0"/>
        <pt x="569" y="675" on="1"/>
        <pt x="517" y="675" on="0"/>
        <pt x="397" y="616" on="0"/>
        <pt x="344" y="552" on="1"/>
        <pt x="313" y="514" on="0"/>
        <pt x="269" y="420" on="0"/>
        <pt x="241" y="325" on="0"/>
        <pt x="228" y="240" on="0"/>
        <pt x="228" y="210" on="1"/>
        <pt x="228" y="151" on="0"/>
        <pt x="263" y="73" on="0"/>
        <pt x="315" y="27" on="0"/>
        <pt x="378" y="8" on="0"/>
        <pt x="405" y="8" on="1"/>
        <pt x="431" y="8" on="0"/>
        <pt x="481" y="21" on="0"/>
        <pt x="525" y="44" on="0"/>
        <pt x="559" y="75" on="0"/>
        <pt x="569" y="93" on="1"/>
        <pt x="575" y="103" on="0"/>
        <pt x="587" y="145" on="0"/>
        <pt x="597" y="187" on="0"/>
        <pt x="604" y="221" on="0"/>
        <pt x="604" y="222" on="1"/>
        <pt x="604" y="237" on="0"/>
        <pt x="561" y="242" on="0"/>
        <pt x="532" y="242" on="1"/>
        <pt x="525" y="242" on="1"/>
        <pt x="513" y="242" on="0"/>
        <pt x="501" y="244" on="0"/>
        <pt x="501" y="252" on="1"/>
        <pt x="501" y="266" on="0"/>
        <pt x="514" y="271" on="0"/>
        <pt x="521" y="271" on="1"/>
        <pt x="550" y="271" on="0"/>
        <pt x="610" y="269" on="0"/>
        <pt x="639" y="269" on="1"/>
        <pt x="664" y="269" on="0"/>
        <pt x="715" y="271" on="0"/>
        <pt x="739" y="271" on="1"/>
        <pt x="743" y="271" on="0"/>
        <pt x="751" y="267" on="0"/>
        <pt x="751" y="261" on="1"/>
        <pt x="751" y="242" on="0"/>
        <pt x="737" y="242" on="1"/>
        <pt x="718" y="242" on="0"/>
        <pt x="696" y="239" on="0"/>
        <pt x="683" y="229" on="0"/>
        <pt x="676" y="208" on="0"/>
        <pt x="671" y="188" on="1"/>
      </contour>
    </TTGlyph>
    <TTGlyph name="Gamma" xMin="66" yMin="0" xMax="693" yMax="681">
      <contour>
        <pt x="243" y="72" on="1"/>
        <pt x="240" y="61" on="0"/>
        <pt x="239" y="50" on="0"/>
        <pt x="239" y="49" on="1"/>
        <pt x="239" y="34" on="0"/>
        <pt x="280" y="29" on="0"/>
        <pt x="309" y="29" on="1"/>
        <pt x="315" y="29" on="1"/>
        <pt x="327" y="29" on="0"/>
        <pt x="339" y="27" on="0"/>
        <pt x="339" y="19" on="1"/>
        <pt x="339" y="5" on="0"/>
        <pt x="326" y="0" on="0"/>
        <pt x="319" y="0" on="1"/>
        <pt x="289" y="0" on="0"/>
        <pt x="226" y="2" on="0"/>
        <pt x="195" y="2" on="1"/>
        <pt x="166" y="2" on="0"/>
        <pt x="108" y="0" on="0"/>
        <pt x="80" y="0" on="1"/>
        <pt x="77" y="0" on="0"/>
        <pt x="66" y="2" on="0"/>
        <pt x="66" y="10" on="1"/>
        <pt x="66" y="24" on="0"/>
        <pt x="79" y="29" on="0"/>
        <pt x="93" y="29" on="1"/>
        <pt x="116" y="29" on="0"/>
        <pt x="143" y="33" on="0"/>
        <pt x="158" y="42" on="0"/>
        <pt x="166" y="59" on="0"/>
        <pt x="169" y="72" on="1"/>
        <pt x="304" y="615" on="1"/>
        <pt x="307" y="626" on="0"/>
        <pt x="308" y="632" on="0"/>
        <pt x="308" y="634" on="1"/>
        <pt x="308" y="638" on="0"/>
        <pt x="306" y="644" on="0"/>
        <pt x="296" y="649" on="0"/>
        <pt x="274" y="652" on="0"/>
        <pt x="253" y="652" on="1"/>
        <pt x="241" y="652" on="0"/>
        <pt x="229" y="654" on="0"/>
        <pt x="229" y="662" on="1"/>
        <pt x="229" y="676" on="0"/>
        <pt x="242" y="681" on="0"/>
        <pt x="255" y="681" on="1"/>
        <pt x="668" y="681" on="1"/>
        <pt x="681" y="681" on="0"/>
        <pt x="693" y="678" on="0"/>
        <pt x="693" y="670" on="1"/>
        <pt x="693" y="668" on="0"/>
        <pt x="691" y="658" on="0"/>
        <pt x="691" y="656" on="1"/>
        <pt x="667" y="479" on="1"/>
        <pt x="665" y="465" on="0"/>
        <pt x="661" y="458" on="0"/>
        <pt x="652" y="458" on="1"/>
        <pt x="648" y="458" on="0"/>
        <pt x="638" y="461" on="0"/>
        <pt x="638" y="469" on="1"/>
        <pt x="638" y="471" on="0"/>
        <pt x="640" y="487" on="0"/>
        <pt x="641" y="490" on="1"/>
        <pt x="645" y="517" on="0"/>
        <pt x="646" y="554" on="0"/>
        <pt x="646" y="557" on="1"/>
        <pt x="646" y="578" on="0"/>
        <pt x="639" y="612" on="0"/>
        <pt x="614" y="638" on="0"/>
        <pt x="565" y="652" on="0"/>
        <pt x="523" y="652" on="1"/>
        <pt x="427" y="652" on="1"/>
        <pt x="403" y="652" on="0"/>
        <pt x="386" y="642" on="0"/>
        <pt x="379" y="616" on="1"/>
      </contour>
    </TTGlyph>
    <TTGlyph name="H" xMin="66" yMin="0" xMax="831" yMax="683">
      <contour>
        <pt x="590" y="61" on="1"/>
        <pt x="588" y="57" on="0"/>
        <pt x="588" y="46" on="1"/>
        <pt x="588" y="43" on="0"/>
        <pt x="590" y="36" on="0"/>
        <pt x="600" y="32" on="0"/>
        <pt x="623" y="29" on="0"/>
        <pt x="644" y="29" on="1"/>
        <pt x="655" y="29" on="0"/>
        <pt x="667" y="27" on="0"/>
        <pt x="667" y="19" on="1"/>
        <pt x="667" y="5" on="0"/>
        <pt x="654" y="0" on="0"/>
        <pt x="648" y="0" on="1"/>
        <pt x="622" y="0" on="0"/>
        <pt x="565" y="2" on="0"/>
        <pt x="538" y="2" on="1"/>
        <pt x="511" y="2" on="0"/>
        <pt x="456" y="0" on="0"/>
        <pt x="430" y="0" on="1"/>
        <pt x="427" y="0" on="0"/>
        <pt x="416" y="2" on="0"/>
        <pt x="416" y="10" on="1"/>
        <pt x="416" y="24" on="0"/>
        <pt x="429" y="29" on="0"/>
        <pt x="443" y="29" on="1"/>
        <pt x="466" y="29" on="0"/>
        <pt x="493" y="33" on="0"/>
        <pt x="508" y="42" on="0"/>
        <pt x="516" y="59" on="0"/>
        <pt x="519" y="72" on="1"/>
        <pt x="586" y="341" on="1"/>
        <pt x="311" y="341" on="1"/>
        <pt x="240" y="61" on="1"/>
        <pt x="238" y="46" on="1"/>
        <pt x="238" y="43" on="0"/>
        <pt x="240" y="36" on="0"/>
        <pt x="250" y="32" on="0"/>
        <pt x="273" y="29" on="0"/>
        <pt x="294" y="29" on="1"/>
        <pt x="305" y="29" on="0"/>
        <pt x="317" y="27" on="0"/>
        <pt x="317" y="19" on="1"/>
        <pt x="317" y="5" on="0"/>
        <pt x="304" y="0" on="0"/>
        <pt x="298" y="0" on="1"/>
        <pt x="272" y="0" on="0"/>
        <pt x="215" y="2" on="0"/>
        <pt x="188" y="2" on="1"/>
        <pt x="161" y="2" on="0"/>
        <pt x="106" y="0" on="0"/>
        <pt x="80" y="0" on="1"/>
        <pt x="77" y="0" on="0"/>
        <pt x="66" y="2" on="0"/>
        <pt x="66" y="10" on="1"/>
        <pt x="66" y="24" on="0"/>
        <pt x="79" y="29" on="0"/>
        <pt x="93" y="29" on="1"/>
        <pt x="116" y="29" on="0"/>
        <pt x="143" y="33" on="0"/>
        <pt x="158" y="42" on="0"/>
        <pt x="166" y="59" on="0"/>
        <pt x="169" y="72" on="1"/>
        <pt x="306" y="623" on="1"/>
        <pt x="308" y="628" on="0"/>
        <pt x="308" y="633" on="0"/>
        <pt x="308" y="638" on="1"/>
        <pt x="308" y="650" on="0"/>
        <pt x="274" y="654" on="0"/>
        <pt x="255" y="654" on="1"/>
        <pt x="241" y="654" on="0"/>
        <pt x="229" y="656" on="0"/>
        <pt x="229" y="664" on="1"/>
        <pt x="229" y="678" on="0"/>
        <pt x="242" y="683" on="0"/>
        <pt x="248" y="683" on="1"/>
        <pt x="275" y="683" on="0"/>
        <pt x="331" y="681" on="0"/>
        <pt x="359" y="681" on="1"/>
        <pt x="386" y="681" on="0"/>
        <pt x="441" y="683" on="0"/>
        <pt x="467" y="683" on="1"/>
        <pt x="471" y="683" on="0"/>
        <pt x="481" y="680" on="0"/>
        <pt x="481" y="672" on="1"/>
        <pt x="481" y="658" on="0"/>
        <pt x="468" y="654" on="0"/>
        <pt x="455" y="654" on="1"/>
        <pt x="432" y="654" on="0"/>
        <pt x="404" y="650" on="0"/>
        <pt x="389" y="641" on="0"/>
        <pt x="381" y="625" on="0"/>
        <pt x="378" y="612" on="1"/>
        <pt x="318" y="370" on="1"/>
        <pt x="593" y="370" on="1"/>
        <pt x="656" y="623" on="1"/>
        <pt x="658" y="628" on="0"/>
        <pt x="658" y="633" on="0"/>
        <pt x="658" y="638" on="1"/>
        <pt x="658" y="650" on="0"/>
        <pt x="624" y="654" on="0"/>
        <pt x="605" y="654" on="1"/>
        <pt x="591" y="654" on="0"/>
        <pt x="579" y="656" on="0"/>
        <pt x="579" y="664" on="1"/>
        <pt x="579" y="678" on="0"/>
        <pt x="592" y="683" on="0"/>
        <pt x="598" y="683" on="1"/>
        <pt x="625" y="683" on="0"/>
        <pt x="681" y="681" on="0"/>
        <pt x="709" y="681" on="1"/>
        <pt x="736" y="681" on="0"/>
        <pt x="791" y="683" on="0"/>
        <pt x="817" y="683" on="1"/>
        <pt x="821" y="683" on="0"/>
        <pt x="831" y="680" on="0"/>
        <pt x="831" y="672" on="1"/>
        <pt x="831" y="658" on="0"/>
        <pt x="818" y="654" on="0"/>
        <pt x="805" y="654" on="1"/>
        <pt x="782" y="654" on="0"/>
        <pt x="754" y="650" on="0"/>
        <pt x="739" y="641" on="0"/>
        <pt x="731" y="625" on="0"/>
        <pt x="728" y="612" on="1"/>
      </contour>
    </TTGlyph>
    <TTGlyph name="I" xMin="62" yMin="0" xMax="485" yMax="683">
      <contour>
        <pt x="241" y="63" on="1"/>
        <pt x="239" y="56" on="0"/>
        <pt x="239" y="51" on="0"/>
        <pt x="239" y="46" on="1"/>
        <pt x="239" y="33" on="0"/>
        <pt x="275" y="29" on="0"/>
        <pt x="296" y="29" on="1"/>
        <pt x="310" y="29" on="0"/>
        <pt x="322" y="27" on="0"/>
        <pt x="322" y="19" on="1"/>
        <pt x="322" y="5" on="0"/>
        <pt x="309" y="0" on="0"/>
        <pt x="303" y="0" on="1"/>
        <pt x="275" y="0" on="0"/>
        <pt x="217" y="2" on="0"/>
        <pt x="188" y="2" on="1"/>
        <pt x="160" y="2" on="0"/>
        <pt x="103" y="0" on="0"/>
        <pt x="76" y="0" on="1"/>
        <pt x="73" y="0" on="0"/>
        <pt x="62" y="2" on="0"/>
        <pt x="62" y="10" on="1"/>
        <pt x="62" y="24" on="0"/>
        <pt x="75" y="29" on="0"/>
        <pt x="86" y="29" on="1"/>
        <pt x="112" y="29" on="0"/>
        <pt x="141" y="32" on="0"/>
        <pt x="158" y="42" on="0"/>
        <pt x="166" y="59" on="0"/>
        <pt x="169" y="72" on="1"/>
        <pt x="304" y="612" on="1"/>
        <pt x="307" y="624" on="0"/>
        <pt x="308" y="634" on="0"/>
        <pt x="308" y="636" on="1"/>
        <pt x="308" y="640" on="0"/>
        <pt x="306" y="647" on="0"/>
        <pt x="295" y="651" on="0"/>
        <pt x="271" y="654" on="0"/>
        <pt x="249" y="654" on="1"/>
        <pt x="236" y="654" on="0"/>
        <pt x="225" y="657" on="0"/>
        <pt x="225" y="665" on="1"/>
        <pt x="225" y="679" on="0"/>
        <pt x="238" y="683" on="0"/>
        <pt x="244" y="683" on="1"/>
        <pt x="272" y="683" on="0"/>
        <pt x="329" y="681" on="0"/>
        <pt x="358" y="681" on="1"/>
        <pt x="386" y="681" on="0"/>
        <pt x="443" y="683" on="0"/>
        <pt x="471" y="683" on="1"/>
        <pt x="474" y="683" on="0"/>
        <pt x="485" y="681" on="0"/>
        <pt x="485" y="673" on="1"/>
        <pt x="485" y="659" on="0"/>
        <pt x="472" y="654" on="0"/>
        <pt x="456" y="654" on="1"/>
        <pt x="434" y="654" on="0"/>
        <pt x="406" y="651" on="0"/>
        <pt x="389" y="642" on="0"/>
        <pt x="381" y="626" on="0"/>
        <pt x="378" y="613" on="1"/>
      </contour>
    </TTGlyph>
    <TTGlyph name="J" xMin="100" yMin="-21" xMax="608" yMax="683">
      <contour>
        <pt x="410" y="141" on="1"/>
        <pt x="402" y="110" on="0"/>
        <pt x="364" y="51" on="0"/>
        <pt x="310" y="6" on="0"/>
        <pt x="245" y="-21" on="0"/>
        <pt x="211" y="-21" on="1"/>
        <pt x="166" y="-21" on="0"/>
        <pt x="100" y="34" on="0"/>
        <pt x="100" y="85" on="1"/>
        <pt x="100" y="112" on="0"/>
        <pt x="116" y="142" on="0"/>
        <pt x="137" y="156" on="0"/>
        <pt x="155" y="158" on="0"/>
        <pt x="156" y="158" on="1"/>
        <pt x="172" y="158" on="0"/>
        <pt x="193" y="139" on="0"/>
        <pt x="193" y="123" on="1"/>
        <pt x="193" y="106" on="0"/>
        <pt x="164" y="70" on="0"/>
        <pt x="139" y="70" on="1"/>
        <pt x="130" y="70" on="0"/>
        <pt x="127" y="71" on="1"/>
        <pt x="132" y="35" on="0"/>
        <pt x="180" y="-1" on="0"/>
        <pt x="209" y="-1" on="1"/>
        <pt x="230" y="-1" on="0"/>
        <pt x="271" y="25" on="0"/>
        <pt x="305" y="66" on="0"/>
        <pt x="332" y="118" on="0"/>
        <pt x="338" y="144" on="1"/>
        <pt x="456" y="617" on="1"/>
        <pt x="457" y="620" on="0"/>
        <pt x="459" y="630" on="0"/>
        <pt x="459" y="633" on="1"/>
        <pt x="459" y="649" on="0"/>
        <pt x="416" y="654" on="0"/>
        <pt x="386" y="654" on="1"/>
        <pt x="378" y="654" on="1"/>
        <pt x="365" y="654" on="0"/>
        <pt x="354" y="657" on="0"/>
        <pt x="354" y="665" on="1"/>
        <pt x="354" y="679" on="0"/>
        <pt x="367" y="683" on="0"/>
        <pt x="374" y="683" on="1"/>
        <pt x="403" y="683" on="0"/>
        <pt x="464" y="681" on="0"/>
        <pt x="494" y="681" on="1"/>
        <pt x="519" y="681" on="0"/>
        <pt x="571" y="683" on="0"/>
        <pt x="595" y="683" on="1"/>
        <pt x="598" y="683" on="0"/>
        <pt x="608" y="680" on="0"/>
        <pt x="608" y="672" on="1"/>
        <pt x="608" y="658" on="0"/>
        <pt x="595" y="654" on="0"/>
        <pt x="586" y="654" on="1"/>
        <pt x="555" y="654" on="0"/>
        <pt x="534" y="640" on="0"/>
        <pt x="528" y="617" on="1"/>
      </contour>
    </TTGlyph>
    <TTGlyph name="K" xMin="66" yMin="0" xMax="844" yMax="683">
      <contour>
        <pt x="618" y="70" on="1"/>
        <pt x="627" y="46" on="0"/>
        <pt x="651" y="30" on="0"/>
        <pt x="674" y="29" on="1"/>
        <pt x="683" y="29" on="0"/>
        <pt x="693" y="26" on="0"/>
        <pt x="693" y="19" on="1"/>
        <pt x="693" y="5" on="0"/>
        <pt x="681" y="0" on="0"/>
        <pt x="676" y="0" on="1"/>
        <pt x="674" y="0" on="0"/>
        <pt x="641" y="2" on="0"/>
        <pt x="588" y="2" on="1"/>
        <pt x="563" y="2" on="0"/>
        <pt x="513" y="0" on="0"/>
        <pt x="489" y="0" on="1"/>
        <pt x="486" y="0" on="0"/>
        <pt x="475" y="2" on="0"/>
        <pt x="475" y="10" on="1"/>
        <pt x="475" y="24" on="0"/>
        <pt x="487" y="29" on="0"/>
        <pt x="492" y="29" on="1"/>
        <pt x="497" y="29" on="0"/>
        <pt x="513" y="31" on="0"/>
        <pt x="528" y="37" on="0"/>
        <pt x="540" y="50" on="0"/>
        <pt x="540" y="61" on="1"/>
        <pt x="540" y="66" on="0"/>
        <pt x="539" y="73" on="0"/>
        <pt x="535" y="82" on="1"/>
        <pt x="430" y="367" on="1"/>
        <pt x="287" y="246" on="1"/>
        <pt x="272" y="185" on="0"/>
        <pt x="252" y="110" on="0"/>
        <pt x="242" y="67" on="0"/>
        <pt x="238" y="49" on="0"/>
        <pt x="238" y="46" on="1"/>
        <pt x="238" y="43" on="0"/>
        <pt x="240" y="36" on="0"/>
        <pt x="250" y="32" on="0"/>
        <pt x="273" y="29" on="0"/>
        <pt x="294" y="29" on="1"/>
        <pt x="305" y="29" on="0"/>
        <pt x="317" y="27" on="0"/>
        <pt x="317" y="19" on="1"/>
        <pt x="317" y="5" on="0"/>
        <pt x="304" y="0" on="0"/>
        <pt x="298" y="0" on="1"/>
        <pt x="272" y="0" on="0"/>
        <pt x="215" y="2" on="0"/>
        <pt x="188" y="2" on="1"/>
        <pt x="161" y="2" on="0"/>
        <pt x="106" y="0" on="0"/>
        <pt x="80" y="0" on="1"/>
        <pt x="77" y="0" on="0"/>
        <pt x="66" y="2" on="0"/>
        <pt x="66" y="10" on="1"/>
        <pt x="66" y="24" on="0"/>
        <pt x="79" y="29" on="0"/>
        <pt x="93" y="29" on="1"/>
        <pt x="116" y="29" on="0"/>
        <pt x="143" y="33" on="0"/>
        <pt x="158" y="42" on="0"/>
        <pt x="166" y="59" on="0"/>
        <pt x="169" y="72" on="1"/>
        <pt x="306" y="623" on="1"/>
        <pt x="308" y="628" on="0"/>
        <pt x="308" y="633" on="0"/>
        <pt x="308" y="638" on="1"/>
        <pt x="308" y="650" on="0"/>
        <pt x="274" y="654" on="0"/>
        <pt x="255" y="654" on="1"/>
        <pt x="241" y="654" on="0"/>
        <pt x="229" y="656" on="0"/>
        <pt x="229" y="664" on="1"/>
        <pt x="229" y="678" on="0"/>
        <pt x="242" y="683" on="0"/>
        <pt x="248" y="683" on="1"/>
        <pt x="275" y="683" on="0"/>
        <pt x="331" y="681" on="0"/>
        <pt x="359" y="681" on="1"/>
        <pt x="386" y="681" on="0"/>
        <pt x="441" y="683" on="0"/>
        <pt x="467" y="683" on="1"/>
        <pt x="471" y="683" on="0"/>
        <pt x="481" y="680" on="0"/>
        <pt x="481" y="672" on="1"/>
        <pt x="481" y="658" on="0"/>
        <pt x="468" y="654" on="0"/>
        <pt x="455" y="654" on="1"/>
        <pt x="432" y="654" on="0"/>
        <pt x="404" y="650" on="0"/>
        <pt x="389" y="641" on="0"/>
        <pt x="381" y="625" on="0"/>
        <pt x="378" y="612" on="1"/>
        <pt x="297" y="288" on="1"/>
        <pt x="653" y="586" on="1"/>
        <pt x="658" y="591" on="0"/>
        <pt x="662" y="594" on="1"/>
        <pt x="664" y="598" on="0"/>
        <pt x="668" y="600" on="1"/>
        <pt x="673" y="605" on="0"/>
        <pt x="687" y="621" on="0"/>
        <pt x="687" y="635" on="1"/>
        <pt x="687" y="645" on="0"/>
        <pt x="674" y="653" on="0"/>
        <pt x="664" y="654" on="1"/>
        <pt x="661" y="654" on="0"/>
        <pt x="652" y="657" on="0"/>
        <pt x="652" y="664" on="1"/>
        <pt x="652" y="678" on="0"/>
        <pt x="665" y="683" on="0"/>
        <pt x="671" y="683" on="1"/>
        <pt x="693" y="683" on="0"/>
        <pt x="739" y="681" on="0"/>
        <pt x="762" y="681" on="1"/>
        <pt x="779" y="681" on="0"/>
        <pt x="816" y="683" on="0"/>
        <pt x="833" y="683" on="1"/>
        <pt x="844" y="683" on="0"/>
        <pt x="844" y="673" on="1"/>
        <pt x="844" y="660" on="0"/>
        <pt x="833" y="655" on="0"/>
        <pt x="827" y="654" on="1"/>
        <pt x="816" y="653" on="0"/>
        <pt x="790" y="647" on="0"/>
        <pt x="755" y="631" on="0"/>
        <pt x="708" y="600" on="0"/>
        <pt x="676" y="573" on="1"/>
        <pt x="490" y="417" on="1"/>
      </contour>
    </TTGlyph>
    <TTGlyph name="L" xMin="66" yMin="0" xMax="610" yMax="683">
      <contour>
        <pt x="241" y="64" on="1"/>
        <pt x="239" y="59" on="0"/>
        <pt x="237" y="47" on="0"/>
        <pt x="237" y="41" on="1"/>
        <pt x="237" y="33" on="0"/>
        <pt x="245" y="29" on="0"/>
        <pt x="267" y="29" on="1"/>
        <pt x="349" y="29" on="1"/>
        <pt x="407" y="29" on="0"/>
        <pt x="484" y="69" on="0"/>
        <pt x="535" y="129" on="0"/>
        <pt x="565" y="199" on="0"/>
        <pt x="576" y="230" on="1"/>
        <pt x="583" y="249" on="0"/>
        <pt x="589" y="256" on="0"/>
        <pt x="597" y="256" on="1"/>
        <pt x="610" y="256" on="0"/>
        <pt x="610" y="246" on="1"/>
        <pt x="610" y="244" on="0"/>
        <pt x="608" y="236" on="0"/>
        <pt x="607" y="234" on="1"/>
        <pt x="531" y="17" on="1"/>
        <pt x="526" y="4" on="0"/>
        <pt x="519" y="0" on="0"/>
        <pt x="503" y="0" on="1"/>
        <pt x="90" y="0" on="1"/>
        <pt x="78" y="0" on="0"/>
        <pt x="66" y="2" on="0"/>
        <pt x="66" y="10" on="1"/>
        <pt x="66" y="24" on="0"/>
        <pt x="79" y="29" on="0"/>
        <pt x="93" y="29" on="1"/>
        <pt x="116" y="29" on="0"/>
        <pt x="143" y="33" on="0"/>
        <pt x="158" y="42" on="0"/>
        <pt x="166" y="59" on="0"/>
        <pt x="169" y="72" on="1"/>
        <pt x="306" y="623" on="1"/>
        <pt x="308" y="628" on="0"/>
        <pt x="308" y="633" on="0"/>
        <pt x="308" y="638" on="1"/>
        <pt x="308" y="650" on="0"/>
        <pt x="274" y="654" on="0"/>
        <pt x="255" y="654" on="1"/>
        <pt x="241" y="654" on="0"/>
        <pt x="229" y="656" on="0"/>
        <pt x="229" y="664" on="1"/>
        <pt x="229" y="678" on="0"/>
        <pt x="242" y="683" on="0"/>
        <pt x="248" y="683" on="1"/>
        <pt x="277" y="683" on="0"/>
        <pt x="336" y="681" on="0"/>
        <pt x="365" y="681" on="1"/>
        <pt x="395" y="681" on="0"/>
        <pt x="457" y="683" on="0"/>
        <pt x="487" y="683" on="1"/>
        <pt x="493" y="683" on="0"/>
        <pt x="503" y="680" on="0"/>
        <pt x="503" y="672" on="1"/>
        <pt x="503" y="658" on="0"/>
        <pt x="489" y="654" on="0"/>
        <pt x="476" y="654" on="1"/>
        <pt x="469" y="654" on="1"/>
        <pt x="441" y="654" on="0"/>
        <pt x="407" y="650" on="0"/>
        <pt x="389" y="640" on="0"/>
        <pt x="380" y="622" on="0"/>
        <pt x="377" y="608" on="1"/>
      </contour>
    </TTGlyph>
    <TTGlyph name="Lambda" xMin="56" yMin="0" xMax="627" yMax="714">
      <contour>
        <pt x="493" y="698" on="1"/>
        <pt x="499" y="709" on="0"/>
        <pt x="510" y="714" on="0"/>
        <pt x="516" y="714" on="1"/>
        <pt x="526" y="714" on="0"/>
        <pt x="531" y="706" on="0"/>
        <pt x="532" y="690" on="1"/>
        <pt x="562" y="61" on="1"/>
        <pt x="562" y="52" on="0"/>
        <pt x="564" y="40" on="0"/>
        <pt x="573" y="32" on="0"/>
        <pt x="591" y="29" on="0"/>
        <pt x="607" y="29" on="1"/>
        <pt x="616" y="29" on="0"/>
        <pt x="627" y="27" on="0"/>
        <pt x="627" y="19" on="1"/>
        <pt x="627" y="5" on="0"/>
        <pt x="615" y="0" on="0"/>
        <pt x="610" y="0" on="1"/>
        <pt x="609" y="0" on="0"/>
        <pt x="566" y="2" on="0"/>
        <pt x="515" y="2" on="1"/>
        <pt x="490" y="2" on="0"/>
        <pt x="439" y="0" on="0"/>
        <pt x="414" y="0" on="1"/>
        <pt x="411" y="0" on="0"/>
        <pt x="400" y="2" on="0"/>
        <pt x="400" y="10" on="1"/>
        <pt x="400" y="24" on="0"/>
        <pt x="412" y="29" on="0"/>
        <pt x="418" y="29" on="1"/>
        <pt x="444" y="29" on="0"/>
        <pt x="471" y="38" on="0"/>
        <pt x="483" y="52" on="0"/>
        <pt x="484" y="68" on="0"/>
        <pt x="484" y="75" on="1"/>
        <pt x="460" y="584" on="1"/>
        <pt x="195" y="101" on="1"/>
        <pt x="187" y="87" on="0"/>
        <pt x="182" y="71" on="0"/>
        <pt x="182" y="63" on="1"/>
        <pt x="182" y="46" on="0"/>
        <pt x="205" y="31" on="0"/>
        <pt x="221" y="29" on="1"/>
        <pt x="225" y="29" on="0"/>
        <pt x="234" y="26" on="0"/>
        <pt x="234" y="19" on="1"/>
        <pt x="234" y="5" on="0"/>
        <pt x="222" y="0" on="0"/>
        <pt x="217" y="0" on="1"/>
        <pt x="198" y="0" on="0"/>
        <pt x="157" y="2" on="0"/>
        <pt x="137" y="2" on="1"/>
        <pt x="97" y="2" on="0"/>
        <pt x="68" y="0" on="0"/>
        <pt x="67" y="0" on="1"/>
        <pt x="56" y="0" on="0"/>
        <pt x="56" y="11" on="1"/>
        <pt x="56" y="23" on="0"/>
        <pt x="67" y="28" on="0"/>
        <pt x="73" y="29" on="1"/>
        <pt x="81" y="30" on="0"/>
        <pt x="103" y="35" on="0"/>
        <pt x="129" y="51" on="0"/>
        <pt x="158" y="83" on="0"/>
        <pt x="173" y="111" on="1"/>
      </contour>
    </TTGlyph>
    <TTGlyph name="M" xMin="70" yMin="0" xMax="977" yMax="683">
      <contour>
        <pt x="736" y="61" on="1"/>
        <pt x="734" y="57" on="0"/>
        <pt x="734" y="46" on="1"/>
        <pt x="734" y="43" on="0"/>
        <pt x="736" y="36" on="0"/>
        <pt x="746" y="32" on="0"/>
        <pt x="769" y="29" on="0"/>
        <pt x="790" y="29" on="1"/>
        <pt x="801" y="29" on="0"/>
        <pt x="813" y="27" on="0"/>
        <pt x="813" y="19" on="1"/>
        <pt x="813" y="5" on="0"/>
        <pt x="800" y="0" on="0"/>
        <pt x="795" y="0" on="1"/>
        <pt x="769" y="0" on="0"/>
        <pt x="714" y="2" on="0"/>
        <pt x="687" y="2" on="1"/>
        <pt x="661" y="2" on="0"/>
        <pt x="608" y="0" on="0"/>
        <pt x="582" y="0" on="1"/>
        <pt x="580" y="0" on="0"/>
        <pt x="569" y="2" on="0"/>
        <pt x="569" y="10" on="1"/>
        <pt x="569" y="24" on="0"/>
        <pt x="582" y="29" on="0"/>
        <pt x="596" y="29" on="1"/>
        <pt x="619" y="29" on="0"/>
        <pt x="646" y="33" on="0"/>
        <pt x="661" y="42" on="0"/>
        <pt x="669" y="59" on="0"/>
        <pt x="672" y="72" on="1"/>
        <pt x="814" y="642" on="1"/>
        <pt x="813" y="642" on="1"/>
        <pt x="442" y="18" on="1"/>
        <pt x="436" y="8" on="0"/>
        <pt x="428" y="0" on="0"/>
        <pt x="419" y="0" on="1"/>
        <pt x="410" y="0" on="0"/>
        <pt x="405" y="8" on="0"/>
        <pt x="403" y="22" on="1"/>
        <pt x="345" y="636" on="1"/>
        <pt x="344" y="636" on="1"/>
        <pt x="209" y="95" on="1"/>
        <pt x="209" y="94" on="0"/>
        <pt x="205" y="78" on="0"/>
        <pt x="205" y="71" on="1"/>
        <pt x="205" y="45" on="0"/>
        <pt x="240" y="30" on="0"/>
        <pt x="263" y="29" on="1"/>
        <pt x="268" y="29" on="0"/>
        <pt x="277" y="26" on="0"/>
        <pt x="277" y="19" on="1"/>
        <pt x="277" y="5" on="0"/>
        <pt x="265" y="0" on="0"/>
        <pt x="260" y="0" on="1"/>
        <pt x="238" y="0" on="0"/>
        <pt x="193" y="2" on="0"/>
        <pt x="170" y="2" on="1"/>
        <pt x="148" y="2" on="0"/>
        <pt x="103" y="0" on="0"/>
        <pt x="82" y="0" on="1"/>
        <pt x="79" y="0" on="0"/>
        <pt x="70" y="3" on="0"/>
        <pt x="70" y="10" on="1"/>
        <pt x="70" y="24" on="0"/>
        <pt x="81" y="29" on="0"/>
        <pt x="85" y="29" on="1"/>
        <pt x="96" y="30" on="0"/>
        <pt x="124" y="33" on="0"/>
        <pt x="151" y="47" on="0"/>
        <pt x="174" y="75" on="0"/>
        <pt x="180" y="100" on="1"/>
        <pt x="310" y="623" on="1"/>
        <pt x="312" y="628" on="0"/>
        <pt x="312" y="633" on="0"/>
        <pt x="312" y="638" on="1"/>
        <pt x="312" y="650" on="0"/>
        <pt x="278" y="654" on="0"/>
        <pt x="259" y="654" on="1"/>
        <pt x="245" y="654" on="0"/>
        <pt x="233" y="656" on="0"/>
        <pt x="233" y="664" on="1"/>
        <pt x="233" y="678" on="0"/>
        <pt x="246" y="683" on="0"/>
        <pt x="260" y="683" on="1"/>
        <pt x="381" y="683" on="1"/>
        <pt x="399" y="683" on="0"/>
        <pt x="407" y="677" on="0"/>
        <pt x="408" y="660" on="1"/>
        <pt x="462" y="94" on="1"/>
        <pt x="802" y="667" on="1"/>
        <pt x="810" y="679" on="0"/>
        <pt x="820" y="683" on="0"/>
        <pt x="836" y="683" on="1"/>
        <pt x="953" y="683" on="1"/>
        <pt x="966" y="683" on="0"/>
        <pt x="977" y="680" on="0"/>
        <pt x="977" y="672" on="1"/>
        <pt x="977" y="658" on="0"/>
        <pt x="964" y="654" on="0"/>
        <pt x="951" y="654" on="1"/>
        <pt x="928" y="654" on="0"/>
        <pt x="900" y="650" on="0"/>
        <pt x="885" y="641" on="0"/>
        <pt x="877" y="625" on="0"/>
        <pt x="874" y="612" on="1"/>
      </contour>
    </TTGlyph>
    <TTGlyph name="N" xMin="66" yMin="0" xMax="831" yMax="683">
      <contour>
        <pt x="580" y="18" on="1"/>
        <pt x="577" y="5" on="0"/>
        <pt x="570" y="0" on="0"/>
        <pt x="562" y="0" on="1"/>
        <pt x="553" y="0" on="0"/>
        <pt x="548" y="6" on="0"/>
        <pt x="545" y="15" on="1"/>
        <pt x="337" y="622" on="1"/>
        <pt x="205" y="95" on="1"/>
        <pt x="205" y="94" on="0"/>
        <pt x="201" y="78" on="0"/>
        <pt x="201" y="71" on="1"/>
        <pt x="201" y="45" on="0"/>
        <pt x="236" y="30" on="0"/>
        <pt x="259" y="29" on="1"/>
        <pt x="264" y="29" on="0"/>
        <pt x="273" y="26" on="0"/>
        <pt x="273" y="19" on="1"/>
        <pt x="273" y="5" on="0"/>
        <pt x="261" y="0" on="0"/>
        <pt x="256" y="0" on="1"/>
        <pt x="234" y="0" on="0"/>
        <pt x="189" y="2" on="0"/>
        <pt x="166" y="2" on="1"/>
        <pt x="144" y="2" on="0"/>
        <pt x="99" y="0" on="0"/>
        <pt x="78" y="0" on="1"/>
        <pt x="75" y="0" on="0"/>
        <pt x="66" y="3" on="0"/>
        <pt x="66" y="10" on="1"/>
        <pt x="66" y="24" on="0"/>
        <pt x="77" y="29" on="0"/>
        <pt x="81" y="29" on="1"/>
        <pt x="92" y="30" on="0"/>
        <pt x="120" y="33" on="0"/>
        <pt x="147" y="47" on="0"/>
        <pt x="170" y="75" on="0"/>
        <pt x="176" y="100" on="1"/>
        <pt x="313" y="648" on="1"/>
        <pt x="296" y="653" on="0"/>
        <pt x="262" y="654" on="0"/>
        <pt x="255" y="654" on="1"/>
        <pt x="241" y="654" on="0"/>
        <pt x="229" y="656" on="0"/>
        <pt x="229" y="664" on="1"/>
        <pt x="229" y="678" on="0"/>
        <pt x="242" y="683" on="0"/>
        <pt x="256" y="683" on="1"/>
        <pt x="370" y="683" on="1"/>
        <pt x="386" y="683" on="0"/>
        <pt x="393" y="678" on="0"/>
        <pt x="397" y="667" on="1"/>
        <pt x="579" y="137" on="1"/>
        <pt x="691" y="585" on="1"/>
        <pt x="692" y="590" on="0"/>
        <pt x="695" y="605" on="0"/>
        <pt x="695" y="612" on="1"/>
        <pt x="695" y="635" on="0"/>
        <pt x="666" y="653" on="0"/>
        <pt x="638" y="654" on="1"/>
        <pt x="633" y="654" on="0"/>
        <pt x="623" y="657" on="0"/>
        <pt x="623" y="664" on="1"/>
        <pt x="623" y="678" on="0"/>
        <pt x="636" y="683" on="0"/>
        <pt x="641" y="683" on="1"/>
        <pt x="663" y="683" on="0"/>
        <pt x="708" y="681" on="0"/>
        <pt x="731" y="681" on="1"/>
        <pt x="753" y="681" on="0"/>
        <pt x="797" y="683" on="0"/>
        <pt x="818" y="683" on="1"/>
        <pt x="821" y="683" on="0"/>
        <pt x="831" y="680" on="0"/>
        <pt x="831" y="672" on="1"/>
        <pt x="831" y="659" on="0"/>
        <pt x="819" y="654" on="0"/>
        <pt x="816" y="654" on="1"/>
        <pt x="802" y="653" on="0"/>
        <pt x="773" y="648" on="0"/>
        <pt x="748" y="634" on="0"/>
        <pt x="727" y="606" on="0"/>
        <pt x="721" y="583" on="1"/>
      </contour>
    </TTGlyph>
    <TTGlyph name="O" xMin="146" yMin="-21" xMax="773" yMax="704">
      <contour>
        <pt x="773" y="446" on="1"/>
        <pt x="773" y="358" on="0"/>
        <pt x="703" y="190" on="0"/>
        <pt x="589" y="59" on="0"/>
        <pt x="444" y="-21" on="0"/>
        <pt x="370" y="-21" on="1"/>
        <pt x="318" y="-21" on="0"/>
        <pt x="235" y="19" on="0"/>
        <pt x="177" y="88" on="0"/>
        <pt x="146" y="181" on="0"/>
        <pt x="146" y="235" on="1"/>
        <pt x="146" y="293" on="0"/>
        <pt x="178" y="407" on="0"/>
        <pt x="234" y="511" on="0"/>
        <pt x="311" y="601" on="0"/>
        <pt x="401" y="667" on="0"/>
        <pt x="500" y="704" on="0"/>
        <pt x="550" y="704" on="1"/>
        <pt x="602" y="704" on="0"/>
        <pt x="684" y="664" on="0"/>
        <pt x="742" y="595" on="0"/>
        <pt x="773" y="500" on="0"/>
      </contour>
      <contour>
        <pt x="375" y="2" on="1"/>
        <pt x="420" y="2" on="0"/>
        <pt x="503" y="46" on="0"/>
        <pt x="574" y="121" on="0"/>
        <pt x="632" y="219" on="0"/>
        <pt x="673" y="327" on="0"/>
        <pt x="695" y="436" on="0"/>
        <pt x="695" y="485" on="1"/>
        <pt x="695" y="534" on="0"/>
        <pt x="671" y="608" on="0"/>
        <pt x="630" y="657" on="0"/>
        <pt x="575" y="682" on="0"/>
        <pt x="544" y="682" on="1"/>
        <pt x="496" y="682" on="0"/>
        <pt x="383" y="617" on="0"/>
        <pt x="332" y="546" on="1"/>
        <pt x="302" y="503" on="0"/>
        <pt x="262" y="403" on="0"/>
        <pt x="238" y="309" on="0"/>
        <pt x="228" y="229" on="0"/>
        <pt x="228" y="206" on="1"/>
        <pt x="228" y="160" on="0"/>
        <pt x="249" y="85" on="0"/>
        <pt x="287" y="31" on="0"/>
        <pt x="342" y="2" on="0"/>
      </contour>
    </TTGlyph>
    <TTGlyph name="OE" xMin="159" yMin="-21" xMax="1032" yMax="704">
      <contour>
        <pt x="881" y="16" on="1"/>
        <pt x="876" y="5" on="0"/>
        <pt x="869" y="0" on="0"/>
        <pt x="854" y="0" on="1"/>
        <pt x="526" y="0" on="1"/>
        <pt x="519" y="0" on="0"/>
        <pt x="506" y="0" on="0"/>
        <pt x="491" y="-2" on="0"/>
        <pt x="470" y="-6" on="0"/>
        <pt x="454" y="-10" on="1"/>
        <pt x="424" y="-17" on="0"/>
        <pt x="396" y="-21" on="0"/>
        <pt x="381" y="-21" on="1"/>
        <pt x="332" y="-21" on="0"/>
        <pt x="251" y="17" on="0"/>
        <pt x="192" y="84" on="0"/>
        <pt x="159" y="178" on="0"/>
        <pt x="159" y="235" on="1"/>
        <pt x="159" y="322" on="0"/>
        <pt x="229" y="490" on="0"/>
        <pt x="343" y="623" on="0"/>
        <pt x="488" y="704" on="0"/>
        <pt x="562" y="704" on="1"/>
        <pt x="574" y="704" on="0"/>
        <pt x="599" y="700" on="0"/>
        <pt x="619" y="695" on="1"/>
        <pt x="636" y="691" on="0"/>
        <pt x="658" y="686" on="0"/>
        <pt x="675" y="684" on="0"/>
        <pt x="689" y="683" on="0"/>
        <pt x="697" y="683" on="1"/>
        <pt x="1007" y="683" on="1"/>
        <pt x="1023" y="683" on="0"/>
        <pt x="1032" y="677" on="0"/>
        <pt x="1030" y="658" on="1"/>
        <pt x="1006" y="482" on="1"/>
        <pt x="1004" y="468" on="0"/>
        <pt x="1000" y="460" on="0"/>
        <pt x="990" y="460" on="1"/>
        <pt x="988" y="460" on="0"/>
        <pt x="977" y="462" on="0"/>
        <pt x="977" y="470" on="1"/>
        <pt x="977" y="473" on="0"/>
        <pt x="978" y="484" on="0"/>
        <pt x="979" y="487" on="1"/>
        <pt x="983" y="516" on="0"/>
        <pt x="984" y="551" on="0"/>
        <pt x="984" y="557" on="1"/>
        <pt x="984" y="577" on="0"/>
        <pt x="979" y="612" on="0"/>
        <pt x="955" y="638" on="0"/>
        <pt x="905" y="654" on="0"/>
        <pt x="860" y="654" on="1"/>
        <pt x="756" y="654" on="1"/>
        <pt x="744" y="654" on="0"/>
        <pt x="728" y="653" on="0"/>
        <pt x="717" y="646" on="0"/>
        <pt x="710" y="630" on="0"/>
        <pt x="707" y="616" on="1"/>
        <pt x="646" y="369" on="1"/>
        <pt x="744" y="369" on="1"/>
        <pt x="777" y="369" on="0"/>
        <pt x="819" y="379" on="0"/>
        <pt x="846" y="403" on="0"/>
        <pt x="863" y="441" on="0"/>
        <pt x="870" y="469" on="1"/>
        <pt x="873" y="479" on="0"/>
        <pt x="878" y="486" on="0"/>
        <pt x="886" y="486" on="1"/>
        <pt x="889" y="486" on="0"/>
        <pt x="900" y="484" on="0"/>
        <pt x="900" y="476" on="1"/>
        <pt x="900" y="474" on="0"/>
        <pt x="897" y="463" on="1"/>
        <pt x="842" y="241" on="1"/>
        <pt x="839" y="227" on="0"/>
        <pt x="832" y="223" on="0"/>
        <pt x="825" y="223" on="1"/>
        <pt x="823" y="223" on="0"/>
        <pt x="812" y="225" on="0"/>
        <pt x="812" y="233" on="1"/>
        <pt x="812" y="235" on="0"/>
        <pt x="814" y="245" on="0"/>
        <pt x="814" y="247" on="1"/>
        <pt x="818" y="261" on="0"/>
        <pt x="822" y="287" on="0"/>
        <pt x="822" y="295" on="1"/>
        <pt x="822" y="307" on="0"/>
        <pt x="815" y="324" on="0"/>
        <pt x="797" y="335" on="0"/>
        <pt x="766" y="340" on="0"/>
        <pt x="741" y="340" on="1"/>
        <pt x="638" y="340" on="1"/>
        <pt x="569" y="61" on="1"/>
        <pt x="566" y="50" on="0"/>
        <pt x="565" y="44" on="0"/>
        <pt x="565" y="41" on="1"/>
        <pt x="565" y="33" on="0"/>
        <pt x="573" y="29" on="0"/>
        <pt x="595" y="29" on="1"/>
        <pt x="700" y="29" on="1"/>
        <pt x="754" y="29" on="0"/>
        <pt x="826" y="53" on="0"/>
        <pt x="877" y="100" on="0"/>
        <pt x="915" y="172" on="0"/>
        <pt x="934" y="220" on="1"/>
        <pt x="938" y="228" on="0"/>
        <pt x="947" y="251" on="0"/>
        <pt x="949" y="253" on="1"/>
        <pt x="952" y="256" on="0"/>
        <pt x="960" y="256" on="1"/>
        <pt x="962" y="256" on="0"/>
        <pt x="973" y="254" on="0"/>
        <pt x="973" y="246" on="1"/>
        <pt x="973" y="245" on="0"/>
        <pt x="972" y="241" on="0"/>
        <pt x="969" y="234" on="1"/>
      </contour>
      <contour>
        <pt x="612" y="498" on="1"/>
        <pt x="620" y="528" on="0"/>
        <pt x="632" y="589" on="0"/>
        <pt x="632" y="621" on="1"/>
        <pt x="632" y="628" on="0"/>
        <pt x="630" y="650" on="0"/>
        <pt x="616" y="670" on="0"/>
        <pt x="586" y="684" on="0"/>
        <pt x="558" y="684" on="1"/>
        <pt x="504" y="684" on="0"/>
        <pt x="392" y="607" on="0"/>
        <pt x="301" y="478" on="0"/>
        <pt x="243" y="311" on="0"/>
        <pt x="243" y="220" on="1"/>
        <pt x="243" y="170" on="0"/>
        <pt x="264" y="88" on="0"/>
        <pt x="301" y="30" on="0"/>
        <pt x="355" y="-1" on="0"/>
        <pt x="388" y="-1" on="1"/>
        <pt x="414" y="-1" on="0"/>
        <pt x="455" y="13" on="0"/>
        <pt x="489" y="52" on="0"/>
        <pt x="518" y="119" on="0"/>
        <pt x="531" y="173" on="1"/>
      </contour>
    </TTGlyph>
    <TTGlyph name="Oslash" xMin="110" yMin="-58" xMax="810" yMax="742">
      <contour>
        <pt x="719" y="622" on="1"/>
        <pt x="737" y="599" on="0"/>
        <pt x="773" y="510" on="0"/>
        <pt x="773" y="446" on="1"/>
        <pt x="773" y="358" on="0"/>
        <pt x="703" y="190" on="0"/>
        <pt x="589" y="59" on="0"/>
        <pt x="444" y="-21" on="0"/>
        <pt x="370" y="-21" on="1"/>
        <pt x="338" y="-21" on="0"/>
        <pt x="288" y="-7" on="0"/>
        <pt x="250" y="13" on="0"/>
        <pt x="223" y="35" on="0"/>
        <pt x="214" y="43" on="1"/>
        <pt x="133" y="-50" on="1"/>
        <pt x="128" y="-55" on="0"/>
        <pt x="125" y="-58" on="0"/>
        <pt x="121" y="-58" on="1"/>
        <pt x="110" y="-58" on="0"/>
        <pt x="110" y="-48" on="1"/>
        <pt x="110" y="-46" on="0"/>
        <pt x="119" y="-34" on="0"/>
        <pt x="131" y="-19" on="0"/>
        <pt x="146" y="-2" on="0"/>
        <pt x="152" y="4" on="1"/>
        <pt x="156" y="9" on="0"/>
        <pt x="169" y="24" on="0"/>
        <pt x="183" y="41" on="0"/>
        <pt x="196" y="56" on="0"/>
        <pt x="200" y="60" on="1"/>
        <pt x="171" y="99" on="0"/>
        <pt x="146" y="191" on="0"/>
        <pt x="146" y="235" on="1"/>
        <pt x="146" y="293" on="0"/>
        <pt x="178" y="407" on="0"/>
        <pt x="234" y="511" on="0"/>
        <pt x="311" y="601" on="0"/>
        <pt x="401" y="667" on="0"/>
        <pt x="500" y="704" on="0"/>
        <pt x="550" y="704" on="1"/>
        <pt x="579" y="704" on="0"/>
        <pt x="627" y="692" on="0"/>
        <pt x="666" y="673" on="0"/>
        <pt x="695" y="650" on="0"/>
        <pt x="705" y="639" on="1"/>
        <pt x="786" y="733" on="1"/>
        <pt x="791" y="740" on="0"/>
        <pt x="797" y="742" on="0"/>
        <pt x="799" y="742" on="1"/>
        <pt x="805" y="742" on="0"/>
        <pt x="810" y="733" on="0"/>
        <pt x="810" y="731" on="1"/>
        <pt x="810" y="728" on="0"/>
        <pt x="807" y="724" on="0"/>
        <pt x="802" y="718" on="1"/>
      </contour>
      <contour>
        <pt x="678" y="609" on="1"/>
        <pt x="650" y="653" on="0"/>
        <pt x="578" y="684" on="0"/>
        <pt x="545" y="684" on="1"/>
        <pt x="519" y="684" on="0"/>
        <pt x="458" y="667" on="0"/>
        <pt x="394" y="628" on="0"/>
        <pt x="332" y="565" on="0"/>
        <pt x="304" y="520" on="1"/>
        <pt x="283" y="486" on="0"/>
        <pt x="250" y="400" on="0"/>
        <pt x="226" y="312" on="0"/>
        <pt x="213" y="228" on="0"/>
        <pt x="213" y="196" on="1"/>
        <pt x="213" y="182" on="0"/>
        <pt x="217" y="127" on="0"/>
        <pt x="231" y="96" on="1"/>
      </contour>
      <contour>
        <pt x="242" y="74" on="1"/>
        <pt x="267" y="31" on="0"/>
        <pt x="340" y="-1" on="0"/>
        <pt x="375" y="-1" on="1"/>
        <pt x="405" y="-1" on="0"/>
        <pt x="470" y="20" on="0"/>
        <pt x="533" y="61" on="0"/>
        <pt x="592" y="122" on="0"/>
        <pt x="616" y="162" on="1"/>
        <pt x="638" y="199" on="0"/>
        <pt x="672" y="287" on="0"/>
        <pt x="694" y="375" on="0"/>
        <pt x="706" y="456" on="0"/>
        <pt x="706" y="485" on="1"/>
        <pt x="706" y="500" on="0"/>
        <pt x="702" y="553" on="0"/>
        <pt x="689" y="587" on="1"/>
      </contour>
    </TTGlyph>
    <TTGlyph name="P" xMin="67" yMin="0" xMax="716" yMax="683">
      <contour>
        <pt x="241" y="61" on="1"/>
        <pt x="239" y="46" on="1"/>
        <pt x="239" y="43" on="0"/>
        <pt x="241" y="36" on="0"/>
        <pt x="251" y="32" on="0"/>
        <pt x="274" y="29" on="0"/>
        <pt x="295" y="29" on="1"/>
        <pt x="306" y="29" on="0"/>
        <pt x="318" y="27" on="0"/>
        <pt x="318" y="19" on="1"/>
        <pt x="318" y="5" on="0"/>
        <pt x="305" y="0" on="0"/>
        <pt x="299" y="0" on="1"/>
        <pt x="273" y="0" on="0"/>
        <pt x="216" y="2" on="0"/>
        <pt x="189" y="2" on="1"/>
        <pt x="162" y="2" on="0"/>
        <pt x="107" y="0" on="0"/>
        <pt x="81" y="0" on="1"/>
        <pt x="78" y="0" on="0"/>
        <pt x="67" y="2" on="0"/>
        <pt x="67" y="10" on="1"/>
        <pt x="67" y="24" on="0"/>
        <pt x="80" y="29" on="0"/>
        <pt x="94" y="29" on="1"/>
        <pt x="117" y="29" on="0"/>
        <pt x="144" y="33" on="0"/>
        <pt x="159" y="42" on="0"/>
        <pt x="167" y="59" on="0"/>
        <pt x="170" y="72" on="1"/>
        <pt x="307" y="623" on="1"/>
        <pt x="309" y="628" on="0"/>
        <pt x="309" y="633" on="0"/>
        <pt x="309" y="638" on="1"/>
        <pt x="309" y="650" on="0"/>
        <pt x="275" y="654" on="0"/>
        <pt x="256" y="654" on="1"/>
        <pt x="242" y="654" on="0"/>
        <pt x="230" y="656" on="0"/>
        <pt x="230" y="664" on="1"/>
        <pt x="230" y="678" on="0"/>
        <pt x="243" y="683" on="0"/>
        <pt x="257" y="683" on="1"/>
        <pt x="543" y="683" on="1"/>
        <pt x="583" y="683" on="0"/>
        <pt x="647" y="661" on="0"/>
        <pt x="692" y="622" on="0"/>
        <pt x="716" y="568" on="0"/>
        <pt x="716" y="537" on="1"/>
        <pt x="716" y="493" on="0"/>
        <pt x="671" y="413" on="0"/>
        <pt x="598" y="353" on="0"/>
        <pt x="506" y="318" on="0"/>
        <pt x="459" y="318" on="1"/>
        <pt x="306" y="318" on="1"/>
      </contour>
      <contour>
        <pt x="310" y="342" on="1"/>
        <pt x="436" y="342" on="1"/>
        <pt x="470" y="342" on="0"/>
        <pt x="521" y="357" on="0"/>
        <pt x="555" y="376" on="0"/>
        <pt x="574" y="392" on="0"/>
        <pt x="575" y="393" on="1"/>
        <pt x="594" y="414" on="0"/>
        <pt x="618" y="467" on="0"/>
        <pt x="631" y="516" on="0"/>
        <pt x="635" y="554" on="0"/>
        <pt x="635" y="561" on="1"/>
        <pt x="635" y="606" on="0"/>
        <pt x="576" y="654" on="0"/>
        <pt x="514" y="654" on="1"/>
        <pt x="427" y="654" on="1"/>
        <pt x="415" y="654" on="0"/>
        <pt x="399" y="653" on="0"/>
        <pt x="388" y="646" on="0"/>
        <pt x="381" y="630" on="0"/>
        <pt x="378" y="616" on="1"/>
      </contour>
    </TTGlyph>
    <TTGlyph name="Phi" xMin="155" yMin="0" xMax="714" yMax="683">
      <contour>
        <pt x="468" y="619" on="1"/>
        <pt x="470" y="623" on="0"/>
        <pt x="470" y="634" on="1"/>
        <pt x="470" y="649" on="0"/>
        <pt x="428" y="654" on="0"/>
        <pt x="400" y="654" on="1"/>
        <pt x="393" y="654" on="1"/>
        <pt x="381" y="654" on="0"/>
        <pt x="369" y="656" on="0"/>
        <pt x="369" y="664" on="1"/>
        <pt x="369" y="678" on="0"/>
        <pt x="382" y="683" on="0"/>
        <pt x="389" y="683" on="1"/>
        <pt x="421" y="683" on="0"/>
        <pt x="486" y="681" on="0"/>
        <pt x="518" y="681" on="1"/>
        <pt x="550" y="681" on="0"/>
        <pt x="614" y="683" on="0"/>
        <pt x="645" y="683" on="1"/>
        <pt x="650" y="683" on="0"/>
        <pt x="660" y="680" on="0"/>
        <pt x="660" y="672" on="1"/>
        <pt x="660" y="658" on="0"/>
        <pt x="646" y="654" on="0"/>
        <pt x="633" y="654" on="1"/>
        <pt x="626" y="654" on="1"/>
        <pt x="600" y="654" on="0"/>
        <pt x="569" y="651" on="0"/>
        <pt x="552" y="645" on="0"/>
        <pt x="545" y="637" on="0"/>
        <pt x="543" y="632" on="1"/>
        <pt x="542" y="629" on="0"/>
        <pt x="536" y="611" on="0"/>
        <pt x="529" y="587" on="0"/>
        <pt x="523" y="561" on="0"/>
        <pt x="520" y="551" on="1"/>
        <pt x="561" y="547" on="0"/>
        <pt x="632" y="520" on="0"/>
        <pt x="684" y="476" on="0"/>
        <pt x="714" y="416" on="0"/>
        <pt x="714" y="380" on="1"/>
        <pt x="714" y="335" on="0"/>
        <pt x="665" y="250" on="0"/>
        <pt x="583" y="182" on="0"/>
        <pt x="475" y="138" on="0"/>
        <pt x="416" y="133" on="1"/>
        <pt x="405" y="95" on="0"/>
        <pt x="396" y="56" on="0"/>
        <pt x="396" y="49" on="1"/>
        <pt x="396" y="34" on="0"/>
        <pt x="437" y="29" on="0"/>
        <pt x="466" y="29" on="1"/>
        <pt x="472" y="29" on="1"/>
        <pt x="484" y="29" on="0"/>
        <pt x="496" y="27" on="0"/>
        <pt x="496" y="19" on="1"/>
        <pt x="496" y="5" on="0"/>
        <pt x="483" y="0" on="0"/>
        <pt x="476" y="0" on="1"/>
        <pt x="444" y="0" on="0"/>
        <pt x="380" y="2" on="0"/>
        <pt x="348" y="2" on="1"/>
        <pt x="316" y="2" on="0"/>
        <pt x="252" y="0" on="0"/>
        <pt x="221" y="0" on="1"/>
        <pt x="217" y="0" on="0"/>
        <pt x="206" y="2" on="0"/>
        <pt x="206" y="10" on="1"/>
        <pt x="206" y="24" on="0"/>
        <pt x="219" y="29" on="0"/>
        <pt x="232" y="29" on="1"/>
        <pt x="239" y="29" on="1"/>
        <pt x="269" y="29" on="0"/>
        <pt x="303" y="33" on="0"/>
        <pt x="322" y="46" on="0"/>
        <pt x="330" y="69" on="0"/>
        <pt x="335" y="88" on="1"/>
        <pt x="337" y="97" on="0"/>
        <pt x="344" y="122" on="0"/>
        <pt x="346" y="133" on="1"/>
        <pt x="299" y="138" on="0"/>
        <pt x="228" y="170" on="0"/>
        <pt x="180" y="216" on="0"/>
        <pt x="155" y="272" on="0"/>
        <pt x="155" y="302" on="1"/>
        <pt x="155" y="333" on="0"/>
        <pt x="186" y="409" on="0"/>
        <pt x="255" y="480" on="0"/>
        <pt x="365" y="537" on="0"/>
        <pt x="443" y="549" on="1"/>
        <pt x="448" y="551" on="0"/>
        <pt x="451" y="555" on="0"/>
        <pt x="454" y="565" on="1"/>
      </contour>
      <contour>
        <pt x="445" y="529" on="1"/>
        <pt x="395" y="523" on="0"/>
        <pt x="324" y="482" on="0"/>
        <pt x="277" y="429" on="0"/>
        <pt x="251" y="369" on="0"/>
        <pt x="238" y="317" on="0"/>
        <pt x="235" y="281" on="0"/>
        <pt x="235" y="277" on="1"/>
        <pt x="235" y="221" on="0"/>
        <pt x="298" y="162" on="0"/>
        <pt x="351" y="154" on="1"/>
      </contour>
      <contour>
        <pt x="421" y="153" on="1"/>
        <pt x="468" y="159" on="0"/>
        <pt x="535" y="193" on="0"/>
        <pt x="583" y="240" on="0"/>
        <pt x="612" y="295" on="0"/>
        <pt x="628" y="348" on="0"/>
        <pt x="634" y="393" on="0"/>
        <pt x="634" y="406" on="1"/>
        <pt x="634" y="452" on="0"/>
        <pt x="581" y="521" on="0"/>
        <pt x="515" y="530" on="1"/>
      </contour>
    </TTGlyph>
    <TTGlyph name="Pi" xMin="66" yMin="0" xMax="830" yMax="681">
      <contour>
        <pt x="590" y="61" on="1"/>
        <pt x="588" y="57" on="0"/>
        <pt x="588" y="46" on="1"/>
        <pt x="588" y="43" on="0"/>
        <pt x="590" y="36" on="0"/>
        <pt x="600" y="32" on="0"/>
        <pt x="623" y="29" on="0"/>
        <pt x="644" y="29" on="1"/>
        <pt x="655" y="29" on="0"/>
        <pt x="667" y="27" on="0"/>
        <pt x="667" y="19" on="1"/>
        <pt x="667" y="5" on="0"/>
        <pt x="654" y="0" on="0"/>
        <pt x="648" y="0" on="1"/>
        <pt x="622" y="0" on="0"/>
        <pt x="565" y="2" on="0"/>
        <pt x="538" y="2" on="1"/>
        <pt x="511" y="2" on="0"/>
        <pt x="456" y="0" on="0"/>
        <pt x="430" y="0" on="1"/>
        <pt x="427" y="0" on="0"/>
        <pt x="416" y="2" on="0"/>
        <pt x="416" y="10" on="1"/>
        <pt x="416" y="24" on="0"/>
        <pt x="429" y="29" on="0"/>
        <pt x="443" y="29" on="1"/>
        <pt x="466" y="29" on="0"/>
        <pt x="493" y="33" on="0"/>
        <pt x="508" y="42" on="0"/>
        <pt x="516" y="59" on="0"/>
        <pt x="519" y="72" on="1"/>
        <pt x="664" y="652" on="1"/>
        <pt x="388" y="652" on="1"/>
        <pt x="240" y="61" on="1"/>
        <pt x="238" y="57" on="0"/>
        <pt x="238" y="46" on="1"/>
        <pt x="238" y="43" on="0"/>
        <pt x="240" y="36" on="0"/>
        <pt x="250" y="32" on="0"/>
        <pt x="273" y="29" on="0"/>
        <pt x="294" y="29" on="1"/>
        <pt x="305" y="29" on="0"/>
        <pt x="317" y="27" on="0"/>
        <pt x="317" y="19" on="1"/>
        <pt x="317" y="5" on="0"/>
        <pt x="304" y="0" on="0"/>
        <pt x="298" y="0" on="1"/>
        <pt x="272" y="0" on="0"/>
        <pt x="215" y="2" on="0"/>
        <pt x="188" y="2" on="1"/>
        <pt x="161" y="2" on="0"/>
        <pt x="106" y="0" on="0"/>
        <pt x="80" y="0" on="1"/>
        <pt x="77" y="0" on="0"/>
        <pt x="66" y="2" on="0"/>
        <pt x="66" y="10" on="1"/>
        <pt x="66" y="24" on="0"/>
        <pt x="79" y="29" on="0"/>
        <pt x="93" y="29" on="1"/>
        <pt x="116" y="29" on="0"/>
        <pt x="143" y="33" on="0"/>
        <pt x="158" y="42" on="0"/>
        <pt x="166" y="59" on="0"/>
        <pt x="169" y="72" on="1"/>
        <pt x="304" y="615" on="1"/>
        <pt x="307" y="626" on="0"/>
        <pt x="308" y="632" on="0"/>
        <pt x="308" y="634" on="1"/>
        <pt x="308" y="638" on="0"/>
        <pt x="306" y="644" on="0"/>
        <pt x="296" y="649" on="0"/>
        <pt x="274" y="652" on="0"/>
        <pt x="253" y="652" on="1"/>
        <pt x="241" y="652" on="0"/>
        <pt x="229" y="654" on="0"/>
        <pt x="229" y="662" on="1"/>
        <pt x="229" y="676" on="0"/>
        <pt x="242" y="681" on="0"/>
        <pt x="255" y="681" on="1"/>
        <pt x="806" y="681" on="1"/>
        <pt x="818" y="681" on="0"/>
        <pt x="830" y="679" on="0"/>
        <pt x="830" y="671" on="1"/>
        <pt x="830" y="657" on="0"/>
        <pt x="817" y="652" on="0"/>
        <pt x="803" y="652" on="1"/>
        <pt x="781" y="652" on="0"/>
        <pt x="754" y="648" on="0"/>
        <pt x="738" y="639" on="0"/>
        <pt x="730" y="622" on="0"/>
        <pt x="727" y="609" on="1"/>
      </contour>
    </TTGlyph>
    <TTGlyph name="Psi" xMin="212" yMin="0" xMax="810" yMax="683">
      <contour>
        <pt x="446" y="156" on="1"/>
        <pt x="480" y="165" on="0"/>
        <pt x="534" y="201" on="0"/>
        <pt x="575" y="249" on="0"/>
        <pt x="605" y="303" on="0"/>
        <pt x="625" y="354" on="0"/>
        <pt x="638" y="399" on="0"/>
        <pt x="642" y="413" on="1"/>
        <pt x="655" y="463" on="0"/>
        <pt x="684" y="520" on="0"/>
        <pt x="715" y="548" on="0"/>
        <pt x="745" y="555" on="0"/>
        <pt x="760" y="555" on="1"/>
        <pt x="786" y="555" on="1"/>
        <pt x="798" y="555" on="0"/>
        <pt x="810" y="553" on="0"/>
        <pt x="810" y="545" on="1"/>
        <pt x="810" y="539" on="0"/>
        <pt x="803" y="536" on="0"/>
        <pt x="798" y="535" on="1"/>
        <pt x="777" y="532" on="0"/>
        <pt x="749" y="506" on="0"/>
        <pt x="729" y="469" on="0"/>
        <pt x="715" y="424" on="0"/>
        <pt x="709" y="401" on="1"/>
        <pt x="697" y="359" on="0"/>
        <pt x="658" y="271" on="0"/>
        <pt x="595" y="195" on="0"/>
        <pt x="504" y="141" on="0"/>
        <pt x="440" y="133" on="1"/>
        <pt x="438" y="123" on="0"/>
        <pt x="435" y="112" on="0"/>
        <pt x="433" y="104" on="0"/>
        <pt x="432" y="97" on="0"/>
        <pt x="430" y="92" on="1"/>
        <pt x="428" y="81" on="0"/>
        <pt x="421" y="54" on="0"/>
        <pt x="421" y="49" on="1"/>
        <pt x="421" y="34" on="0"/>
        <pt x="462" y="29" on="0"/>
        <pt x="491" y="29" on="1"/>
        <pt x="497" y="29" on="1"/>
        <pt x="509" y="29" on="0"/>
        <pt x="521" y="27" on="0"/>
        <pt x="521" y="19" on="1"/>
        <pt x="521" y="5" on="0"/>
        <pt x="508" y="0" on="0"/>
        <pt x="501" y="0" on="1"/>
        <pt x="469" y="0" on="0"/>
        <pt x="405" y="2" on="0"/>
        <pt x="373" y="2" on="1"/>
        <pt x="341" y="2" on="0"/>
        <pt x="277" y="0" on="0"/>
        <pt x="246" y="0" on="1"/>
        <pt x="242" y="0" on="0"/>
        <pt x="231" y="2" on="0"/>
        <pt x="231" y="10" on="1"/>
        <pt x="231" y="24" on="0"/>
        <pt x="244" y="29" on="0"/>
        <pt x="257" y="29" on="1"/>
        <pt x="264" y="29" on="1"/>
        <pt x="290" y="29" on="0"/>
        <pt x="320" y="32" on="0"/>
        <pt x="337" y="38" on="0"/>
        <pt x="344" y="45" on="0"/>
        <pt x="346" y="48" on="1"/>
        <pt x="348" y="51" on="0"/>
        <pt x="355" y="70" on="0"/>
        <pt x="362" y="96" on="0"/>
        <pt x="368" y="123" on="0"/>
        <pt x="371" y="134" on="1"/>
        <pt x="332" y="140" on="0"/>
        <pt x="278" y="171" on="0"/>
        <pt x="244" y="218" on="0"/>
        <pt x="229" y="276" on="0"/>
        <pt x="229" y="308" on="1"/>
        <pt x="229" y="340" on="0"/>
        <pt x="240" y="398" on="0"/>
        <pt x="243" y="411" on="1"/>
        <pt x="246" y="421" on="0"/>
        <pt x="255" y="465" on="0"/>
        <pt x="255" y="485" on="1"/>
        <pt x="255" y="502" on="0"/>
        <pt x="248" y="522" on="0"/>
        <pt x="239" y="531" on="0"/>
        <pt x="228" y="534" on="0"/>
        <pt x="223" y="535" on="1"/>
        <pt x="220" y="536" on="0"/>
        <pt x="212" y="539" on="0"/>
        <pt x="212" y="545" on="1"/>
        <pt x="212" y="553" on="0"/>
        <pt x="224" y="555" on="0"/>
        <pt x="236" y="555" on="1"/>
        <pt x="262" y="555" on="1"/>
        <pt x="271" y="555" on="0"/>
        <pt x="292" y="553" on="0"/>
        <pt x="311" y="540" on="0"/>
        <pt x="324" y="511" on="0"/>
        <pt x="324" y="485" on="1"/>
        <pt x="324" y="477" on="0"/>
        <pt x="321" y="444" on="0"/>
        <pt x="312" y="409" on="1"/>
        <pt x="304" y="373" on="0"/>
        <pt x="295" y="317" on="0"/>
        <pt x="295" y="291" on="1"/>
        <pt x="295" y="268" on="0"/>
        <pt x="302" y="225" on="0"/>
        <pt x="321" y="188" on="0"/>
        <pt x="353" y="161" on="0"/>
        <pt x="377" y="155" on="1"/>
        <pt x="493" y="619" on="1"/>
        <pt x="495" y="623" on="0"/>
        <pt x="495" y="634" on="1"/>
        <pt x="495" y="649" on="0"/>
        <pt x="453" y="654" on="0"/>
        <pt x="425" y="654" on="1"/>
        <pt x="418" y="654" on="1"/>
        <pt x="406" y="654" on="0"/>
        <pt x="394" y="656" on="0"/>
        <pt x="394" y="664" on="1"/>
        <pt x="394" y="678" on="0"/>
        <pt x="407" y="683" on="0"/>
        <pt x="414" y="683" on="1"/>
        <pt x="446" y="683" on="0"/>
        <pt x="511" y="681" on="0"/>
        <pt x="543" y="681" on="1"/>
        <pt x="575" y="681" on="0"/>
        <pt x="639" y="683" on="0"/>
        <pt x="670" y="683" on="1"/>
        <pt x="675" y="683" on="0"/>
        <pt x="685" y="680" on="0"/>
        <pt x="685" y="672" on="1"/>
        <pt x="685" y="658" on="0"/>
        <pt x="671" y="654" on="0"/>
        <pt x="658" y="654" on="1"/>
        <pt x="651" y="654" on="1"/>
        <pt x="623" y="654" on="0"/>
        <pt x="589" y="650" on="0"/>
        <pt x="571" y="640" on="0"/>
        <pt x="562" y="622" on="0"/>
        <pt x="559" y="608" on="1"/>
      </contour>
    </TTGlyph>
    <TTGlyph name="Q" xMin="146" yMin="-194" xMax="773" yMax="704">
      <contour>
        <pt x="488" y="6" on="1"/>
        <pt x="488" y="-59" on="0"/>
        <pt x="514" y="-108" on="0"/>
        <pt x="548" y="-108" on="1"/>
        <pt x="583" y="-108" on="0"/>
        <pt x="645" y="-49" on="0"/>
        <pt x="658" y="-6" on="1"/>
        <pt x="662" y="9" on="0"/>
        <pt x="669" y="9" on="1"/>
        <pt x="679" y="9" on="0"/>
        <pt x="679" y="-1" on="1"/>
        <pt x="679" y="-3" on="0"/>
        <pt x="672" y="-29" on="0"/>
        <pt x="659" y="-65" on="0"/>
        <pt x="641" y="-108" on="0"/>
        <pt x="629" y="-126" on="1"/>
        <pt x="613" y="-150" on="0"/>
        <pt x="562" y="-194" on="0"/>
        <pt x="524" y="-194" on="1"/>
        <pt x="496" y="-194" on="0"/>
        <pt x="465" y="-173" on="0"/>
        <pt x="451" y="-144" on="0"/>
        <pt x="449" y="-114" on="0"/>
        <pt x="449" y="-105" on="1"/>
        <pt x="449" y="-95" on="0"/>
        <pt x="450" y="-80" on="0"/>
        <pt x="452" y="-59" on="0"/>
        <pt x="457" y="-30" on="0"/>
        <pt x="460" y="-6" on="1"/>
        <pt x="417" y="-21" on="0"/>
        <pt x="370" y="-21" on="1"/>
        <pt x="318" y="-21" on="0"/>
        <pt x="235" y="19" on="0"/>
        <pt x="177" y="88" on="0"/>
        <pt x="146" y="181" on="0"/>
        <pt x="146" y="235" on="1"/>
        <pt x="146" y="293" on="0"/>
        <pt x="178" y="407" on="0"/>
        <pt x="234" y="511" on="0"/>
        <pt x="311" y="601" on="0"/>
        <pt x="401" y="667" on="0"/>
        <pt x="500" y="704" on="0"/>
        <pt x="550" y="704" on="1"/>
        <pt x="602" y="704" on="0"/>
        <pt x="684" y="664" on="0"/>
        <pt x="742" y="595" on="0"/>
        <pt x="773" y="500" on="0"/>
        <pt x="773" y="446" on="1"/>
        <pt x="773" y="392" on="0"/>
        <pt x="739" y="265" on="0"/>
        <pt x="668" y="144" on="0"/>
        <pt x="561" y="39" on="0"/>
      </contour>
      <contour>
        <pt x="321" y="12" on="1"/>
        <pt x="318" y="19" on="0"/>
        <pt x="315" y="30" on="0"/>
        <pt x="315" y="43" on="1"/>
        <pt x="315" y="60" on="0"/>
        <pt x="330" y="97" on="0"/>
        <pt x="355" y="127" on="0"/>
        <pt x="390" y="147" on="0"/>
        <pt x="410" y="147" on="1"/>
        <pt x="434" y="147" on="0"/>
        <pt x="464" y="127" on="0"/>
        <pt x="480" y="96" on="0"/>
        <pt x="486" y="57" on="0"/>
        <pt x="487" y="39" on="1"/>
        <pt x="528" y="65" on="0"/>
        <pt x="590" y="137" on="0"/>
        <pt x="636" y="220" on="0"/>
        <pt x="667" y="307" on="0"/>
        <pt x="687" y="388" on="0"/>
        <pt x="695" y="457" on="0"/>
        <pt x="695" y="480" on="1"/>
        <pt x="695" y="525" on="0"/>
        <pt x="674" y="599" on="0"/>
        <pt x="635" y="653" on="0"/>
        <pt x="579" y="682" on="0"/>
        <pt x="545" y="682" on="1"/>
        <pt x="514" y="682" on="0"/>
        <pt x="454" y="659" on="0"/>
        <pt x="399" y="621" on="0"/>
        <pt x="351" y="572" on="0"/>
        <pt x="333" y="545" on="1"/>
        <pt x="299" y="495" on="0"/>
        <pt x="256" y="388" on="0"/>
        <pt x="232" y="294" on="0"/>
        <pt x="224" y="220" on="0"/>
        <pt x="224" y="202" on="1"/>
        <pt x="224" y="172" on="0"/>
        <pt x="234" y="114" on="0"/>
        <pt x="257" y="63" on="0"/>
        <pt x="294" y="23" on="0"/>
      </contour>
      <contour>
        <pt x="464" y="25" on="1"/>
        <pt x="465" y="33" on="0"/>
        <pt x="466" y="49" on="0"/>
        <pt x="466" y="57" on="1"/>
        <pt x="466" y="85" on="0"/>
        <pt x="446" y="127" on="0"/>
        <pt x="410" y="127" on="1"/>
        <pt x="394" y="127" on="0"/>
        <pt x="367" y="111" on="0"/>
        <pt x="347" y="87" on="0"/>
        <pt x="335" y="57" on="0"/>
        <pt x="335" y="43" on="1"/>
        <pt x="335" y="27" on="0"/>
        <pt x="345" y="10" on="0"/>
        <pt x="358" y="2" on="0"/>
        <pt x="372" y="1" on="0"/>
        <pt x="375" y="1" on="1"/>
        <pt x="405" y="1" on="0"/>
        <pt x="454" y="20" on="0"/>
      </contour>
    </TTGlyph>
    <TTGlyph name="R" xMin="67" yMin="-21" xMax="707" yMax="683">
      <contour>
        <pt x="496" y="340" on="1"/>
        <pt x="530" y="326" on="0"/>
        <pt x="582" y="271" on="0"/>
        <pt x="582" y="223" on="1"/>
        <pt x="582" y="218" on="0"/>
        <pt x="580" y="200" on="0"/>
        <pt x="579" y="184" on="0"/>
        <pt x="577" y="171" on="0"/>
        <pt x="577" y="170" on="1"/>
        <pt x="576" y="158" on="0"/>
        <pt x="572" y="128" on="0"/>
        <pt x="568" y="97" on="0"/>
        <pt x="566" y="67" on="0"/>
        <pt x="566" y="56" on="1"/>
        <pt x="566" y="35" on="0"/>
        <pt x="576" y="-1" on="0"/>
        <pt x="600" y="-1" on="1"/>
        <pt x="625" y="-1" on="0"/>
        <pt x="665" y="47" on="0"/>
        <pt x="677" y="86" on="1"/>
        <pt x="680" y="97" on="0"/>
        <pt x="685" y="102" on="0"/>
        <pt x="693" y="102" on="1"/>
        <pt x="696" y="102" on="0"/>
        <pt x="707" y="100" on="0"/>
        <pt x="707" y="92" on="1"/>
        <pt x="707" y="89" on="0"/>
        <pt x="695" y="52" on="0"/>
        <pt x="669" y="12" on="0"/>
        <pt x="627" y="-21" on="0"/>
        <pt x="597" y="-21" on="1"/>
        <pt x="577" y="-21" on="0"/>
        <pt x="535" y="-11" on="0"/>
        <pt x="501" y="13" on="0"/>
        <pt x="480" y="53" on="0"/>
        <pt x="480" y="82" on="1"/>
        <pt x="480" y="97" on="0"/>
        <pt x="491" y="146" on="0"/>
        <pt x="496" y="167" on="1"/>
        <pt x="501" y="186" on="0"/>
        <pt x="511" y="230" on="0"/>
        <pt x="511" y="242" on="1"/>
        <pt x="511" y="256" on="0"/>
        <pt x="503" y="287" on="0"/>
        <pt x="482" y="314" on="0"/>
        <pt x="445" y="332" on="0"/>
        <pt x="415" y="332" on="1"/>
        <pt x="307" y="332" on="1"/>
        <pt x="239" y="61" on="1"/>
        <pt x="237" y="46" on="1"/>
        <pt x="237" y="43" on="0"/>
        <pt x="239" y="36" on="0"/>
        <pt x="249" y="32" on="0"/>
        <pt x="272" y="29" on="0"/>
        <pt x="293" y="29" on="1"/>
        <pt x="304" y="29" on="0"/>
        <pt x="316" y="27" on="0"/>
        <pt x="316" y="19" on="1"/>
        <pt x="316" y="5" on="0"/>
        <pt x="303" y="0" on="0"/>
        <pt x="297" y="0" on="1"/>
        <pt x="271" y="0" on="0"/>
        <pt x="215" y="2" on="0"/>
        <pt x="188" y="2" on="1"/>
        <pt x="162" y="2" on="0"/>
        <pt x="107" y="0" on="0"/>
        <pt x="81" y="0" on="1"/>
        <pt x="78" y="0" on="0"/>
        <pt x="67" y="2" on="0"/>
        <pt x="67" y="10" on="1"/>
        <pt x="67" y="24" on="0"/>
        <pt x="80" y="29" on="0"/>
        <pt x="94" y="29" on="1"/>
        <pt x="117" y="29" on="0"/>
        <pt x="144" y="33" on="0"/>
        <pt x="159" y="42" on="0"/>
        <pt x="167" y="59" on="0"/>
        <pt x="170" y="72" on="1"/>
        <pt x="307" y="623" on="1"/>
        <pt x="309" y="628" on="0"/>
        <pt x="309" y="633" on="0"/>
        <pt x="309" y="638" on="1"/>
        <pt x="309" y="650" on="0"/>
        <pt x="275" y="654" on="0"/>
        <pt x="256" y="654" on="1"/>
        <pt x="242" y="654" on="0"/>
        <pt x="230" y="656" on="0"/>
        <pt x="230" y="664" on="1"/>
        <pt x="230" y="678" on="0"/>
        <pt x="243" y="683" on="0"/>
        <pt x="257" y="683" on="1"/>
        <pt x="508" y="683" on="1"/>
        <pt x="554" y="683" on="0"/>
        <pt x="626" y="660" on="0"/>
        <pt x="677" y="619" on="0"/>
        <pt x="704" y="566" on="0"/>
        <pt x="704" y="536" on="1"/>
        <pt x="704" y="505" on="0"/>
        <pt x="674" y="444" on="0"/>
        <pt x="619" y="391" on="0"/>
        <pt x="543" y="351" on="0"/>
      </contour>
      <contour>
        <pt x="414" y="352" on="1"/>
        <pt x="465" y="352" on="0"/>
        <pt x="535" y="380" on="0"/>
        <pt x="581" y="423" on="0"/>
        <pt x="607" y="474" on="0"/>
        <pt x="619" y="519" on="0"/>
        <pt x="622" y="553" on="0"/>
        <pt x="622" y="558" on="1"/>
        <pt x="622" y="594" on="0"/>
        <pt x="588" y="633" on="0"/>
        <pt x="538" y="651" on="0"/>
        <pt x="481" y="654" on="0"/>
        <pt x="458" y="654" on="1"/>
        <pt x="444" y="654" on="0"/>
        <pt x="407" y="654" on="0"/>
        <pt x="402" y="652" on="1"/>
        <pt x="395" y="651" on="0"/>
        <pt x="384" y="640" on="0"/>
        <pt x="378" y="616" on="1"/>
        <pt x="312" y="352" on="1"/>
      </contour>
    </TTGlyph>
    <TTGlyph name="S" xMin="72" yMin="-21" xMax="623" yMax="704">
      <contour>
        <pt x="568" y="473" on="1"/>
        <pt x="565" y="461" on="0"/>
        <pt x="559" y="456" on="0"/>
        <pt x="551" y="456" on="1"/>
        <pt x="546" y="456" on="0"/>
        <pt x="537" y="458" on="0"/>
        <pt x="537" y="466" on="1"/>
        <pt x="537" y="467" on="0"/>
        <pt x="537" y="470" on="0"/>
        <pt x="539" y="475" on="1"/>
        <pt x="542" y="497" on="0"/>
        <pt x="543" y="524" on="0"/>
        <pt x="543" y="534" on="1"/>
        <pt x="543" y="546" on="0"/>
        <pt x="539" y="593" on="0"/>
        <pt x="517" y="641" on="0"/>
        <pt x="468" y="677" on="0"/>
        <pt x="423" y="677" on="1"/>
        <pt x="392" y="677" on="0"/>
        <pt x="333" y="647" on="0"/>
        <pt x="287" y="598" on="0"/>
        <pt x="260" y="536" on="0"/>
        <pt x="260" y="504" on="1"/>
        <pt x="260" y="476" on="0"/>
        <pt x="276" y="441" on="0"/>
        <pt x="299" y="420" on="0"/>
        <pt x="327" y="409" on="0"/>
        <pt x="339" y="406" on="1"/>
        <pt x="346" y="404" on="0"/>
        <pt x="376" y="395" on="0"/>
        <pt x="407" y="385" on="0"/>
        <pt x="433" y="378" on="0"/>
        <pt x="436" y="377" on="1"/>
        <pt x="474" y="365" on="0"/>
        <pt x="526" y="297" on="0"/>
        <pt x="526" y="237" on="1"/>
        <pt x="526" y="188" on="0"/>
        <pt x="487" y="95" on="0"/>
        <pt x="423" y="23" on="0"/>
        <pt x="338" y="-21" on="0"/>
        <pt x="293" y="-21" on="1"/>
        <pt x="233" y="-21" on="0"/>
        <pt x="162" y="21" on="0"/>
        <pt x="142" y="52" on="1"/>
        <pt x="97" y="-8" on="1"/>
        <pt x="89" y="-17" on="0"/>
        <pt x="85" y="-21" on="0"/>
        <pt x="82" y="-21" on="1"/>
        <pt x="80" y="-21" on="0"/>
        <pt x="72" y="-19" on="0"/>
        <pt x="72" y="-12" on="1"/>
        <pt x="72" y="-10" on="0"/>
        <pt x="74" y="0" on="0"/>
        <pt x="75" y="2" on="1"/>
        <pt x="127" y="210" on="1"/>
        <pt x="130" y="222" on="0"/>
        <pt x="136" y="227" on="0"/>
        <pt x="144" y="227" on="1"/>
        <pt x="148" y="227" on="0"/>
        <pt x="157" y="225" on="0"/>
        <pt x="157" y="218" on="1"/>
        <pt x="156" y="210" on="1"/>
        <pt x="151" y="192" on="0"/>
        <pt x="148" y="157" on="0"/>
        <pt x="148" y="149" on="1"/>
        <pt x="148" y="111" on="0"/>
        <pt x="173" y="57" on="0"/>
        <pt x="214" y="23" on="0"/>
        <pt x="267" y="8" on="0"/>
        <pt x="296" y="8" on="1"/>
        <pt x="330" y="8" on="0"/>
        <pt x="391" y="43" on="0"/>
        <pt x="438" y="99" on="0"/>
        <pt x="465" y="168" on="0"/>
        <pt x="465" y="202" on="1"/>
        <pt x="465" y="236" on="0"/>
        <pt x="437" y="289" on="0"/>
        <pt x="405" y="300" on="1"/>
        <pt x="402" y="301" on="0"/>
        <pt x="386" y="305" on="0"/>
        <pt x="366" y="311" on="0"/>
        <pt x="349" y="317" on="0"/>
        <pt x="344" y="318" on="1"/>
        <pt x="318" y="326" on="0"/>
        <pt x="284" y="336" on="0"/>
        <pt x="260" y="346" on="0"/>
        <pt x="244" y="357" on="0"/>
        <pt x="236" y="366" on="1"/>
        <pt x="209" y="395" on="0"/>
        <pt x="198" y="451" on="0"/>
        <pt x="198" y="468" on="1"/>
        <pt x="198" y="513" on="0"/>
        <pt x="236" y="598" on="0"/>
        <pt x="299" y="664" on="0"/>
        <pt x="381" y="704" on="0"/>
        <pt x="425" y="704" on="1"/>
        <pt x="432" y="704" on="0"/>
        <pt x="463" y="702" on="0"/>
        <pt x="501" y="688" on="0"/>
        <pt x="540" y="660" on="0"/>
        <pt x="554" y="633" on="1"/>
        <pt x="599" y="693" on="1"/>
        <pt x="605" y="701" on="0"/>
        <pt x="611" y="704" on="0"/>
        <pt x="613" y="704" on="1"/>
        <pt x="615" y="704" on="0"/>
        <pt x="623" y="702" on="0"/>
        <pt x="623" y="695" on="1"/>
        <pt x="623" y="693" on="0"/>
        <pt x="621" y="683" on="0"/>
        <pt x="620" y="681" on="1"/>
      </contour>
    </TTGlyph>
    <TTGlyph name="Sigma" xMin="78" yMin="0" xMax="769" yMax="683">
      <contour>
        <pt x="140" y="38" on="1"/>
        <pt x="384" y="38" on="1"/>
        <pt x="442" y="38" on="0"/>
        <pt x="523" y="53" on="0"/>
        <pt x="583" y="91" on="0"/>
        <pt x="626" y="157" on="0"/>
        <pt x="646" y="209" on="1"/>
        <pt x="653" y="226" on="0"/>
        <pt x="658" y="232" on="0"/>
        <pt x="666" y="232" on="1"/>
        <pt x="668" y="232" on="0"/>
        <pt x="679" y="230" on="0"/>
        <pt x="679" y="222" on="1"/>
        <pt x="679" y="221" on="0"/>
        <pt x="675" y="211" on="0"/>
        <pt x="675" y="210" on="1"/>
        <pt x="606" y="17" on="1"/>
        <pt x="601" y="4" on="0"/>
        <pt x="594" y="0" on="0"/>
        <pt x="578" y="0" on="1"/>
        <pt x="102" y="0" on="1"/>
        <pt x="90" y="0" on="0"/>
        <pt x="78" y="2" on="0"/>
        <pt x="78" y="10" on="1"/>
        <pt x="78" y="12" on="0"/>
        <pt x="81" y="17" on="0"/>
        <pt x="89" y="25" on="1"/>
        <pt x="373" y="305" on="1"/>
        <pt x="241" y="664" on="1"/>
        <pt x="241" y="678" on="0"/>
        <pt x="255" y="683" on="0"/>
        <pt x="268" y="683" on="1"/>
        <pt x="744" y="683" on="1"/>
        <pt x="760" y="683" on="0"/>
        <pt x="769" y="677" on="0"/>
        <pt x="767" y="658" on="1"/>
        <pt x="743" y="482" on="1"/>
        <pt x="741" y="468" on="0"/>
        <pt x="737" y="460" on="0"/>
        <pt x="727" y="460" on="1"/>
        <pt x="725" y="460" on="0"/>
        <pt x="714" y="462" on="0"/>
        <pt x="714" y="470" on="1"/>
        <pt x="714" y="474" on="0"/>
        <pt x="715" y="479" on="1"/>
        <pt x="718" y="504" on="0"/>
        <pt x="719" y="535" on="0"/>
        <pt x="719" y="538" on="1"/>
        <pt x="719" y="570" on="0"/>
        <pt x="705" y="614" on="0"/>
        <pt x="667" y="642" on="0"/>
        <pt x="600" y="654" on="0"/>
        <pt x="548" y="654" on="1"/>
        <pt x="329" y="654" on="1"/>
        <pt x="440" y="355" on="1"/>
        <pt x="443" y="342" on="1"/>
        <pt x="443" y="339" on="0"/>
        <pt x="440" y="334" on="0"/>
        <pt x="432" y="326" on="1"/>
      </contour>
    </TTGlyph>
    <TTGlyph name="T" xMin="174" yMin="0" xMax="792" yMax="678">
      <contour>
        <pt x="404" y="68" on="1"/>
        <pt x="402" y="60" on="0"/>
        <pt x="402" y="55" on="0"/>
        <pt x="402" y="51" on="1"/>
        <pt x="402" y="39" on="0"/>
        <pt x="417" y="34" on="0"/>
        <pt x="431" y="32" on="1"/>
        <pt x="455" y="29" on="0"/>
        <pt x="480" y="29" on="1"/>
        <pt x="492" y="29" on="1"/>
        <pt x="505" y="29" on="0"/>
        <pt x="516" y="26" on="0"/>
        <pt x="516" y="18" on="1"/>
        <pt x="516" y="4" on="0"/>
        <pt x="503" y="0" on="0"/>
        <pt x="495" y="0" on="1"/>
        <pt x="460" y="0" on="0"/>
        <pt x="386" y="2" on="0"/>
        <pt x="350" y="2" on="1"/>
        <pt x="315" y="2" on="0"/>
        <pt x="243" y="0" on="0"/>
        <pt x="208" y="0" on="1"/>
        <pt x="202" y="0" on="0"/>
        <pt x="191" y="2" on="0"/>
        <pt x="191" y="10" on="1"/>
        <pt x="191" y="24" on="0"/>
        <pt x="204" y="29" on="0"/>
        <pt x="218" y="29" on="1"/>
        <pt x="230" y="29" on="1"/>
        <pt x="262" y="29" on="0"/>
        <pt x="299" y="33" on="0"/>
        <pt x="320" y="44" on="0"/>
        <pt x="329" y="62" on="0"/>
        <pt x="332" y="76" on="1"/>
        <pt x="467" y="617" on="1"/>
        <pt x="468" y="619" on="0"/>
        <pt x="471" y="633" on="0"/>
        <pt x="471" y="638" on="1"/>
        <pt x="471" y="643" on="0"/>
        <pt x="465" y="649" on="0"/>
        <pt x="448" y="649" on="1"/>
        <pt x="414" y="649" on="1"/>
        <pt x="363" y="649" on="0"/>
        <pt x="299" y="637" on="0"/>
        <pt x="256" y="600" on="0"/>
        <pt x="225" y="532" on="0"/>
        <pt x="206" y="476" on="1"/>
        <pt x="200" y="461" on="0"/>
        <pt x="195" y="455" on="0"/>
        <pt x="187" y="455" on="1"/>
        <pt x="185" y="455" on="0"/>
        <pt x="174" y="457" on="0"/>
        <pt x="174" y="465" on="1"/>
        <pt x="174" y="467" on="0"/>
        <pt x="176" y="476" on="0"/>
        <pt x="177" y="478" on="1"/>
        <pt x="238" y="662" on="1"/>
        <pt x="242" y="674" on="0"/>
        <pt x="250" y="678" on="0"/>
        <pt x="266" y="678" on="1"/>
        <pt x="768" y="678" on="1"/>
        <pt x="781" y="678" on="0"/>
        <pt x="792" y="675" on="0"/>
        <pt x="792" y="667" on="1"/>
        <pt x="792" y="666" on="0"/>
        <pt x="792" y="663" on="0"/>
        <pt x="790" y="655" on="1"/>
        <pt x="760" y="474" on="1"/>
        <pt x="758" y="462" on="0"/>
        <pt x="753" y="455" on="0"/>
        <pt x="744" y="455" on="1"/>
        <pt x="741" y="455" on="0"/>
        <pt x="730" y="458" on="0"/>
        <pt x="730" y="466" on="1"/>
        <pt x="730" y="468" on="0"/>
        <pt x="732" y="475" on="0"/>
        <pt x="732" y="477" on="1"/>
        <pt x="733" y="483" on="0"/>
        <pt x="737" y="506" on="0"/>
        <pt x="740" y="534" on="0"/>
        <pt x="743" y="563" on="0"/>
        <pt x="743" y="574" on="1"/>
        <pt x="743" y="600" on="0"/>
        <pt x="727" y="630" on="0"/>
        <pt x="696" y="645" on="0"/>
        <pt x="648" y="649" on="0"/>
        <pt x="615" y="649" on="1"/>
        <pt x="601" y="649" on="0"/>
        <pt x="566" y="649" on="0"/>
        <pt x="561" y="647" on="1"/>
        <pt x="555" y="645" on="0"/>
        <pt x="545" y="633" on="0"/>
        <pt x="540" y="612" on="1"/>
      </contour>
    </TTGlyph>
    <TTGlyph name="Theta" xMin="146" yMin="-21" xMax="773" yMax="704">
      <contour>
        <pt x="773" y="446" on="1"/>
        <pt x="773" y="358" on="0"/>
        <pt x="703" y="190" on="0"/>
        <pt x="589" y="59" on="0"/>
        <pt x="444" y="-21" on="0"/>
        <pt x="370" y="-21" on="1"/>
        <pt x="318" y="-21" on="0"/>
        <pt x="235" y="19" on="0"/>
        <pt x="177" y="88" on="0"/>
        <pt x="146" y="181" on="0"/>
        <pt x="146" y="235" on="1"/>
        <pt x="146" y="293" on="0"/>
        <pt x="178" y="407" on="0"/>
        <pt x="234" y="511" on="0"/>
        <pt x="311" y="601" on="0"/>
        <pt x="401" y="667" on="0"/>
        <pt x="500" y="704" on="0"/>
        <pt x="550" y="704" on="1"/>
        <pt x="602" y="704" on="0"/>
        <pt x="684" y="664" on="0"/>
        <pt x="742" y="595" on="0"/>
        <pt x="773" y="500" on="0"/>
      </contour>
      <contour>
        <pt x="375" y="0" on="1"/>
        <pt x="419" y="0" on="0"/>
        <pt x="500" y="40" on="0"/>
        <pt x="572" y="110" on="0"/>
        <pt x="631" y="204" on="0"/>
        <pt x="674" y="310" on="0"/>
        <pt x="697" y="423" on="0"/>
        <pt x="697" y="478" on="1"/>
        <pt x="697" y="534" on="0"/>
        <pt x="671" y="612" on="0"/>
        <pt x="628" y="662" on="0"/>
        <pt x="573" y="684" on="0"/>
        <pt x="545" y="684" on="1"/>
        <pt x="501" y="684" on="0"/>
        <pt x="419" y="643" on="0"/>
        <pt x="347" y="572" on="0"/>
        <pt x="288" y="477" on="0"/>
        <pt x="245" y="370" on="0"/>
        <pt x="222" y="257" on="0"/>
        <pt x="222" y="203" on="1"/>
        <pt x="222" y="151" on="0"/>
        <pt x="247" y="75" on="0"/>
        <pt x="289" y="25" on="0"/>
        <pt x="344" y="0" on="0"/>
      </contour>
      <contour>
        <pt x="616" y="294" on="1"/>
        <pt x="614" y="283" on="0"/>
        <pt x="608" y="276" on="0"/>
        <pt x="599" y="276" on="1"/>
        <pt x="589" y="276" on="0"/>
        <pt x="586" y="285" on="0"/>
        <pt x="586" y="286" on="1"/>
        <pt x="586" y="288" on="0"/>
        <pt x="590" y="308" on="0"/>
        <pt x="591" y="310" on="1"/>
        <pt x="313" y="310" on="1"/>
        <pt x="313" y="308" on="0"/>
        <pt x="309" y="294" on="0"/>
        <pt x="307" y="289" on="1"/>
        <pt x="305" y="283" on="0"/>
        <pt x="301" y="276" on="0"/>
        <pt x="292" y="276" on="1"/>
        <pt x="282" y="276" on="0"/>
        <pt x="279" y="285" on="0"/>
        <pt x="279" y="286" on="1"/>
        <pt x="279" y="287" on="0"/>
        <pt x="282" y="298" on="0"/>
        <pt x="282" y="300" on="1"/>
        <pt x="304" y="390" on="1"/>
        <pt x="306" y="401" on="0"/>
        <pt x="312" y="408" on="0"/>
        <pt x="321" y="408" on="1"/>
        <pt x="331" y="408" on="0"/>
        <pt x="334" y="399" on="0"/>
        <pt x="334" y="398" on="1"/>
        <pt x="334" y="396" on="0"/>
        <pt x="330" y="376" on="0"/>
        <pt x="329" y="374" on="1"/>
        <pt x="607" y="374" on="1"/>
        <pt x="607" y="376" on="0"/>
        <pt x="611" y="390" on="0"/>
        <pt x="613" y="395" on="1"/>
        <pt x="615" y="401" on="0"/>
        <pt x="619" y="408" on="0"/>
        <pt x="628" y="408" on="1"/>
        <pt x="638" y="408" on="0"/>
        <pt x="641" y="399" on="0"/>
        <pt x="641" y="398" on="1"/>
        <pt x="641" y="397" on="0"/>
        <pt x="638" y="386" on="0"/>
        <pt x="638" y="384" on="1"/>
      </contour>
    </TTGlyph>
    <TTGlyph name="U" xMin="200" yMin="-21" xMax="831" yMax="683">
      <contour>
        <pt x="631" y="221" on="1"/>
        <pt x="620" y="177" on="0"/>
        <pt x="570" y="91" on="0"/>
        <pt x="501" y="22" on="0"/>
        <pt x="416" y="-21" on="0"/>
        <pt x="371" y="-21" on="1"/>
        <pt x="337" y="-21" on="0"/>
        <pt x="275" y="3" on="0"/>
        <pt x="228" y="50" on="0"/>
        <pt x="200" y="119" on="0"/>
        <pt x="200" y="163" on="1"/>
        <pt x="200" y="174" on="0"/>
        <pt x="202" y="205" on="0"/>
        <pt x="208" y="229" on="1"/>
        <pt x="306" y="623" on="1"/>
        <pt x="308" y="628" on="0"/>
        <pt x="308" y="633" on="0"/>
        <pt x="308" y="638" on="1"/>
        <pt x="308" y="650" on="0"/>
        <pt x="274" y="654" on="0"/>
        <pt x="255" y="654" on="1"/>
        <pt x="241" y="654" on="0"/>
        <pt x="229" y="656" on="0"/>
        <pt x="229" y="664" on="1"/>
        <pt x="229" y="678" on="0"/>
        <pt x="242" y="683" on="0"/>
        <pt x="248" y="683" on="1"/>
        <pt x="275" y="683" on="0"/>
        <pt x="331" y="681" on="0"/>
        <pt x="359" y="681" on="1"/>
        <pt x="386" y="681" on="0"/>
        <pt x="441" y="683" on="0"/>
        <pt x="467" y="683" on="1"/>
        <pt x="471" y="683" on="0"/>
        <pt x="481" y="680" on="0"/>
        <pt x="481" y="672" on="1"/>
        <pt x="481" y="658" on="0"/>
        <pt x="468" y="654" on="0"/>
        <pt x="455" y="654" on="1"/>
        <pt x="432" y="654" on="0"/>
        <pt x="404" y="650" on="0"/>
        <pt x="389" y="641" on="0"/>
        <pt x="381" y="625" on="0"/>
        <pt x="378" y="612" on="1"/>
        <pt x="278" y="211" on="1"/>
        <pt x="273" y="194" on="0"/>
        <pt x="268" y="151" on="0"/>
        <pt x="268" y="134" on="1"/>
        <pt x="268" y="102" on="0"/>
        <pt x="285" y="54" on="0"/>
        <pt x="315" y="23" on="0"/>
        <pt x="354" y="8" on="0"/>
        <pt x="375" y="8" on="1"/>
        <pt x="413" y="8" on="0"/>
        <pt x="486" y="44" on="0"/>
        <pt x="548" y="105" on="0"/>
        <pt x="594" y="184" on="0"/>
        <pt x="605" y="227" on="1"/>
        <pt x="694" y="585" on="1"/>
        <pt x="696" y="590" on="0"/>
        <pt x="698" y="605" on="0"/>
        <pt x="698" y="612" on="1"/>
        <pt x="698" y="635" on="0"/>
        <pt x="669" y="653" on="0"/>
        <pt x="641" y="654" on="1"/>
        <pt x="636" y="654" on="0"/>
        <pt x="626" y="657" on="0"/>
        <pt x="626" y="664" on="1"/>
        <pt x="626" y="678" on="0"/>
        <pt x="639" y="683" on="0"/>
        <pt x="644" y="683" on="1"/>
        <pt x="645" y="683" on="0"/>
        <pt x="687" y="681" on="0"/>
        <pt x="732" y="681" on="1"/>
        <pt x="753" y="681" on="0"/>
        <pt x="798" y="683" on="0"/>
        <pt x="818" y="683" on="1"/>
        <pt x="821" y="683" on="0"/>
        <pt x="831" y="680" on="0"/>
        <pt x="831" y="672" on="1"/>
        <pt x="831" y="659" on="0"/>
        <pt x="819" y="654" on="0"/>
        <pt x="816" y="654" on="1"/>
        <pt x="802" y="653" on="0"/>
        <pt x="773" y="649" on="0"/>
        <pt x="748" y="634" on="0"/>
        <pt x="727" y="607" on="0"/>
        <pt x="721" y="583" on="1"/>
      </contour>
    </TTGlyph>
    <TTGlyph name="Upsilon" xMin="212" yMin="0" xMax="817" yMax="704">
      <contour>
        <pt x="430" y="69" on="1"/>
        <pt x="427" y="58" on="0"/>
        <pt x="426" y="51" on="0"/>
        <pt x="426" y="49" on="1"/>
        <pt x="426" y="34" on="0"/>
        <pt x="467" y="29" on="0"/>
        <pt x="496" y="29" on="1"/>
        <pt x="502" y="29" on="1"/>
        <pt x="514" y="29" on="0"/>
        <pt x="526" y="27" on="0"/>
        <pt x="526" y="19" on="1"/>
        <pt x="526" y="5" on="0"/>
        <pt x="513" y="0" on="0"/>
        <pt x="506" y="0" on="1"/>
        <pt x="474" y="0" on="0"/>
        <pt x="407" y="2" on="0"/>
        <pt x="375" y="2" on="1"/>
        <pt x="343" y="2" on="0"/>
        <pt x="278" y="0" on="0"/>
        <pt x="246" y="0" on="1"/>
        <pt x="242" y="0" on="0"/>
        <pt x="231" y="2" on="0"/>
        <pt x="231" y="10" on="1"/>
        <pt x="231" y="24" on="0"/>
        <pt x="244" y="29" on="0"/>
        <pt x="257" y="29" on="1"/>
        <pt x="264" y="29" on="1"/>
        <pt x="292" y="29" on="0"/>
        <pt x="325" y="33" on="0"/>
        <pt x="344" y="43" on="0"/>
        <pt x="353" y="59" on="0"/>
        <pt x="356" y="72" on="1"/>
        <pt x="431" y="372" on="1"/>
        <pt x="439" y="402" on="0"/>
        <pt x="449" y="478" on="0"/>
        <pt x="449" y="509" on="1"/>
        <pt x="449" y="534" on="0"/>
        <pt x="441" y="581" on="0"/>
        <pt x="419" y="617" on="0"/>
        <pt x="382" y="639" on="0"/>
        <pt x="353" y="639" on="1"/>
        <pt x="313" y="639" on="0"/>
        <pt x="252" y="588" on="0"/>
        <pt x="241" y="553" on="1"/>
        <pt x="238" y="545" on="0"/>
        <pt x="232" y="537" on="0"/>
        <pt x="223" y="537" on="1"/>
        <pt x="221" y="537" on="0"/>
        <pt x="212" y="539" on="0"/>
        <pt x="212" y="545" on="1"/>
        <pt x="212" y="552" on="0"/>
        <pt x="231" y="603" on="0"/>
        <pt x="270" y="659" on="0"/>
        <pt x="330" y="704" on="0"/>
        <pt x="370" y="704" on="1"/>
        <pt x="417" y="704" on="0"/>
        <pt x="468" y="660" on="0"/>
        <pt x="491" y="601" on="0"/>
        <pt x="495" y="544" on="0"/>
        <pt x="495" y="530" on="1"/>
        <pt x="495" y="526" on="0"/>
        <pt x="494" y="490" on="0"/>
        <pt x="491" y="469" on="1"/>
        <pt x="492" y="469" on="1"/>
        <pt x="500" y="489" on="0"/>
        <pt x="537" y="568" on="0"/>
        <pt x="595" y="646" on="0"/>
        <pt x="677" y="704" on="0"/>
        <pt x="731" y="704" on="1"/>
        <pt x="776" y="704" on="0"/>
        <pt x="817" y="644" on="0"/>
        <pt x="817" y="599" on="1"/>
        <pt x="817" y="589" on="0"/>
        <pt x="816" y="567" on="0"/>
        <pt x="812" y="549" on="0"/>
        <pt x="803" y="537" on="0"/>
        <pt x="795" y="537" on="1"/>
        <pt x="793" y="537" on="0"/>
        <pt x="784" y="539" on="0"/>
        <pt x="784" y="545" on="1"/>
        <pt x="784" y="549" on="0"/>
        <pt x="787" y="564" on="0"/>
        <pt x="787" y="569" on="1"/>
        <pt x="787" y="581" on="0"/>
        <pt x="779" y="606" on="0"/>
        <pt x="762" y="626" on="0"/>
        <pt x="735" y="639" on="0"/>
        <pt x="716" y="639" on="1"/>
        <pt x="680" y="639" on="0"/>
        <pt x="621" y="603" on="0"/>
        <pt x="575" y="548" on="0"/>
        <pt x="541" y="482" on="0"/>
        <pt x="518" y="422" on="0"/>
        <pt x="506" y="377" on="0"/>
        <pt x="504" y="369" on="1"/>
      </contour>
    </TTGlyph>
    <TTGlyph name="V" xMin="208" yMin="-21" xMax="853" yMax="683">
      <contour>
        <pt x="381" y="-5" on="1"/>
        <pt x="375" y="-15" on="0"/>
        <pt x="368" y="-21" on="0"/>
        <pt x="358" y="-21" on="1"/>
        <pt x="348" y="-21" on="0"/>
        <pt x="343" y="-13" on="0"/>
        <pt x="341" y="1" on="1"/>
        <pt x="281" y="618" on="1"/>
        <pt x="280" y="629" on="0"/>
        <pt x="276" y="643" on="0"/>
        <pt x="266" y="651" on="0"/>
        <pt x="245" y="654" on="0"/>
        <pt x="227" y="654" on="1"/>
        <pt x="219" y="654" on="0"/>
        <pt x="208" y="656" on="0"/>
        <pt x="208" y="664" on="1"/>
        <pt x="208" y="678" on="0"/>
        <pt x="220" y="683" on="0"/>
        <pt x="225" y="683" on="1"/>
        <pt x="248" y="683" on="0"/>
        <pt x="298" y="681" on="0"/>
        <pt x="322" y="681" on="1"/>
        <pt x="348" y="681" on="0"/>
        <pt x="399" y="683" on="0"/>
        <pt x="424" y="683" on="1"/>
        <pt x="428" y="683" on="0"/>
        <pt x="438" y="680" on="0"/>
        <pt x="438" y="672" on="1"/>
        <pt x="438" y="658" on="0"/>
        <pt x="425" y="654" on="0"/>
        <pt x="414" y="654" on="1"/>
        <pt x="391" y="654" on="0"/>
        <pt x="367" y="644" on="0"/>
        <pt x="357" y="631" on="0"/>
        <pt x="356" y="615" on="0"/>
        <pt x="357" y="608" on="1"/>
        <pt x="409" y="88" on="1"/>
        <pt x="709" y="591" on="1"/>
        <pt x="711" y="595" on="0"/>
        <pt x="720" y="613" on="0"/>
        <pt x="720" y="622" on="1"/>
        <pt x="720" y="633" on="0"/>
        <pt x="710" y="645" on="0"/>
        <pt x="697" y="652" on="0"/>
        <pt x="685" y="654" on="0"/>
        <pt x="683" y="654" on="1"/>
        <pt x="679" y="654" on="0"/>
        <pt x="670" y="657" on="0"/>
        <pt x="670" y="664" on="1"/>
        <pt x="670" y="678" on="0"/>
        <pt x="682" y="683" on="0"/>
        <pt x="687" y="683" on="1"/>
        <pt x="707" y="683" on="0"/>
        <pt x="749" y="681" on="0"/>
        <pt x="769" y="681" on="1"/>
        <pt x="786" y="681" on="0"/>
        <pt x="824" y="683" on="0"/>
        <pt x="841" y="683" on="1"/>
        <pt x="843" y="683" on="0"/>
        <pt x="853" y="681" on="0"/>
        <pt x="853" y="673" on="1"/>
        <pt x="853" y="660" on="0"/>
        <pt x="843" y="655" on="0"/>
        <pt x="835" y="654" on="1"/>
        <pt x="794" y="650" on="0"/>
        <pt x="749" y="607" on="0"/>
        <pt x="727" y="571" on="1"/>
      </contour>
    </TTGlyph>
    <TTGlyph name="W" xMin="207" yMin="-21" xMax="1103" yMax="683">
      <contour>
        <pt x="676" y="-5" on="1"/>
        <pt x="669" y="-17" on="0"/>
        <pt x="658" y="-21" on="0"/>
        <pt x="653" y="-21" on="1"/>
        <pt x="642" y="-21" on="0"/>
        <pt x="638" y="-13" on="0"/>
        <pt x="637" y="1" on="1"/>
        <pt x="616" y="510" on="1"/>
        <pt x="337" y="-3" on="1"/>
        <pt x="331" y="-14" on="0"/>
        <pt x="324" y="-21" on="0"/>
        <pt x="314" y="-21" on="1"/>
        <pt x="303" y="-21" on="0"/>
        <pt x="299" y="-13" on="0"/>
        <pt x="298" y="1" on="1"/>
        <pt x="272" y="622" on="1"/>
        <pt x="272" y="631" on="0"/>
        <pt x="270" y="643" on="0"/>
        <pt x="261" y="651" on="0"/>
        <pt x="244" y="654" on="0"/>
        <pt x="227" y="654" on="1"/>
        <pt x="217" y="654" on="0"/>
        <pt x="207" y="657" on="0"/>
        <pt x="207" y="665" on="1"/>
        <pt x="207" y="679" on="0"/>
        <pt x="220" y="683" on="0"/>
        <pt x="224" y="683" on="1"/>
        <pt x="225" y="683" on="0"/>
        <pt x="267" y="681" on="0"/>
        <pt x="318" y="681" on="1"/>
        <pt x="343" y="681" on="0"/>
        <pt x="394" y="683" on="0"/>
        <pt x="418" y="683" on="1"/>
        <pt x="422" y="683" on="0"/>
        <pt x="432" y="680" on="0"/>
        <pt x="432" y="672" on="1"/>
        <pt x="432" y="658" on="0"/>
        <pt x="420" y="654" on="0"/>
        <pt x="412" y="654" on="1"/>
        <pt x="387" y="654" on="0"/>
        <pt x="361" y="645" on="0"/>
        <pt x="349" y="632" on="0"/>
        <pt x="348" y="615" on="0"/>
        <pt x="348" y="607" on="1"/>
        <pt x="368" y="107" on="1"/>
        <pt x="608" y="549" on="1"/>
        <pt x="609" y="551" on="0"/>
        <pt x="613" y="560" on="0"/>
        <pt x="613" y="562" on="1"/>
        <pt x="613" y="574" on="0"/>
        <pt x="612" y="618" on="0"/>
        <pt x="611" y="630" on="1"/>
        <pt x="609" y="643" on="0"/>
        <pt x="595" y="654" on="0"/>
        <pt x="567" y="654" on="1"/>
        <pt x="557" y="654" on="0"/>
        <pt x="546" y="656" on="0"/>
        <pt x="546" y="664" on="1"/>
        <pt x="546" y="678" on="0"/>
        <pt x="558" y="683" on="0"/>
        <pt x="563" y="683" on="1"/>
        <pt x="565" y="683" on="0"/>
        <pt x="604" y="681" on="0"/>
        <pt x="656" y="681" on="1"/>
        <pt x="681" y="681" on="0"/>
        <pt x="732" y="683" on="0"/>
        <pt x="757" y="683" on="1"/>
        <pt x="760" y="683" on="0"/>
        <pt x="771" y="681" on="0"/>
        <pt x="771" y="673" on="1"/>
        <pt x="771" y="659" on="0"/>
        <pt x="759" y="654" on="0"/>
        <pt x="752" y="654" on="1"/>
        <pt x="727" y="654" on="0"/>
        <pt x="699" y="645" on="0"/>
        <pt x="687" y="631" on="0"/>
        <pt x="686" y="616" on="0"/>
        <pt x="686" y="608" on="1"/>
        <pt x="707" y="107" on="1"/>
        <pt x="966" y="587" on="1"/>
        <pt x="969" y="593" on="0"/>
        <pt x="976" y="608" on="0"/>
        <pt x="976" y="617" on="1"/>
        <pt x="976" y="629" on="0"/>
        <pt x="963" y="644" on="0"/>
        <pt x="947" y="651" on="0"/>
        <pt x="931" y="654" on="0"/>
        <pt x="928" y="654" on="1"/>
        <pt x="923" y="654" on="0"/>
        <pt x="915" y="657" on="0"/>
        <pt x="915" y="665" on="1"/>
        <pt x="915" y="679" on="0"/>
        <pt x="928" y="683" on="0"/>
        <pt x="933" y="683" on="1"/>
        <pt x="954" y="683" on="0"/>
        <pt x="998" y="681" on="0"/>
        <pt x="1019" y="681" on="1"/>
        <pt x="1043" y="681" on="0"/>
        <pt x="1071" y="682" on="0"/>
        <pt x="1086" y="682" on="0"/>
        <pt x="1091" y="683" on="0"/>
        <pt x="1092" y="683" on="1"/>
        <pt x="1103" y="683" on="0"/>
        <pt x="1103" y="673" on="1"/>
        <pt x="1103" y="660" on="0"/>
        <pt x="1092" y="655" on="0"/>
        <pt x="1087" y="654" on="1"/>
        <pt x="1079" y="653" on="0"/>
        <pt x="1057" y="649" on="0"/>
        <pt x="1032" y="633" on="0"/>
        <pt x="1003" y="602" on="0"/>
        <pt x="988" y="574" on="1"/>
      </contour>
    </TTGlyph>
    <TTGlyph name="X" xMin="48" yMin="0" xMax="811" yMax="683">
      <contour>
        <pt x="601" y="59" on="1"/>
        <pt x="604" y="52" on="0"/>
        <pt x="609" y="40" on="0"/>
        <pt x="622" y="33" on="0"/>
        <pt x="646" y="29" on="0"/>
        <pt x="666" y="29" on="1"/>
        <pt x="674" y="29" on="0"/>
        <pt x="685" y="27" on="0"/>
        <pt x="685" y="19" on="1"/>
        <pt x="685" y="5" on="0"/>
        <pt x="673" y="0" on="0"/>
        <pt x="668" y="0" on="1"/>
        <pt x="644" y="0" on="0"/>
        <pt x="593" y="2" on="0"/>
        <pt x="569" y="2" on="1"/>
        <pt x="543" y="2" on="0"/>
        <pt x="491" y="0" on="0"/>
        <pt x="466" y="0" on="1"/>
        <pt x="463" y="0" on="0"/>
        <pt x="452" y="2" on="0"/>
        <pt x="452" y="10" on="1"/>
        <pt x="452" y="17" on="0"/>
        <pt x="457" y="28" on="0"/>
        <pt x="465" y="29" on="1"/>
        <pt x="498" y="33" on="0"/>
        <pt x="518" y="55" on="0"/>
        <pt x="518" y="59" on="1"/>
        <pt x="518" y="61" on="0"/>
        <pt x="516" y="69" on="0"/>
        <pt x="515" y="71" on="1"/>
        <pt x="423" y="316" on="1"/>
        <pt x="233" y="99" on="1"/>
        <pt x="228" y="93" on="0"/>
        <pt x="211" y="70" on="0"/>
        <pt x="211" y="58" on="1"/>
        <pt x="211" y="49" on="0"/>
        <pt x="219" y="38" on="0"/>
        <pt x="229" y="32" on="0"/>
        <pt x="240" y="29" on="0"/>
        <pt x="243" y="29" on="1"/>
        <pt x="245" y="29" on="0"/>
        <pt x="253" y="26" on="0"/>
        <pt x="253" y="19" on="1"/>
        <pt x="253" y="5" on="0"/>
        <pt x="240" y="0" on="0"/>
        <pt x="235" y="0" on="1"/>
        <pt x="213" y="0" on="0"/>
        <pt x="166" y="2" on="0"/>
        <pt x="143" y="2" on="1"/>
        <pt x="123" y="2" on="0"/>
        <pt x="80" y="0" on="0"/>
        <pt x="60" y="0" on="1"/>
        <pt x="56" y="0" on="0"/>
        <pt x="48" y="3" on="0"/>
        <pt x="48" y="11" on="1"/>
        <pt x="48" y="24" on="0"/>
        <pt x="59" y="28" on="0"/>
        <pt x="67" y="29" on="1"/>
        <pt x="75" y="30" on="0"/>
        <pt x="103" y="34" on="0"/>
        <pt x="139" y="48" on="0"/>
        <pt x="181" y="77" on="0"/>
        <pt x="203" y="102" on="1"/>
        <pt x="414" y="342" on="1"/>
        <pt x="309" y="623" on="1"/>
        <pt x="306" y="630" on="0"/>
        <pt x="301" y="642" on="0"/>
        <pt x="289" y="650" on="0"/>
        <pt x="267" y="654" on="0"/>
        <pt x="248" y="654" on="1"/>
        <pt x="235" y="654" on="0"/>
        <pt x="224" y="656" on="0"/>
        <pt x="224" y="664" on="1"/>
        <pt x="224" y="678" on="0"/>
        <pt x="237" y="683" on="0"/>
        <pt x="242" y="683" on="1"/>
        <pt x="265" y="683" on="0"/>
        <pt x="316" y="681" on="0"/>
        <pt x="340" y="681" on="1"/>
        <pt x="366" y="681" on="0"/>
        <pt x="418" y="683" on="0"/>
        <pt x="444" y="683" on="1"/>
        <pt x="447" y="683" on="0"/>
        <pt x="458" y="681" on="0"/>
        <pt x="458" y="673" on="1"/>
        <pt x="458" y="660" on="0"/>
        <pt x="447" y="655" on="0"/>
        <pt x="441" y="654" on="1"/>
        <pt x="424" y="652" on="0"/>
        <pt x="398" y="639" on="0"/>
        <pt x="390" y="625" on="1"/>
        <pt x="471" y="407" on="1"/>
        <pt x="626" y="583" on="1"/>
        <pt x="634" y="591" on="0"/>
        <pt x="648" y="614" on="0"/>
        <pt x="648" y="626" on="1"/>
        <pt x="648" y="635" on="0"/>
        <pt x="635" y="652" on="0"/>
        <pt x="619" y="654" on="1"/>
        <pt x="614" y="655" on="0"/>
        <pt x="606" y="657" on="0"/>
        <pt x="606" y="665" on="1"/>
        <pt x="606" y="679" on="0"/>
        <pt x="619" y="683" on="0"/>
        <pt x="624" y="683" on="1"/>
        <pt x="632" y="683" on="0"/>
        <pt x="657" y="682" on="0"/>
        <pt x="684" y="682" on="0"/>
        <pt x="709" y="681" on="0"/>
        <pt x="716" y="681" on="1"/>
        <pt x="736" y="681" on="0"/>
        <pt x="779" y="683" on="0"/>
        <pt x="799" y="683" on="1"/>
        <pt x="801" y="683" on="0"/>
        <pt x="811" y="680" on="0"/>
        <pt x="811" y="673" on="1"/>
        <pt x="811" y="666" on="0"/>
        <pt x="806" y="655" on="0"/>
        <pt x="800" y="654" on="1"/>
        <pt x="787" y="653" on="0"/>
        <pt x="754" y="649" on="0"/>
        <pt x="716" y="633" on="0"/>
        <pt x="673" y="601" on="0"/>
        <pt x="648" y="573" on="1"/>
        <pt x="481" y="381" on="1"/>
      </contour>
    </TTGlyph>
    <TTGlyph name="Xi" xMin="73" yMin="0" xMax="741" yMax="678">
      <contour>
        <pt x="715" y="536" on="1"/>
        <pt x="714" y="536" on="0"/>
        <pt x="708" y="533" on="0"/>
        <pt x="703" y="533" on="1"/>
        <pt x="699" y="533" on="0"/>
        <pt x="689" y="536" on="0"/>
        <pt x="689" y="544" on="1"/>
        <pt x="689" y="546" on="0"/>
        <pt x="690" y="552" on="0"/>
        <pt x="690" y="553" on="1"/>
        <pt x="690" y="554" on="0"/>
        <pt x="693" y="567" on="0"/>
        <pt x="696" y="583" on="0"/>
        <pt x="698" y="600" on="0"/>
        <pt x="698" y="605" on="1"/>
        <pt x="698" y="613" on="0"/>
        <pt x="691" y="616" on="0"/>
        <pt x="674" y="618" on="1"/>
        <pt x="660" y="619" on="0"/>
        <pt x="648" y="619" on="0"/>
        <pt x="636" y="619" on="1"/>
        <pt x="327" y="619" on="1"/>
        <pt x="323" y="619" on="0"/>
        <pt x="303" y="619" on="0"/>
        <pt x="281" y="617" on="0"/>
        <pt x="262" y="615" on="0"/>
        <pt x="260" y="612" on="1"/>
        <pt x="257" y="609" on="0"/>
        <pt x="249" y="592" on="0"/>
        <pt x="241" y="572" on="0"/>
        <pt x="236" y="556" on="0"/>
        <pt x="236" y="554" on="1"/>
        <pt x="231" y="540" on="0"/>
        <pt x="226" y="533" on="0"/>
        <pt x="218" y="533" on="1"/>
        <pt x="215" y="533" on="0"/>
        <pt x="204" y="535" on="0"/>
        <pt x="204" y="543" on="1"/>
        <pt x="204" y="544" on="0"/>
        <pt x="205" y="549" on="0"/>
        <pt x="209" y="560" on="1"/>
        <pt x="240" y="661" on="1"/>
        <pt x="244" y="673" on="0"/>
        <pt x="251" y="678" on="0"/>
        <pt x="267" y="678" on="1"/>
        <pt x="717" y="678" on="1"/>
        <pt x="730" y="678" on="0"/>
        <pt x="741" y="675" on="0"/>
        <pt x="741" y="667" on="1"/>
        <pt x="741" y="662" on="0"/>
        <pt x="739" y="654" on="1"/>
      </contour>
      <contour>
        <pt x="97" y="135" on="1"/>
        <pt x="99" y="148" on="0"/>
        <pt x="104" y="156" on="0"/>
        <pt x="114" y="156" on="1"/>
        <pt x="116" y="156" on="0"/>
        <pt x="127" y="154" on="0"/>
        <pt x="127" y="146" on="1"/>
        <pt x="127" y="144" on="0"/>
        <pt x="127" y="140" on="0"/>
        <pt x="125" y="135" on="1"/>
        <pt x="120" y="106" on="0"/>
        <pt x="116" y="76" on="0"/>
        <pt x="116" y="72" on="1"/>
        <pt x="116" y="65" on="0"/>
        <pt x="123" y="62" on="0"/>
        <pt x="143" y="60" on="1"/>
        <pt x="157" y="59" on="0"/>
        <pt x="169" y="59" on="0"/>
        <pt x="181" y="59" on="1"/>
        <pt x="493" y="59" on="1"/>
        <pt x="507" y="59" on="0"/>
        <pt x="545" y="60" on="0"/>
        <pt x="559" y="63" on="1"/>
        <pt x="563" y="64" on="0"/>
        <pt x="572" y="79" on="0"/>
        <pt x="580" y="100" on="0"/>
        <pt x="588" y="124" on="0"/>
        <pt x="591" y="134" on="1"/>
        <pt x="595" y="149" on="0"/>
        <pt x="600" y="156" on="0"/>
        <pt x="609" y="156" on="1"/>
        <pt x="611" y="156" on="0"/>
        <pt x="622" y="154" on="0"/>
        <pt x="622" y="146" on="1"/>
        <pt x="622" y="145" on="0"/>
        <pt x="619" y="133" on="1"/>
        <pt x="584" y="18" on="1"/>
        <pt x="580" y="5" on="0"/>
        <pt x="573" y="0" on="0"/>
        <pt x="557" y="0" on="1"/>
        <pt x="97" y="0" on="1"/>
        <pt x="85" y="0" on="0"/>
        <pt x="73" y="2" on="0"/>
        <pt x="73" y="10" on="1"/>
        <pt x="73" y="11" on="0"/>
        <pt x="73" y="16" on="0"/>
        <pt x="75" y="24" on="1"/>
      </contour>
      <contour>
        <pt x="574" y="297" on="1"/>
        <pt x="571" y="283" on="0"/>
        <pt x="564" y="279" on="0"/>
        <pt x="557" y="279" on="1"/>
        <pt x="555" y="279" on="0"/>
        <pt x="544" y="281" on="0"/>
        <pt x="544" y="289" on="1"/>
        <pt x="544" y="292" on="0"/>
        <pt x="546" y="302" on="0"/>
        <pt x="551" y="323" on="1"/>
        <pt x="259" y="323" on="1"/>
        <pt x="257" y="316" on="0"/>
        <pt x="254" y="303" on="0"/>
        <pt x="252" y="297" on="1"/>
        <pt x="249" y="286" on="0"/>
        <pt x="245" y="279" on="0"/>
        <pt x="236" y="279" on="1"/>
        <pt x="234" y="279" on="0"/>
        <pt x="223" y="281" on="0"/>
        <pt x="223" y="289" on="1"/>
        <pt x="223" y="295" on="0"/>
        <pt x="225" y="303" on="1"/>
        <pt x="252" y="409" on="1"/>
        <pt x="254" y="419" on="0"/>
        <pt x="259" y="426" on="0"/>
        <pt x="268" y="426" on="1"/>
        <pt x="271" y="426" on="0"/>
        <pt x="282" y="424" on="0"/>
        <pt x="282" y="416" on="1"/>
        <pt x="282" y="414" on="0"/>
        <pt x="276" y="391" on="0"/>
        <pt x="274" y="382" on="1"/>
        <pt x="566" y="382" on="1"/>
        <pt x="568" y="389" on="0"/>
        <pt x="571" y="400" on="0"/>
        <pt x="573" y="408" on="1"/>
        <pt x="576" y="419" on="0"/>
        <pt x="581" y="426" on="0"/>
        <pt x="589" y="426" on="1"/>
        <pt x="592" y="426" on="0"/>
        <pt x="603" y="424" on="0"/>
        <pt x="603" y="416" on="1"/>
        <pt x="603" y="414" on="0"/>
        <pt x="602" y="409" on="0"/>
        <pt x="600" y="403" on="1"/>
      </contour>
    </TTGlyph>
    <TTGlyph name="Y" xMin="201" yMin="0" xMax="860" yMax="683">
      <contour>
        <pt x="475" y="282" on="1"/>
        <pt x="469" y="275" on="0"/>
        <pt x="466" y="267" on="0"/>
        <pt x="462" y="254" on="1"/>
        <pt x="431" y="129" on="1"/>
        <pt x="428" y="119" on="0"/>
        <pt x="422" y="92" on="0"/>
        <pt x="416" y="68" on="0"/>
        <pt x="412" y="49" on="0"/>
        <pt x="412" y="46" on="1"/>
        <pt x="412" y="42" on="0"/>
        <pt x="414" y="36" on="0"/>
        <pt x="424" y="32" on="0"/>
        <pt x="446" y="29" on="0"/>
        <pt x="467" y="29" on="1"/>
        <pt x="479" y="29" on="0"/>
        <pt x="491" y="27" on="0"/>
        <pt x="491" y="19" on="1"/>
        <pt x="491" y="5" on="0"/>
        <pt x="478" y="0" on="0"/>
        <pt x="472" y="0" on="1"/>
        <pt x="446" y="0" on="0"/>
        <pt x="390" y="2" on="0"/>
        <pt x="363" y="2" on="1"/>
        <pt x="337" y="2" on="0"/>
        <pt x="282" y="0" on="0"/>
        <pt x="256" y="0" on="1"/>
        <pt x="253" y="0" on="0"/>
        <pt x="242" y="2" on="0"/>
        <pt x="242" y="10" on="1"/>
        <pt x="242" y="24" on="0"/>
        <pt x="254" y="29" on="0"/>
        <pt x="264" y="29" on="1"/>
        <pt x="287" y="29" on="0"/>
        <pt x="315" y="32" on="0"/>
        <pt x="332" y="39" on="0"/>
        <pt x="340" y="53" on="0"/>
        <pt x="343" y="64" on="1"/>
        <pt x="343" y="65" on="0"/>
        <pt x="351" y="96" on="0"/>
        <pt x="363" y="142" on="0"/>
        <pt x="376" y="195" on="0"/>
        <pt x="387" y="240" on="0"/>
        <pt x="395" y="272" on="0"/>
        <pt x="395" y="273" on="1"/>
        <pt x="395" y="276" on="0"/>
        <pt x="392" y="285" on="0"/>
        <pt x="391" y="288" on="1"/>
        <pt x="284" y="623" on="1"/>
        <pt x="278" y="642" on="0"/>
        <pt x="254" y="654" on="0"/>
        <pt x="220" y="654" on="1"/>
        <pt x="212" y="654" on="0"/>
        <pt x="201" y="656" on="0"/>
        <pt x="201" y="664" on="1"/>
        <pt x="201" y="678" on="0"/>
        <pt x="214" y="683" on="0"/>
        <pt x="219" y="683" on="1"/>
        <pt x="242" y="683" on="0"/>
        <pt x="293" y="681" on="0"/>
        <pt x="317" y="681" on="1"/>
        <pt x="343" y="681" on="0"/>
        <pt x="395" y="683" on="0"/>
        <pt x="421" y="683" on="1"/>
        <pt x="426" y="683" on="0"/>
        <pt x="436" y="680" on="0"/>
        <pt x="436" y="672" on="1"/>
        <pt x="436" y="658" on="0"/>
        <pt x="423" y="654" on="0"/>
        <pt x="416" y="654" on="1"/>
        <pt x="412" y="654" on="0"/>
        <pt x="395" y="653" on="0"/>
        <pt x="378" y="648" on="0"/>
        <pt x="365" y="639" on="0"/>
        <pt x="365" y="630" on="1"/>
        <pt x="365" y="629" on="0"/>
        <pt x="367" y="620" on="0"/>
        <pt x="368" y="618" on="1"/>
        <pt x="466" y="310" on="1"/>
        <pt x="691" y="585" on="1"/>
        <pt x="699" y="595" on="0"/>
        <pt x="716" y="619" on="0"/>
        <pt x="716" y="632" on="1"/>
        <pt x="716" y="646" on="0"/>
        <pt x="695" y="653" on="0"/>
        <pt x="687" y="654" on="1"/>
        <pt x="685" y="654" on="0"/>
        <pt x="676" y="657" on="0"/>
        <pt x="676" y="664" on="1"/>
        <pt x="676" y="678" on="0"/>
        <pt x="688" y="683" on="0"/>
        <pt x="693" y="683" on="1"/>
        <pt x="713" y="683" on="0"/>
        <pt x="755" y="681" on="0"/>
        <pt x="775" y="681" on="1"/>
        <pt x="793" y="681" on="0"/>
        <pt x="831" y="683" on="0"/>
        <pt x="848" y="683" on="1"/>
        <pt x="850" y="683" on="0"/>
        <pt x="860" y="681" on="0"/>
        <pt x="860" y="673" on="1"/>
        <pt x="860" y="660" on="0"/>
        <pt x="850" y="655" on="0"/>
        <pt x="842" y="654" on="1"/>
        <pt x="825" y="653" on="0"/>
        <pt x="795" y="644" on="0"/>
        <pt x="765" y="626" on="0"/>
        <pt x="732" y="595" on="0"/>
        <pt x="713" y="572" on="1"/>
      </contour>
    </TTGlyph>
    <TTGlyph name="Z" xMin="78" yMin="0" xMax="692" yMax="683">
      <contour>
        <pt x="167" y="31" on="1"/>
        <pt x="316" y="31" on="1"/>
        <pt x="377" y="31" on="0"/>
        <pt x="457" y="61" on="0"/>
        <pt x="510" y="113" on="0"/>
        <pt x="543" y="187" on="0"/>
        <pt x="556" y="230" on="1"/>
        <pt x="559" y="238" on="0"/>
        <pt x="566" y="259" on="0"/>
        <pt x="568" y="261" on="1"/>
        <pt x="571" y="264" on="0"/>
        <pt x="579" y="264" on="1"/>
        <pt x="581" y="264" on="0"/>
        <pt x="592" y="262" on="0"/>
        <pt x="592" y="254" on="1"/>
        <pt x="592" y="253" on="0"/>
        <pt x="591" y="249" on="0"/>
        <pt x="589" y="241" on="1"/>
        <pt x="520" y="18" on="1"/>
        <pt x="515" y="5" on="0"/>
        <pt x="508" y="0" on="0"/>
        <pt x="493" y="0" on="1"/>
        <pt x="100" y="0" on="1"/>
        <pt x="88" y="0" on="0"/>
        <pt x="78" y="2" on="0"/>
        <pt x="78" y="8" on="1"/>
        <pt x="78" y="9" on="0"/>
        <pt x="81" y="23" on="0"/>
        <pt x="89" y="34" on="1"/>
        <pt x="604" y="654" on="1"/>
        <pt x="463" y="654" on="1"/>
        <pt x="408" y="654" on="0"/>
        <pt x="332" y="628" on="0"/>
        <pt x="281" y="582" on="0"/>
        <pt x="249" y="518" on="0"/>
        <pt x="237" y="480" on="1"/>
        <pt x="232" y="466" on="0"/>
        <pt x="228" y="460" on="0"/>
        <pt x="219" y="460" on="1"/>
        <pt x="217" y="460" on="0"/>
        <pt x="206" y="462" on="0"/>
        <pt x="206" y="470" on="1"/>
        <pt x="206" y="473" on="0"/>
        <pt x="209" y="483" on="1"/>
        <pt x="264" y="666" on="1"/>
        <pt x="268" y="678" on="0"/>
        <pt x="275" y="683" on="0"/>
        <pt x="291" y="683" on="1"/>
        <pt x="670" y="683" on="1"/>
        <pt x="682" y="683" on="0"/>
        <pt x="692" y="681" on="0"/>
        <pt x="692" y="675" on="1"/>
        <pt x="692" y="667" on="0"/>
        <pt x="687" y="658" on="0"/>
        <pt x="682" y="653" on="1"/>
      </contour>
    </TTGlyph>
    <TTGlyph name="a" xMin="108" yMin="-10" xMax="523" yMax="441">
      <contour>
        <pt x="405" y="103" on="1"/>
        <pt x="402" y="92" on="0"/>
        <pt x="397" y="61" on="0"/>
        <pt x="397" y="50" on="1"/>
        <pt x="397" y="36" on="0"/>
        <pt x="407" y="10" on="0"/>
        <pt x="424" y="10" on="1"/>
        <pt x="445" y="10" on="0"/>
        <pt x="476" y="65" on="0"/>
        <pt x="491" y="128" on="1"/>
        <pt x="496" y="145" on="0"/>
        <pt x="501" y="152" on="0"/>
        <pt x="510" y="152" on="1"/>
        <pt x="513" y="152" on="0"/>
        <pt x="523" y="150" on="0"/>
        <pt x="523" y="143" on="1"/>
        <pt x="523" y="142" on="0"/>
        <pt x="519" y="122" on="0"/>
        <pt x="511" y="93" on="0"/>
        <pt x="500" y="61" on="0"/>
        <pt x="494" y="48" on="1"/>
        <pt x="484" y="26" on="0"/>
        <pt x="451" y="-10" on="0"/>
        <pt x="422" y="-10" on="1"/>
        <pt x="413" y="-10" on="0"/>
        <pt x="390" y="-5" on="0"/>
        <pt x="366" y="10" on="0"/>
        <pt x="347" y="38" on="0"/>
        <pt x="343" y="61" on="1"/>
        <pt x="314" y="27" on="0"/>
        <pt x="254" y="-10" on="0"/>
        <pt x="223" y="-10" on="1"/>
        <pt x="198" y="-10" on="0"/>
        <pt x="155" y="12" on="0"/>
        <pt x="125" y="53" on="0"/>
        <pt x="108" y="109" on="0"/>
        <pt x="108" y="142" on="1"/>
        <pt x="108" y="197" on="0"/>
        <pt x="147" y="304" on="0"/>
        <pt x="211" y="389" on="0"/>
        <pt x="291" y="441" on="0"/>
        <pt x="332" y="441" on="1"/>
        <pt x="352" y="441" on="0"/>
        <pt x="398" y="417" on="0"/>
        <pt x="412" y="382" on="1"/>
        <pt x="413" y="383" on="1"/>
        <pt x="415" y="394" on="0"/>
        <pt x="421" y="403" on="1"/>
        <pt x="425" y="410" on="0"/>
        <pt x="440" y="422" on="0"/>
        <pt x="452" y="422" on="1"/>
        <pt x="466" y="422" on="0"/>
        <pt x="478" y="406" on="0"/>
        <pt x="478" y="398" on="1"/>
        <pt x="478" y="396" on="0"/>
        <pt x="477" y="390" on="0"/>
        <pt x="475" y="382" on="1"/>
      </contour>
      <contour>
        <pt x="396" y="311" on="1"/>
        <pt x="396" y="313" on="0"/>
        <pt x="399" y="324" on="0"/>
        <pt x="399" y="325" on="1"/>
        <pt x="399" y="328" on="0"/>
        <pt x="395" y="358" on="0"/>
        <pt x="381" y="393" on="0"/>
        <pt x="355" y="421" on="0"/>
        <pt x="332" y="421" on="1"/>
        <pt x="316" y="421" on="0"/>
        <pt x="284" y="403" on="0"/>
        <pt x="254" y="372" on="0"/>
        <pt x="228" y="331" on="0"/>
        <pt x="218" y="308" on="1"/>
        <pt x="212" y="293" on="0"/>
        <pt x="196" y="238" on="0"/>
        <pt x="181" y="177" on="0"/>
        <pt x="170" y="119" on="0"/>
        <pt x="170" y="100" on="1"/>
        <pt x="170" y="96" on="0"/>
        <pt x="172" y="66" on="0"/>
        <pt x="183" y="35" on="0"/>
        <pt x="205" y="10" on="0"/>
        <pt x="225" y="10" on="1"/>
        <pt x="247" y="10" on="0"/>
        <pt x="289" y="37" on="0"/>
        <pt x="324" y="74" on="0"/>
        <pt x="347" y="111" on="0"/>
        <pt x="349" y="121" on="1"/>
      </contour>
    </TTGlyph>
    <TTGlyph name="acute" xMin="336" yMin="507" xMax="543" yMax="696">
      <contour>
        <pt x="363" y="513" on="1"/>
        <pt x="357" y="507" on="0"/>
        <pt x="350" y="507" on="1"/>
        <pt x="346" y="507" on="0"/>
        <pt x="336" y="516" on="0"/>
        <pt x="336" y="522" on="1"/>
        <pt x="336" y="524" on="0"/>
        <pt x="338" y="529" on="0"/>
        <pt x="345" y="535" on="1"/>
        <pt x="488" y="682" on="1"/>
        <pt x="489" y="683" on="0"/>
        <pt x="505" y="696" on="0"/>
        <pt x="516" y="696" on="1"/>
        <pt x="527" y="696" on="0"/>
        <pt x="543" y="680" on="0"/>
        <pt x="543" y="669" on="1"/>
        <pt x="543" y="658" on="0"/>
        <pt x="528" y="643" on="0"/>
        <pt x="523" y="639" on="1"/>
      </contour>
    </TTGlyph>
    <TTGlyph name="ae" xMin="92" yMin="-10" xMax="703" yMax="441">
      <contour>
        <pt x="434" y="232" on="1"/>
        <pt x="423" y="186" on="0"/>
        <pt x="420" y="135" on="0"/>
        <pt x="420" y="132" on="1"/>
        <pt x="420" y="111" on="0"/>
        <pt x="428" y="68" on="0"/>
        <pt x="448" y="32" on="0"/>
        <pt x="479" y="10" on="0"/>
        <pt x="501" y="10" on="1"/>
        <pt x="535" y="10" on="0"/>
        <pt x="620" y="56" on="0"/>
        <pt x="657" y="111" on="1"/>
        <pt x="662" y="117" on="0"/>
        <pt x="665" y="120" on="0"/>
        <pt x="668" y="120" on="1"/>
        <pt x="673" y="120" on="0"/>
        <pt x="682" y="110" on="0"/>
        <pt x="682" y="105" on="1"/>
        <pt x="682" y="100" on="0"/>
        <pt x="655" y="63" on="0"/>
        <pt x="607" y="22" on="0"/>
        <pt x="540" y="-10" on="0"/>
        <pt x="500" y="-10" on="1"/>
        <pt x="477" y="-10" on="0"/>
        <pt x="442" y="4" on="0"/>
        <pt x="415" y="26" on="0"/>
        <pt x="397" y="51" on="0"/>
        <pt x="392" y="63" on="1"/>
        <pt x="392" y="61" on="0"/>
        <pt x="388" y="46" on="0"/>
        <pt x="384" y="30" on="0"/>
        <pt x="380" y="16" on="0"/>
        <pt x="380" y="16" on="1"/>
        <pt x="375" y="0" on="0"/>
        <pt x="358" y="-10" on="0"/>
        <pt x="350" y="-10" on="1"/>
        <pt x="338" y="-10" on="0"/>
        <pt x="327" y="4" on="0"/>
        <pt x="327" y="11" on="1"/>
        <pt x="327" y="14" on="0"/>
        <pt x="335" y="47" on="0"/>
        <pt x="337" y="58" on="1"/>
        <pt x="330" y="49" on="0"/>
        <pt x="307" y="26" on="0"/>
        <pt x="278" y="5" on="0"/>
        <pt x="243" y="-10" on="0"/>
        <pt x="222" y="-10" on="1"/>
        <pt x="195" y="-10" on="0"/>
        <pt x="148" y="6" on="0"/>
        <pt x="113" y="34" on="0"/>
        <pt x="92" y="74" on="0"/>
        <pt x="92" y="99" on="1"/>
        <pt x="92" y="102" on="0"/>
        <pt x="95" y="133" on="0"/>
        <pt x="114" y="182" on="0"/>
        <pt x="154" y="245" on="0"/>
        <pt x="229" y="313" on="0"/>
        <pt x="344" y="384" on="0"/>
        <pt x="428" y="416" on="1"/>
        <pt x="433" y="435" on="0"/>
        <pt x="456" y="441" on="0"/>
        <pt x="458" y="441" on="1"/>
        <pt x="480" y="441" on="0"/>
        <pt x="480" y="419" on="1"/>
        <pt x="480" y="414" on="0"/>
        <pt x="475" y="391" on="0"/>
        <pt x="473" y="386" on="1"/>
        <pt x="484" y="395" on="0"/>
        <pt x="513" y="414" on="0"/>
        <pt x="547" y="431" on="0"/>
        <pt x="586" y="441" on="0"/>
        <pt x="607" y="441" on="1"/>
        <pt x="652" y="441" on="0"/>
        <pt x="703" y="392" on="0"/>
        <pt x="703" y="358" on="1"/>
        <pt x="703" y="327" on="0"/>
        <pt x="675" y="283" on="0"/>
        <pt x="632" y="255" on="0"/>
        <pt x="580" y="240" on="0"/>
        <pt x="530" y="233" on="0"/>
        <pt x="489" y="232" on="0"/>
        <pt x="479" y="232" on="1"/>
      </contour>
      <contour>
        <pt x="468" y="252" on="1"/>
        <pt x="492" y="252" on="0"/>
        <pt x="561" y="258" on="0"/>
        <pt x="624" y="280" on="0"/>
        <pt x="669" y="322" on="0"/>
        <pt x="669" y="359" on="1"/>
        <pt x="669" y="385" on="0"/>
        <pt x="636" y="421" on="0"/>
        <pt x="606" y="421" on="1"/>
        <pt x="586" y="421" on="0"/>
        <pt x="537" y="402" on="0"/>
        <pt x="491" y="361" on="0"/>
        <pt x="451" y="297" on="0"/>
        <pt x="440" y="252" on="1"/>
      </contour>
      <contour>
        <pt x="421" y="391" on="1"/>
        <pt x="354" y="363" on="0"/>
        <pt x="255" y="281" on="0"/>
        <pt x="190" y="192" on="0"/>
        <pt x="159" y="107" on="0"/>
        <pt x="159" y="74" on="1"/>
        <pt x="159" y="56" on="0"/>
        <pt x="172" y="31" on="0"/>
        <pt x="191" y="16" on="0"/>
        <pt x="215" y="10" on="0"/>
        <pt x="225" y="10" on="1"/>
        <pt x="250" y="10" on="0"/>
        <pt x="297" y="45" on="0"/>
        <pt x="334" y="90" on="0"/>
        <pt x="358" y="135" on="0"/>
        <pt x="360" y="144" on="1"/>
      </contour>
    </TTGlyph>
    <TTGlyph name="ampersand" xMin="124" yMin="-21" xMax="790" yMax="715">
      <contour>
        <pt x="662" y="467" on="1"/>
        <pt x="684" y="440" on="0"/>
        <pt x="719" y="366" on="0"/>
        <pt x="719" y="313" on="1"/>
        <pt x="719" y="287" on="0"/>
        <pt x="706" y="217" on="0"/>
        <pt x="674" y="143" on="0"/>
        <pt x="622" y="71" on="0"/>
        <pt x="545" y="14" on="0"/>
        <pt x="440" y="-21" on="0"/>
        <pt x="372" y="-21" on="1"/>
        <pt x="312" y="-21" on="0"/>
        <pt x="220" y="12" on="0"/>
        <pt x="157" y="66" on="0"/>
        <pt x="124" y="137" on="0"/>
        <pt x="124" y="175" on="1"/>
        <pt x="124" y="196" on="0"/>
        <pt x="137" y="249" on="0"/>
        <pt x="161" y="307" on="0"/>
        <pt x="197" y="365" on="0"/>
        <pt x="220" y="389" on="1"/>
        <pt x="216" y="399" on="0"/>
        <pt x="209" y="432" on="0"/>
        <pt x="209" y="455" on="1"/>
        <pt x="209" y="503" on="0"/>
        <pt x="246" y="597" on="0"/>
        <pt x="305" y="670" on="0"/>
        <pt x="380" y="715" on="0"/>
        <pt x="418" y="715" on="1"/>
        <pt x="444" y="715" on="0"/>
        <pt x="483" y="696" on="0"/>
        <pt x="508" y="665" on="0"/>
        <pt x="521" y="625" on="0"/>
        <pt x="521" y="603" on="1"/>
        <pt x="521" y="596" on="0"/>
        <pt x="519" y="571" on="0"/>
        <pt x="509" y="545" on="0"/>
        <pt x="490" y="526" on="0"/>
        <pt x="472" y="526" on="1"/>
        <pt x="471" y="526" on="0"/>
        <pt x="460" y="527" on="0"/>
        <pt x="450" y="532" on="0"/>
        <pt x="441" y="544" on="0"/>
        <pt x="441" y="555" on="1"/>
        <pt x="441" y="558" on="0"/>
        <pt x="443" y="573" on="0"/>
        <pt x="454" y="588" on="0"/>
        <pt x="475" y="599" on="0"/>
        <pt x="493" y="599" on="1"/>
        <pt x="493" y="630" on="0"/>
        <pt x="477" y="667" on="0"/>
        <pt x="454" y="688" on="0"/>
        <pt x="428" y="695" on="0"/>
        <pt x="418" y="695" on="1"/>
        <pt x="382" y="695" on="0"/>
        <pt x="325" y="638" on="0"/>
        <pt x="286" y="555" on="0"/>
        <pt x="264" y="462" on="0"/>
        <pt x="263" y="427" on="1"/>
        <pt x="268" y="430" on="0"/>
        <pt x="288" y="442" on="0"/>
        <pt x="314" y="454" on="0"/>
        <pt x="345" y="462" on="0"/>
        <pt x="361" y="462" on="1"/>
        <pt x="395" y="462" on="0"/>
        <pt x="424" y="424" on="0"/>
        <pt x="424" y="403" on="1"/>
        <pt x="424" y="387" on="0"/>
        <pt x="409" y="355" on="0"/>
        <pt x="384" y="329" on="0"/>
        <pt x="349" y="312" on="0"/>
        <pt x="328" y="312" on="1"/>
        <pt x="299" y="312" on="0"/>
        <pt x="257" y="336" on="0"/>
        <pt x="247" y="346" on="1"/>
        <pt x="237" y="328" on="0"/>
        <pt x="218" y="279" on="0"/>
        <pt x="203" y="226" on="0"/>
        <pt x="194" y="176" on="0"/>
        <pt x="194" y="157" on="1"/>
        <pt x="194" y="112" on="0"/>
        <pt x="227" y="52" on="0"/>
        <pt x="279" y="15" on="0"/>
        <pt x="343" y="-1" on="0"/>
        <pt x="375" y="-1" on="1"/>
        <pt x="438" y="-1" on="0"/>
        <pt x="534" y="32" on="0"/>
        <pt x="604" y="86" on="0"/>
        <pt x="650" y="154" on="0"/>
        <pt x="678" y="223" on="0"/>
        <pt x="690" y="287" on="0"/>
        <pt x="690" y="310" on="1"/>
        <pt x="690" y="318" on="0"/>
        <pt x="688" y="345" on="0"/>
        <pt x="679" y="382" on="0"/>
        <pt x="658" y="426" on="0"/>
        <pt x="638" y="450" on="1"/>
        <pt x="604" y="429" on="0"/>
        <pt x="555" y="396" on="0"/>
        <pt x="523" y="364" on="0"/>
        <pt x="508" y="330" on="0"/>
        <pt x="508" y="307" on="1"/>
        <pt x="508" y="299" on="0"/>
        <pt x="511" y="288" on="0"/>
        <pt x="513" y="283" on="1"/>
        <pt x="519" y="302" on="0"/>
        <pt x="546" y="314" on="0"/>
        <pt x="554" y="314" on="1"/>
        <pt x="562" y="314" on="0"/>
        <pt x="584" y="304" on="0"/>
        <pt x="584" y="285" on="1"/>
        <pt x="584" y="268" on="0"/>
        <pt x="559" y="242" on="0"/>
        <pt x="540" y="242" on="1"/>
        <pt x="518" y="242" on="0"/>
        <pt x="481" y="274" on="0"/>
        <pt x="481" y="311" on="1"/>
        <pt x="481" y="338" on="0"/>
        <pt x="502" y="380" on="0"/>
        <pt x="536" y="415" on="0"/>
        <pt x="580" y="445" on="0"/>
        <pt x="604" y="460" on="1"/>
        <pt x="619" y="469" on="0"/>
        <pt x="657" y="496" on="0"/>
        <pt x="697" y="534" on="0"/>
        <pt x="734" y="587" on="0"/>
        <pt x="748" y="622" on="1"/>
        <pt x="736" y="622" on="0"/>
        <pt x="722" y="630" on="0"/>
        <pt x="716" y="640" on="0"/>
        <pt x="715" y="649" on="0"/>
        <pt x="715" y="650" on="1"/>
        <pt x="715" y="666" on="0"/>
        <pt x="740" y="694" on="0"/>
        <pt x="759" y="694" on="1"/>
        <pt x="779" y="694" on="0"/>
        <pt x="790" y="672" on="0"/>
        <pt x="790" y="666" on="1"/>
        <pt x="790" y="661" on="0"/>
        <pt x="778" y="618" on="0"/>
        <pt x="749" y="560" on="0"/>
        <pt x="700" y="495" on="0"/>
      </contour>
      <contour>
        <pt x="269" y="382" on="1"/>
        <pt x="275" y="362" on="0"/>
        <pt x="306" y="332" on="0"/>
        <pt x="330" y="332" on="1"/>
        <pt x="344" y="332" on="0"/>
        <pt x="368" y="344" on="0"/>
        <pt x="386" y="365" on="0"/>
        <pt x="396" y="392" on="0"/>
        <pt x="396" y="407" on="1"/>
        <pt x="396" y="427" on="0"/>
        <pt x="374" y="442" on="0"/>
        <pt x="362" y="442" on="1"/>
        <pt x="347" y="442" on="0"/>
        <pt x="319" y="429" on="0"/>
        <pt x="295" y="411" on="0"/>
        <pt x="276" y="390" on="0"/>
      </contour>
    </TTGlyph>
    <TTGlyph name="asterisk" xMin="192" yMin="319" xMax="574" yMax="750">
      <contour>
        <pt x="360" y="351" on="1"/>
        <pt x="360" y="348" on="0"/>
        <pt x="357" y="337" on="0"/>
        <pt x="351" y="326" on="0"/>
        <pt x="339" y="319" on="0"/>
        <pt x="329" y="319" on="1"/>
        <pt x="325" y="319" on="0"/>
        <pt x="311" y="325" on="0"/>
        <pt x="311" y="336" on="1"/>
        <pt x="311" y="338" on="0"/>
        <pt x="312" y="344" on="0"/>
        <pt x="316" y="355" on="1"/>
        <pt x="368" y="516" on="1"/>
        <pt x="217" y="416" on="1"/>
        <pt x="212" y="416" on="0"/>
        <pt x="192" y="421" on="0"/>
        <pt x="192" y="435" on="1"/>
        <pt x="192" y="448" on="0"/>
        <pt x="209" y="460" on="0"/>
        <pt x="216" y="463" on="1"/>
        <pt x="365" y="535" on="1"/>
        <pt x="254" y="604" on="1"/>
        <pt x="243" y="611" on="0"/>
        <pt x="239" y="620" on="0"/>
        <pt x="239" y="623" on="1"/>
        <pt x="239" y="633" on="0"/>
        <pt x="257" y="653" on="0"/>
        <pt x="270" y="653" on="1"/>
        <pt x="274" y="653" on="0"/>
        <pt x="281" y="650" on="0"/>
        <pt x="289" y="642" on="1"/>
        <pt x="378" y="554" on="1"/>
        <pt x="406" y="717" on="1"/>
        <pt x="407" y="720" on="0"/>
        <pt x="410" y="732" on="0"/>
        <pt x="416" y="742" on="0"/>
        <pt x="428" y="750" on="0"/>
        <pt x="437" y="750" on="1"/>
        <pt x="445" y="750" on="0"/>
        <pt x="456" y="741" on="0"/>
        <pt x="456" y="733" on="1"/>
        <pt x="456" y="729" on="0"/>
        <pt x="453" y="720" on="0"/>
        <pt x="452" y="717" on="1"/>
        <pt x="398" y="553" on="1"/>
        <pt x="538" y="647" on="1"/>
        <pt x="541" y="649" on="0"/>
        <pt x="549" y="653" on="0"/>
        <pt x="555" y="653" on="1"/>
        <pt x="566" y="653" on="0"/>
        <pt x="574" y="640" on="0"/>
        <pt x="574" y="634" on="1"/>
        <pt x="574" y="621" on="0"/>
        <pt x="557" y="609" on="0"/>
        <pt x="550" y="606" on="1"/>
        <pt x="401" y="534" on="1"/>
        <pt x="511" y="465" on="1"/>
        <pt x="519" y="460" on="0"/>
        <pt x="527" y="453" on="0"/>
        <pt x="527" y="446" on="1"/>
        <pt x="527" y="435" on="0"/>
        <pt x="508" y="416" on="0"/>
        <pt x="497" y="416" on="1"/>
        <pt x="492" y="416" on="0"/>
        <pt x="485" y="419" on="0"/>
        <pt x="477" y="427" on="1"/>
        <pt x="388" y="516" on="1"/>
      </contour>
    </TTGlyph>
    <TTGlyph name="at" xMin="149" yMin="-10" xMax="774" yMax="704">
      <contour>
        <pt x="604" y="195" on="1"/>
        <pt x="604" y="194" on="0"/>
        <pt x="601" y="181" on="0"/>
        <pt x="601" y="174" on="1"/>
        <pt x="601" y="156" on="0"/>
        <pt x="614" y="149" on="0"/>
        <pt x="619" y="149" on="1"/>
        <pt x="641" y="149" on="0"/>
        <pt x="677" y="187" on="0"/>
        <pt x="706" y="246" on="0"/>
        <pt x="726" y="317" on="0"/>
        <pt x="740" y="384" on="0"/>
        <pt x="746" y="437" on="0"/>
        <pt x="746" y="449" on="1"/>
        <pt x="746" y="501" on="0"/>
        <pt x="717" y="587" on="0"/>
        <pt x="665" y="649" on="0"/>
        <pt x="592" y="684" on="0"/>
        <pt x="547" y="684" on="1"/>
        <pt x="502" y="684" on="0"/>
        <pt x="412" y="650" on="0"/>
        <pt x="330" y="589" on="0"/>
        <pt x="259" y="506" on="0"/>
        <pt x="207" y="408" on="0"/>
        <pt x="177" y="300" on="0"/>
        <pt x="177" y="245" on="1"/>
        <pt x="177" y="198" on="0"/>
        <pt x="202" y="113" on="0"/>
        <pt x="253" y="48" on="0"/>
        <pt x="329" y="10" on="0"/>
        <pt x="379" y="10" on="1"/>
        <pt x="446" y="10" on="0"/>
        <pt x="575" y="43" on="0"/>
        <pt x="636" y="70" on="1"/>
        <pt x="647" y="75" on="0"/>
        <pt x="656" y="77" on="0"/>
        <pt x="667" y="77" on="1"/>
        <pt x="680" y="77" on="0"/>
        <pt x="690" y="75" on="0"/>
        <pt x="690" y="69" on="1"/>
        <pt x="690" y="63" on="0"/>
        <pt x="653" y="46" on="0"/>
        <pt x="605" y="29" on="0"/>
        <pt x="558" y="15" on="0"/>
        <pt x="549" y="13" on="1"/>
        <pt x="489" y="-3" on="0"/>
        <pt x="402" y="-10" on="0"/>
        <pt x="379" y="-10" on="1"/>
        <pt x="324" y="-10" on="0"/>
        <pt x="238" y="30" on="0"/>
        <pt x="180" y="99" on="0"/>
        <pt x="149" y="193" on="0"/>
        <pt x="149" y="247" on="1"/>
        <pt x="149" y="305" on="0"/>
        <pt x="181" y="418" on="0"/>
        <pt x="237" y="519" on="0"/>
        <pt x="313" y="606" on="0"/>
        <pt x="402" y="669" on="0"/>
        <pt x="499" y="704" on="0"/>
        <pt x="548" y="704" on="1"/>
        <pt x="599" y="704" on="0"/>
        <pt x="683" y="665" on="0"/>
        <pt x="742" y="597" on="0"/>
        <pt x="774" y="503" on="0"/>
        <pt x="774" y="448" on="1"/>
        <pt x="774" y="425" on="0"/>
        <pt x="768" y="378" on="0"/>
        <pt x="764" y="359" on="1"/>
        <pt x="737" y="238" on="0"/>
        <pt x="668" y="129" on="0"/>
        <pt x="615" y="129" on="1"/>
        <pt x="607" y="129" on="0"/>
        <pt x="583" y="134" on="0"/>
        <pt x="560" y="148" on="0"/>
        <pt x="544" y="175" on="0"/>
        <pt x="544" y="197" on="1"/>
        <pt x="537" y="190" on="0"/>
        <pt x="512" y="167" on="0"/>
        <pt x="477" y="145" on="0"/>
        <pt x="434" y="129" on="0"/>
        <pt x="408" y="129" on="1"/>
        <pt x="383" y="129" on="0"/>
        <pt x="335" y="148" on="0"/>
        <pt x="297" y="187" on="0"/>
        <pt x="274" y="246" on="0"/>
        <pt x="274" y="286" on="1"/>
        <pt x="274" y="339" on="0"/>
        <pt x="316" y="439" on="0"/>
        <pt x="383" y="517" on="0"/>
        <pt x="469" y="565" on="0"/>
        <pt x="513" y="565" on="1"/>
        <pt x="548" y="565" on="0"/>
        <pt x="609" y="525" on="0"/>
        <pt x="623" y="480" on="1"/>
        <pt x="648" y="480" on="1"/>
        <pt x="660" y="480" on="0"/>
        <pt x="671" y="478" on="0"/>
        <pt x="671" y="471" on="1"/>
        <pt x="671" y="465" on="0"/>
        <pt x="669" y="457" on="1"/>
      </contour>
      <contour>
        <pt x="601" y="430" on="1"/>
        <pt x="603" y="436" on="0"/>
        <pt x="604" y="442" on="0"/>
        <pt x="604" y="445" on="1"/>
        <pt x="604" y="450" on="0"/>
        <pt x="596" y="482" on="0"/>
        <pt x="576" y="517" on="0"/>
        <pt x="541" y="545" on="0"/>
        <pt x="513" y="545" on="1"/>
        <pt x="480" y="545" on="0"/>
        <pt x="415" y="495" on="0"/>
        <pt x="363" y="415" on="0"/>
        <pt x="331" y="317" on="0"/>
        <pt x="331" y="270" on="1"/>
        <pt x="331" y="257" on="0"/>
        <pt x="337" y="216" on="0"/>
        <pt x="354" y="177" on="0"/>
        <pt x="386" y="149" on="0"/>
        <pt x="411" y="149" on="1"/>
        <pt x="432" y="149" on="0"/>
        <pt x="480" y="171" on="0"/>
        <pt x="522" y="205" on="0"/>
        <pt x="554" y="247" on="0"/>
        <pt x="560" y="268" on="1"/>
      </contour>
    </TTGlyph>
    <TTGlyph name="b" xMin="114" yMin="-10" xMax="449" yMax="694">
      <contour>
        <pt x="227" y="385" on="1"/>
        <pt x="233" y="391" on="0"/>
        <pt x="254" y="410" on="0"/>
        <pt x="282" y="428" on="0"/>
        <pt x="315" y="441" on="0"/>
        <pt x="334" y="441" on="1"/>
        <pt x="360" y="441" on="0"/>
        <pt x="402" y="418" on="0"/>
        <pt x="432" y="377" on="0"/>
        <pt x="449" y="322" on="0"/>
        <pt x="449" y="289" on="1"/>
        <pt x="449" y="235" on="0"/>
        <pt x="410" y="129" on="0"/>
        <pt x="347" y="43" on="0"/>
        <pt x="266" y="-10" on="0"/>
        <pt x="224" y="-10" on="1"/>
        <pt x="177" y="-10" on="0"/>
        <pt x="114" y="68" on="0"/>
        <pt x="114" y="140" on="1"/>
        <pt x="114" y="148" on="0"/>
        <pt x="116" y="186" on="0"/>
        <pt x="123" y="213" on="1"/>
        <pt x="224" y="618" on="1"/>
        <pt x="225" y="622" on="0"/>
        <pt x="227" y="631" on="0"/>
        <pt x="227" y="635" on="1"/>
        <pt x="227" y="639" on="0"/>
        <pt x="225" y="646" on="0"/>
        <pt x="216" y="651" on="0"/>
        <pt x="196" y="654" on="0"/>
        <pt x="177" y="654" on="1"/>
        <pt x="166" y="654" on="0"/>
        <pt x="155" y="656" on="0"/>
        <pt x="155" y="664" on="1"/>
        <pt x="155" y="678" on="0"/>
        <pt x="167" y="683" on="0"/>
        <pt x="178" y="684" on="1"/>
        <pt x="278" y="693" on="1"/>
        <pt x="290" y="694" on="0"/>
        <pt x="301" y="691" on="0"/>
        <pt x="301" y="684" on="1"/>
        <pt x="301" y="682" on="0"/>
        <pt x="298" y="671" on="1"/>
      </contour>
      <contour>
        <pt x="225" y="10" on="1"/>
        <pt x="248" y="10" on="0"/>
        <pt x="306" y="55" on="0"/>
        <pt x="332" y="108" on="1"/>
        <pt x="340" y="124" on="0"/>
        <pt x="358" y="182" on="0"/>
        <pt x="375" y="247" on="0"/>
        <pt x="386" y="310" on="0"/>
        <pt x="386" y="331" on="1"/>
        <pt x="386" y="371" on="0"/>
        <pt x="358" y="421" on="0"/>
        <pt x="331" y="421" on="1"/>
        <pt x="311" y="421" on="0"/>
        <pt x="270" y="396" on="0"/>
        <pt x="236" y="360" on="0"/>
        <pt x="211" y="320" on="0"/>
        <pt x="207" y="305" on="1"/>
        <pt x="205" y="297" on="0"/>
        <pt x="201" y="283" on="0"/>
        <pt x="199" y="275" on="1"/>
        <pt x="191" y="241" on="0"/>
        <pt x="178" y="191" on="0"/>
        <pt x="170" y="152" on="0"/>
        <pt x="166" y="121" on="0"/>
        <pt x="166" y="106" on="1"/>
        <pt x="166" y="90" on="0"/>
        <pt x="172" y="56" on="0"/>
        <pt x="185" y="28" on="0"/>
        <pt x="208" y="10" on="0"/>
      </contour>
    </TTGlyph>
    <TTGlyph name="bracketleft" xMin="71" yMin="-250" xMax="440" yMax="750">
      <contour>
        <pt x="115" y="-213" on="1"/>
        <pt x="175" y="-213" on="1"/>
        <pt x="188" y="-213" on="0"/>
        <pt x="199" y="-216" on="0"/>
        <pt x="199" y="-224" on="1"/>
        <pt x="199" y="-244" on="0"/>
        <pt x="183" y="-250" on="0"/>
        <pt x="170" y="-250" on="1"/>
        <pt x="95" y="-250" on="1"/>
        <pt x="83" y="-250" on="0"/>
        <pt x="71" y="-248" on="0"/>
        <pt x="71" y="-240" on="1"/>
        <pt x="71" y="-236" on="0"/>
        <pt x="74" y="-227" on="1"/>
        <pt x="314" y="733" on="1"/>
        <pt x="317" y="745" on="0"/>
        <pt x="324" y="750" on="0"/>
        <pt x="341" y="750" on="1"/>
        <pt x="416" y="750" on="1"/>
        <pt x="428" y="750" on="0"/>
        <pt x="440" y="748" on="0"/>
        <pt x="440" y="740" on="1"/>
        <pt x="440" y="720" on="0"/>
        <pt x="424" y="713" on="0"/>
        <pt x="411" y="713" on="1"/>
        <pt x="346" y="713" on="1"/>
      </contour>
    </TTGlyph>
    <TTGlyph name="bracketright" xMin="-16" yMin="-250" xMax="353" yMax="750">
      <contour>
        <pt x="110" y="-233" on="1"/>
        <pt x="107" y="-245" on="0"/>
        <pt x="100" y="-250" on="0"/>
        <pt x="83" y="-250" on="1"/>
        <pt x="8" y="-250" on="1"/>
        <pt x="-4" y="-250" on="0"/>
        <pt x="-16" y="-248" on="0"/>
        <pt x="-16" y="-240" on="1"/>
        <pt x="-16" y="-220" on="0"/>
        <pt x="0" y="-213" on="0"/>
        <pt x="13" y="-213" on="1"/>
        <pt x="78" y="-213" on="1"/>
        <pt x="309" y="713" on="1"/>
        <pt x="249" y="713" on="1"/>
        <pt x="236" y="713" on="0"/>
        <pt x="225" y="716" on="0"/>
        <pt x="225" y="724" on="1"/>
        <pt x="225" y="744" on="0"/>
        <pt x="241" y="750" on="0"/>
        <pt x="254" y="750" on="1"/>
        <pt x="329" y="750" on="1"/>
        <pt x="341" y="750" on="0"/>
        <pt x="353" y="748" on="0"/>
        <pt x="353" y="740" on="1"/>
        <pt x="353" y="736" on="0"/>
        <pt x="350" y="727" on="1"/>
      </contour>
    </TTGlyph>
    <TTGlyph name="breve" xMin="280" yMin="523" xMax="555" yMax="693">
      <contour>
        <pt x="555" y="684" on="1"/>
        <pt x="555" y="674" on="0"/>
        <pt x="532" y="621" on="0"/>
        <pt x="488" y="565" on="0"/>
        <pt x="424" y="523" on="0"/>
        <pt x="383" y="523" on="1"/>
        <pt x="356" y="523" on="0"/>
        <pt x="317" y="544" on="0"/>
        <pt x="292" y="577" on="0"/>
        <pt x="280" y="619" on="0"/>
        <pt x="280" y="640" on="1"/>
        <pt x="280" y="643" on="0"/>
        <pt x="281" y="660" on="0"/>
        <pt x="284" y="679" on="0"/>
        <pt x="290" y="693" on="0"/>
        <pt x="296" y="693" on="1"/>
        <pt x="306" y="693" on="0"/>
        <pt x="306" y="684" on="1"/>
        <pt x="306" y="682" on="0"/>
        <pt x="301" y="657" on="0"/>
        <pt x="301" y="648" on="1"/>
        <pt x="301" y="610" on="0"/>
        <pt x="345" y="556" on="0"/>
        <pt x="386" y="556" on="1"/>
        <pt x="405" y="556" on="0"/>
        <pt x="447" y="571" on="0"/>
        <pt x="488" y="601" on="0"/>
        <pt x="522" y="647" on="0"/>
        <pt x="533" y="679" on="1"/>
        <pt x="537" y="693" on="0"/>
        <pt x="545" y="693" on="1"/>
        <pt x="555" y="693" on="0"/>
      </contour>
    </TTGlyph>
    <TTGlyph name="c" xMin="110" yMin="-10" xMax="461" yMax="441">
      <contour>
        <pt x="430" y="373" on="1"/>
        <pt x="425" y="391" on="0"/>
        <pt x="402" y="411" on="0"/>
        <pt x="379" y="420" on="0"/>
        <pt x="359" y="421" on="0"/>
        <pt x="357" y="421" on="1"/>
        <pt x="325" y="421" on="0"/>
        <pt x="257" y="372" on="0"/>
        <pt x="231" y="327" on="1"/>
        <pt x="219" y="306" on="0"/>
        <pt x="198" y="247" on="0"/>
        <pt x="183" y="186" on="0"/>
        <pt x="174" y="131" on="0"/>
        <pt x="174" y="114" on="1"/>
        <pt x="174" y="69" on="0"/>
        <pt x="214" y="10" on="0"/>
        <pt x="252" y="10" on="1"/>
        <pt x="271" y="10" on="0"/>
        <pt x="317" y="21" on="0"/>
        <pt x="365" y="45" on="0"/>
        <pt x="411" y="83" on="0"/>
        <pt x="431" y="110" on="1"/>
        <pt x="437" y="117" on="0"/>
        <pt x="441" y="120" on="0"/>
        <pt x="443" y="120" on="1"/>
        <pt x="448" y="120" on="0"/>
        <pt x="457" y="110" on="0"/>
        <pt x="457" y="105" on="1"/>
        <pt x="457" y="100" on="0"/>
        <pt x="428" y="63" on="0"/>
        <pt x="374" y="22" on="0"/>
        <pt x="298" y="-10" on="0"/>
        <pt x="251" y="-10" on="1"/>
        <pt x="221" y="-10" on="0"/>
        <pt x="169" y="12" on="0"/>
        <pt x="132" y="54" on="0"/>
        <pt x="110" y="114" on="0"/>
        <pt x="110" y="152" on="1"/>
        <pt x="110" y="208" on="0"/>
        <pt x="153" y="312" on="0"/>
        <pt x="223" y="392" on="0"/>
        <pt x="312" y="441" on="0"/>
        <pt x="358" y="441" on="1"/>
        <pt x="404" y="441" on="0"/>
        <pt x="461" y="392" on="0"/>
        <pt x="461" y="357" on="1"/>
        <pt x="461" y="338" on="0"/>
        <pt x="449" y="315" on="0"/>
        <pt x="433" y="303" on="0"/>
        <pt x="418" y="299" on="0"/>
        <pt x="414" y="299" on="1"/>
        <pt x="407" y="299" on="0"/>
        <pt x="383" y="310" on="0"/>
        <pt x="383" y="329" on="1"/>
        <pt x="383" y="347" on="0"/>
        <pt x="411" y="372" on="0"/>
      </contour>
    </TTGlyph>
    <TTGlyph name="caron" xMin="280" yMin="509" xMax="527" yMax="632">
      <contour>
        <pt x="391" y="515" on="1"/>
        <pt x="384" y="509" on="0"/>
        <pt x="379" y="509" on="1"/>
        <pt x="374" y="509" on="0"/>
        <pt x="365" y="519" on="1"/>
        <pt x="287" y="602" on="1"/>
        <pt x="282" y="608" on="0"/>
        <pt x="280" y="613" on="0"/>
        <pt x="280" y="615" on="1"/>
        <pt x="280" y="620" on="0"/>
        <pt x="291" y="631" on="0"/>
        <pt x="296" y="631" on="1"/>
        <pt x="299" y="631" on="0"/>
        <pt x="302" y="628" on="0"/>
        <pt x="309" y="623" on="1"/>
        <pt x="387" y="557" on="1"/>
        <pt x="514" y="632" on="1"/>
        <pt x="522" y="629" on="0"/>
        <pt x="527" y="617" on="0"/>
        <pt x="527" y="615" on="1"/>
        <pt x="527" y="612" on="0"/>
        <pt x="523" y="608" on="0"/>
        <pt x="515" y="602" on="1"/>
      </contour>
    </TTGlyph>
    <TTGlyph name="cedilla" xMin="100" yMin="-192" xMax="326" yMax="-2">
      <contour>
        <pt x="252" y="-2" on="1"/>
        <pt x="264" y="-2" on="0"/>
        <pt x="276" y="-4" on="0"/>
        <pt x="276" y="-12" on="1"/>
        <pt x="276" y="-14" on="0"/>
        <pt x="269" y="-44" on="0"/>
        <pt x="266" y="-55" on="1"/>
        <pt x="271" y="-56" on="0"/>
        <pt x="290" y="-61" on="0"/>
        <pt x="311" y="-73" on="0"/>
        <pt x="326" y="-93" on="0"/>
        <pt x="326" y="-109" on="1"/>
        <pt x="326" y="-140" on="0"/>
        <pt x="282" y="-174" on="0"/>
        <pt x="217" y="-189" on="0"/>
        <pt x="142" y="-192" on="0"/>
        <pt x="112" y="-192" on="1"/>
        <pt x="107" y="-192" on="0"/>
        <pt x="100" y="-188" on="0"/>
        <pt x="100" y="-182" on="1"/>
        <pt x="100" y="-174" on="0"/>
        <pt x="106" y="-172" on="1"/>
        <pt x="111" y="-171" on="0"/>
        <pt x="120" y="-171" on="0"/>
        <pt x="139" y="-171" on="1"/>
        <pt x="149" y="-171" on="0"/>
        <pt x="191" y="-169" on="0"/>
        <pt x="234" y="-157" on="0"/>
        <pt x="266" y="-132" on="0"/>
        <pt x="266" y="-109" on="1"/>
        <pt x="266" y="-96" on="0"/>
        <pt x="253" y="-81" on="0"/>
        <pt x="237" y="-73" on="0"/>
        <pt x="220" y="-70" on="0"/>
        <pt x="217" y="-70" on="1"/>
        <pt x="214" y="-70" on="0"/>
        <pt x="205" y="-67" on="0"/>
        <pt x="205" y="-60" on="1"/>
        <pt x="205" y="-59" on="0"/>
        <pt x="207" y="-49" on="0"/>
        <pt x="210" y="-37" on="0"/>
        <pt x="213" y="-26" on="0"/>
        <pt x="214" y="-23" on="1"/>
        <pt x="218" y="-8" on="0"/>
        <pt x="225" y="-2" on="0"/>
        <pt x="241" y="-2" on="1"/>
      </contour>
    </TTGlyph>
    <TTGlyph name="circumflex" xMin="264" yMin="539" xMax="512" yMax="693">
      <contour>
        <pt x="505" y="569" on="1"/>
        <pt x="510" y="561" on="0"/>
        <pt x="512" y="556" on="0"/>
        <pt x="512" y="554" on="1"/>
        <pt x="512" y="548" on="0"/>
        <pt x="499" y="539" on="0"/>
        <pt x="495" y="539" on="1"/>
        <pt x="491" y="539" on="0"/>
        <pt x="487" y="543" on="0"/>
        <pt x="482" y="550" on="1"/>
        <pt x="412" y="644" on="1"/>
        <pt x="291" y="547" on="1"/>
        <pt x="284" y="541" on="0"/>
        <pt x="280" y="539" on="0"/>
        <pt x="278" y="539" on="1"/>
        <pt x="273" y="539" on="0"/>
        <pt x="264" y="550" on="0"/>
        <pt x="264" y="554" on="1"/>
        <pt x="264" y="560" on="0"/>
        <pt x="274" y="568" on="1"/>
        <pt x="408" y="686" on="1"/>
        <pt x="415" y="693" on="0"/>
        <pt x="421" y="693" on="1"/>
        <pt x="425" y="693" on="0"/>
        <pt x="429" y="689" on="0"/>
        <pt x="434" y="681" on="1"/>
      </contour>
    </TTGlyph>
    <TTGlyph name="colon" xMin="112" yMin="0" xMax="295" yMax="431">
      <contour>
        <pt x="295" y="392" on="1"/>
        <pt x="295" y="382" on="0"/>
        <pt x="286" y="361" on="0"/>
        <pt x="269" y="345" on="0"/>
        <pt x="247" y="334" on="0"/>
        <pt x="235" y="334" on="1"/>
        <pt x="215" y="334" on="0"/>
        <pt x="195" y="359" on="0"/>
        <pt x="195" y="373" on="1"/>
        <pt x="195" y="394" on="0"/>
        <pt x="231" y="431" on="0"/>
        <pt x="255" y="431" on="1"/>
        <pt x="274" y="431" on="0"/>
        <pt x="295" y="408" on="0"/>
      </contour>
      <contour>
        <pt x="211" y="58" on="1"/>
        <pt x="211" y="46" on="0"/>
        <pt x="200" y="24" on="0"/>
        <pt x="183" y="9" on="0"/>
        <pt x="162" y="0" on="0"/>
        <pt x="152" y="0" on="1"/>
        <pt x="134" y="0" on="0"/>
        <pt x="112" y="22" on="0"/>
        <pt x="112" y="39" on="1"/>
        <pt x="112" y="62" on="0"/>
        <pt x="150" y="97" on="0"/>
        <pt x="171" y="97" on="1"/>
        <pt x="184" y="97" on="0"/>
        <pt x="211" y="81" on="0"/>
      </contour>
    </TTGlyph>
    <TTGlyph name="comma" xMin="70" yMin="-193" xMax="214" yMax="97">
      <contour>
        <pt x="191" y="15" on="1"/>
        <pt x="190" y="14" on="0"/>
        <pt x="169" y="0" on="0"/>
        <pt x="152" y="0" on="1"/>
        <pt x="138" y="0" on="0"/>
        <pt x="112" y="17" on="0"/>
        <pt x="112" y="38" on="1"/>
        <pt x="112" y="61" on="0"/>
        <pt x="147" y="97" on="0"/>
        <pt x="171" y="97" on="1"/>
        <pt x="185" y="97" on="0"/>
        <pt x="202" y="86" on="0"/>
        <pt x="211" y="70" on="0"/>
        <pt x="214" y="50" on="0"/>
        <pt x="214" y="42" on="1"/>
        <pt x="214" y="-1" on="0"/>
        <pt x="177" y="-85" on="0"/>
        <pt x="129" y="-152" on="0"/>
        <pt x="85" y="-193" on="0"/>
        <pt x="79" y="-193" on="1"/>
        <pt x="75" y="-193" on="0"/>
        <pt x="70" y="-186" on="0"/>
        <pt x="70" y="-183" on="1"/>
        <pt x="70" y="-181" on="0"/>
        <pt x="74" y="-176" on="0"/>
        <pt x="83" y="-167" on="1"/>
        <pt x="118" y="-137" on="0"/>
        <pt x="178" y="-47" on="0"/>
      </contour>
    </TTGlyph>
    <TTGlyph name="d" xMin="108" yMin="-10" xMax="550" yMax="694">
      <contour>
        <pt x="405" y="104" on="1"/>
        <pt x="403" y="94" on="0"/>
        <pt x="397" y="60" on="0"/>
        <pt x="397" y="50" on="1"/>
        <pt x="397" y="36" on="0"/>
        <pt x="407" y="10" on="0"/>
        <pt x="424" y="10" on="1"/>
        <pt x="445" y="10" on="0"/>
        <pt x="476" y="65" on="0"/>
        <pt x="491" y="128" on="1"/>
        <pt x="496" y="145" on="0"/>
        <pt x="501" y="152" on="0"/>
        <pt x="510" y="152" on="1"/>
        <pt x="513" y="152" on="0"/>
        <pt x="523" y="150" on="0"/>
        <pt x="523" y="143" on="1"/>
        <pt x="523" y="142" on="0"/>
        <pt x="519" y="122" on="0"/>
        <pt x="511" y="93" on="0"/>
        <pt x="500" y="61" on="0"/>
        <pt x="494" y="48" on="1"/>
        <pt x="484" y="26" on="0"/>
        <pt x="451" y="-10" on="0"/>
        <pt x="422" y="-10" on="1"/>
        <pt x="413" y="-10" on="0"/>
        <pt x="390" y="-5" on="0"/>
        <pt x="366" y="10" on="0"/>
        <pt x="347" y="38" on="0"/>
        <pt x="343" y="61" on="1"/>
        <pt x="314" y="27" on="0"/>
        <pt x="254" y="-10" on="0"/>
        <pt x="223" y="-10" on="1"/>
        <pt x="198" y="-10" on="0"/>
        <pt x="155" y="12" on="0"/>
        <pt x="125" y="53" on="0"/>
        <pt x="108" y="109" on="0"/>
        <pt x="108" y="142" on="1"/>
        <pt x="108" y="197" on="0"/>
        <pt x="147" y="304" on="0"/>
        <pt x="211" y="389" on="0"/>
        <pt x="291" y="441" on="0"/>
        <pt x="332" y="441" on="1"/>
        <pt x="364" y="441" on="0"/>
        <pt x="403" y="404" on="0"/>
        <pt x="414" y="380" on="1"/>
        <pt x="473" y="618" on="1"/>
        <pt x="474" y="621" on="0"/>
        <pt x="476" y="631" on="0"/>
        <pt x="476" y="635" on="1"/>
        <pt x="476" y="639" on="0"/>
        <pt x="474" y="646" on="0"/>
        <pt x="465" y="651" on="0"/>
        <pt x="445" y="654" on="0"/>
        <pt x="426" y="654" on="1"/>
        <pt x="415" y="654" on="0"/>
        <pt x="404" y="656" on="0"/>
        <pt x="404" y="664" on="1"/>
        <pt x="404" y="678" on="0"/>
        <pt x="416" y="683" on="0"/>
        <pt x="427" y="684" on="1"/>
        <pt x="527" y="693" on="1"/>
        <pt x="539" y="694" on="0"/>
        <pt x="550" y="691" on="0"/>
        <pt x="550" y="684" on="1"/>
        <pt x="550" y="682" on="0"/>
        <pt x="548" y="676" on="0"/>
        <pt x="547" y="671" on="1"/>
      </contour>
      <contour>
        <pt x="399" y="325" on="1"/>
        <pt x="399" y="326" on="0"/>
        <pt x="395" y="356" on="0"/>
        <pt x="382" y="392" on="0"/>
        <pt x="355" y="421" on="0"/>
        <pt x="332" y="421" on="1"/>
        <pt x="316" y="421" on="0"/>
        <pt x="284" y="403" on="0"/>
        <pt x="254" y="372" on="0"/>
        <pt x="228" y="331" on="0"/>
        <pt x="218" y="308" on="1"/>
        <pt x="212" y="293" on="0"/>
        <pt x="196" y="238" on="0"/>
        <pt x="181" y="177" on="0"/>
        <pt x="170" y="119" on="0"/>
        <pt x="170" y="100" on="1"/>
        <pt x="170" y="96" on="0"/>
        <pt x="172" y="66" on="0"/>
        <pt x="183" y="35" on="0"/>
        <pt x="205" y="10" on="0"/>
        <pt x="225" y="10" on="1"/>
        <pt x="247" y="10" on="0"/>
        <pt x="289" y="38" on="0"/>
        <pt x="324" y="75" on="0"/>
        <pt x="347" y="113" on="0"/>
        <pt x="350" y="123" on="1"/>
      </contour>
    </TTGlyph>
    <TTGlyph name="dieresis" xMin="270" yMin="573" xMax="538" yMax="665">
      <contour>
        <pt x="364" y="627" on="1"/>
        <pt x="364" y="605" on="0"/>
        <pt x="329" y="573" on="0"/>
        <pt x="308" y="573" on="1"/>
        <pt x="290" y="573" on="0"/>
        <pt x="270" y="596" on="0"/>
        <pt x="270" y="610" on="1"/>
        <pt x="270" y="632" on="0"/>
        <pt x="305" y="665" on="0"/>
        <pt x="326" y="665" on="1"/>
        <pt x="337" y="665" on="0"/>
        <pt x="364" y="650" on="0"/>
      </contour>
      <contour>
        <pt x="538" y="627" on="1"/>
        <pt x="538" y="605" on="0"/>
        <pt x="503" y="573" on="0"/>
        <pt x="482" y="573" on="1"/>
        <pt x="464" y="573" on="0"/>
        <pt x="444" y="596" on="0"/>
        <pt x="444" y="610" on="1"/>
        <pt x="444" y="632" on="0"/>
        <pt x="479" y="665" on="0"/>
        <pt x="500" y="665" on="1"/>
        <pt x="511" y="665" on="0"/>
        <pt x="538" y="650" on="0"/>
      </contour>
    </TTGlyph>
    <TTGlyph name="dotaccent" xMin="254" yMin="568" xMax="353" yMax="665">
      <contour>
        <pt x="353" y="625" on="1"/>
        <pt x="353" y="602" on="0"/>
        <pt x="317" y="568" on="0"/>
        <pt x="294" y="568" on="1"/>
        <pt x="280" y="568" on="0"/>
        <pt x="254" y="588" on="0"/>
        <pt x="254" y="608" on="1"/>
        <pt x="254" y="630" on="0"/>
        <pt x="290" y="665" on="0"/>
        <pt x="313" y="665" on="1"/>
        <pt x="328" y="665" on="0"/>
        <pt x="353" y="646" on="0"/>
      </contour>
    </TTGlyph>
    <TTGlyph name="dotlessi" xMin="83" yMin="-10" xMax="323" yMax="441">
      <contour>
        <pt x="215" y="330" on="1"/>
        <pt x="220" y="344" on="0"/>
        <pt x="228" y="371" on="0"/>
        <pt x="228" y="391" on="1"/>
        <pt x="228" y="399" on="0"/>
        <pt x="223" y="421" on="0"/>
        <pt x="206" y="421" on="1"/>
        <pt x="184" y="421" on="0"/>
        <pt x="152" y="391" on="0"/>
        <pt x="130" y="350" on="0"/>
        <pt x="117" y="308" on="0"/>
        <pt x="114" y="296" on="1"/>
        <pt x="111" y="285" on="0"/>
        <pt x="106" y="279" on="0"/>
        <pt x="97" y="279" on="1"/>
        <pt x="93" y="279" on="0"/>
        <pt x="83" y="281" on="0"/>
        <pt x="83" y="288" on="1"/>
        <pt x="83" y="290" on="0"/>
        <pt x="96" y="338" on="0"/>
        <pt x="126" y="395" on="0"/>
        <pt x="174" y="441" on="0"/>
        <pt x="208" y="441" on="1"/>
        <pt x="237" y="441" on="0"/>
        <pt x="280" y="401" on="0"/>
        <pt x="280" y="363" on="1"/>
        <pt x="280" y="349" on="0"/>
        <pt x="276" y="331" on="0"/>
        <pt x="269" y="312" on="1"/>
        <pt x="210" y="150" on="1"/>
        <pt x="196" y="113" on="0"/>
        <pt x="178" y="59" on="0"/>
        <pt x="178" y="39" on="1"/>
        <pt x="178" y="21" on="0"/>
        <pt x="193" y="10" on="0"/>
        <pt x="201" y="10" on="1"/>
        <pt x="222" y="10" on="0"/>
        <pt x="254" y="39" on="0"/>
        <pt x="276" y="79" on="0"/>
        <pt x="290" y="121" on="0"/>
        <pt x="293" y="134" on="1"/>
        <pt x="296" y="145" on="0"/>
        <pt x="301" y="152" on="0"/>
        <pt x="310" y="152" on="1"/>
        <pt x="313" y="152" on="0"/>
        <pt x="323" y="150" on="0"/>
        <pt x="323" y="143" on="1"/>
        <pt x="323" y="142" on="0"/>
        <pt x="317" y="119" on="0"/>
        <pt x="305" y="85" on="0"/>
        <pt x="286" y="45" on="0"/>
        <pt x="258" y="12" on="0"/>
        <pt x="222" y="-10" on="0"/>
        <pt x="199" y="-10" on="1"/>
        <pt x="187" y="-10" on="0"/>
        <pt x="161" y="-2" on="0"/>
        <pt x="140" y="17" on="0"/>
        <pt x="127" y="47" on="0"/>
        <pt x="127" y="69" on="1"/>
        <pt x="127" y="76" on="0"/>
        <pt x="129" y="96" on="0"/>
        <pt x="135" y="113" on="1"/>
      </contour>
    </TTGlyph>
    <TTGlyph name="e" xMin="114" yMin="-10" xMax="457" yMax="441">
      <contour>
        <pt x="194" y="232" on="1"/>
        <pt x="186" y="203" on="0"/>
        <pt x="177" y="154" on="0"/>
        <pt x="177" y="121" on="1"/>
        <pt x="177" y="109" on="0"/>
        <pt x="182" y="71" on="0"/>
        <pt x="198" y="36" on="0"/>
        <pt x="227" y="10" on="0"/>
        <pt x="252" y="10" on="1"/>
        <pt x="271" y="10" on="0"/>
        <pt x="317" y="21" on="0"/>
        <pt x="365" y="45" on="0"/>
        <pt x="411" y="83" on="0"/>
        <pt x="431" y="110" on="1"/>
        <pt x="437" y="117" on="0"/>
        <pt x="441" y="120" on="0"/>
        <pt x="443" y="120" on="1"/>
        <pt x="448" y="120" on="0"/>
        <pt x="457" y="110" on="0"/>
        <pt x="457" y="105" on="1"/>
        <pt x="457" y="100" on="0"/>
        <pt x="428" y="63" on="0"/>
        <pt x="374" y="22" on="0"/>
        <pt x="298" y="-10" on="0"/>
        <pt x="251" y="-10" on="1"/>
        <pt x="219" y="-10" on="0"/>
        <pt x="168" y="16" on="0"/>
        <pt x="133" y="62" on="0"/>
        <pt x="114" y="125" on="0"/>
        <pt x="114" y="163" on="1"/>
        <pt x="114" y="229" on="0"/>
        <pt x="161" y="332" on="0"/>
        <pt x="232" y="404" on="0"/>
        <pt x="318" y="441" on="0"/>
        <pt x="357" y="441" on="1"/>
        <pt x="402" y="441" on="0"/>
        <pt x="453" y="392" on="0"/>
        <pt x="453" y="358" on="1"/>
        <pt x="453" y="327" on="0"/>
        <pt x="425" y="283" on="0"/>
        <pt x="381" y="255" on="0"/>
        <pt x="328" y="240" on="0"/>
        <pt x="279" y="233" on="0"/>
        <pt x="239" y="232" on="0"/>
        <pt x="230" y="232" on="1"/>
      </contour>
      <contour>
        <pt x="221" y="252" on="1"/>
        <pt x="229" y="252" on="0"/>
        <pt x="265" y="253" on="0"/>
        <pt x="309" y="259" on="0"/>
        <pt x="355" y="272" on="0"/>
        <pt x="394" y="296" on="0"/>
        <pt x="419" y="332" on="0"/>
        <pt x="419" y="359" on="1"/>
        <pt x="419" y="385" on="0"/>
        <pt x="386" y="421" on="0"/>
        <pt x="356" y="421" on="1"/>
        <pt x="349" y="421" on="0"/>
        <pt x="310" y="413" on="0"/>
        <pt x="262" y="379" on="0"/>
        <pt x="215" y="312" on="0"/>
        <pt x="200" y="252" on="1"/>
      </contour>
    </TTGlyph>
    <TTGlyph name="eight" xMin="96" yMin="-21" xMax="544" yMax="665">
      <contour>
        <pt x="386" y="358" on="1"/>
        <pt x="409" y="339" on="0"/>
        <pt x="445" y="308" on="0"/>
        <pt x="470" y="274" on="0"/>
        <pt x="483" y="234" on="0"/>
        <pt x="483" y="207" on="1"/>
        <pt x="483" y="165" on="0"/>
        <pt x="444" y="83" on="0"/>
        <pt x="378" y="19" on="0"/>
        <pt x="293" y="-21" on="0"/>
        <pt x="246" y="-21" on="1"/>
        <pt x="215" y="-21" on="0"/>
        <pt x="160" y="-2" on="0"/>
        <pt x="120" y="33" on="0"/>
        <pt x="96" y="83" on="0"/>
        <pt x="96" y="114" on="1"/>
        <pt x="96" y="177" on="0"/>
        <pt x="194" y="298" on="0"/>
        <pt x="285" y="339" on="1"/>
        <pt x="266" y="355" on="0"/>
        <pt x="238" y="381" on="0"/>
        <pt x="219" y="408" on="0"/>
        <pt x="209" y="442" on="0"/>
        <pt x="209" y="465" on="1"/>
        <pt x="209" y="503" on="0"/>
        <pt x="244" y="575" on="0"/>
        <pt x="301" y="631" on="0"/>
        <pt x="375" y="665" on="0"/>
        <pt x="414" y="665" on="1"/>
        <pt x="439" y="665" on="0"/>
        <pt x="486" y="650" on="0"/>
        <pt x="522" y="621" on="0"/>
        <pt x="544" y="577" on="0"/>
        <pt x="544" y="548" on="1"/>
        <pt x="544" y="512" on="0"/>
        <pt x="513" y="453" on="0"/>
        <pt x="466" y="406" on="0"/>
        <pt x="410" y="371" on="0"/>
      </contour>
      <contour>
        <pt x="369" y="374" on="1"/>
        <pt x="432" y="407" on="0"/>
        <pt x="502" y="502" on="0"/>
        <pt x="502" y="550" on="1"/>
        <pt x="502" y="595" on="0"/>
        <pt x="449" y="641" on="0"/>
        <pt x="411" y="641" on="1"/>
        <pt x="384" y="641" on="0"/>
        <pt x="330" y="619" on="0"/>
        <pt x="287" y="582" on="0"/>
        <pt x="260" y="533" on="0"/>
        <pt x="260" y="506" on="1"/>
        <pt x="260" y="479" on="0"/>
        <pt x="280" y="452" on="0"/>
        <pt x="288" y="445" on="1"/>
      </contour>
      <contour>
        <pt x="302" y="323" on="1"/>
        <pt x="269" y="308" on="0"/>
        <pt x="211" y="262" on="0"/>
        <pt x="168" y="206" on="0"/>
        <pt x="142" y="144" on="0"/>
        <pt x="142" y="113" on="1"/>
        <pt x="142" y="68" on="0"/>
        <pt x="199" y="6" on="0"/>
        <pt x="250" y="6" on="1"/>
        <pt x="283" y="6" on="0"/>
        <pt x="346" y="33" on="0"/>
        <pt x="397" y="78" on="0"/>
        <pt x="428" y="137" on="0"/>
        <pt x="428" y="168" on="1"/>
        <pt x="428" y="185" on="0"/>
        <pt x="421" y="209" on="0"/>
        <pt x="408" y="230" on="0"/>
        <pt x="387" y="250" on="0"/>
        <pt x="373" y="262" on="1"/>
      </contour>
    </TTGlyph>
    <TTGlyph name="emdash" xMin="117" yMin="256" xMax="1015" yMax="276">
      <contour>
        <pt x="141" y="256" on="1"/>
        <pt x="129" y="256" on="0"/>
        <pt x="117" y="258" on="0"/>
        <pt x="117" y="266" on="1"/>
        <pt x="117" y="274" on="0"/>
        <pt x="130" y="276" on="0"/>
        <pt x="141" y="276" on="1"/>
        <pt x="991" y="276" on="1"/>
        <pt x="1003" y="276" on="0"/>
        <pt x="1015" y="274" on="0"/>
        <pt x="1015" y="266" on="1"/>
        <pt x="1015" y="258" on="0"/>
        <pt x="1002" y="256" on="0"/>
        <pt x="991" y="256" on="1"/>
      </contour>
    </TTGlyph>
    <TTGlyph name="endash" xMin="92" yMin="256" xMax="540" yMax="276">
      <contour>
        <pt x="116" y="256" on="1"/>
        <pt x="104" y="256" on="0"/>
        <pt x="92" y="258" on="0"/>
        <pt x="92" y="266" on="1"/>
        <pt x="92" y="274" on="0"/>
        <pt x="105" y="276" on="0"/>
        <pt x="116" y="276" on="1"/>
        <pt x="516" y="276" on="1"/>
        <pt x="528" y="276" on="0"/>
        <pt x="540" y="274" on="0"/>
        <pt x="540" y="266" on="1"/>
        <pt x="540" y="258" on="0"/>
        <pt x="527" y="256" on="0"/>
        <pt x="516" y="256" on="1"/>
      </contour>
    </TTGlyph>
    <TTGlyph name="equal" xMin="114" yMin="138" xMax="759" yMax="361">
      <contour>
        <pt x="193" y="324" on="1"/>
        <pt x="181" y="324" on="0"/>
        <pt x="161" y="329" on="0"/>
        <pt x="161" y="343" on="1"/>
        <pt x="161" y="357" on="0"/>
        <pt x="182" y="361" on="0"/>
        <pt x="193" y="361" on="1"/>
        <pt x="728" y="361" on="1"/>
        <pt x="738" y="361" on="0"/>
        <pt x="759" y="356" on="0"/>
        <pt x="759" y="342" on="1"/>
        <pt x="759" y="328" on="0"/>
        <pt x="737" y="324" on="0"/>
        <pt x="728" y="324" on="1"/>
      </contour>
      <contour>
        <pt x="146" y="138" on="1"/>
        <pt x="135" y="138" on="0"/>
        <pt x="114" y="143" on="0"/>
        <pt x="114" y="157" on="1"/>
        <pt x="114" y="171" on="0"/>
        <pt x="136" y="175" on="0"/>
        <pt x="146" y="175" on="1"/>
        <pt x="681" y="175" on="1"/>
        <pt x="692" y="175" on="0"/>
        <pt x="713" y="170" on="0"/>
        <pt x="713" y="156" on="1"/>
        <pt x="713" y="142" on="0"/>
        <pt x="692" y="138" on="0"/>
        <pt x="681" y="138" on="1"/>
      </contour>
    </TTGlyph>
    <TTGlyph name="exclam" xMin="112" yMin="0" xMax="366" yMax="715">
      <contour>
        <pt x="214" y="196" on="1"/>
        <pt x="210" y="185" on="0"/>
        <pt x="203" y="180" on="0"/>
        <pt x="197" y="180" on="1"/>
        <pt x="183" y="180" on="0"/>
        <pt x="183" y="191" on="1"/>
        <pt x="183" y="192" on="0"/>
        <pt x="183" y="196" on="0"/>
        <pt x="185" y="204" on="1"/>
        <pt x="266" y="660" on="1"/>
        <pt x="269" y="680" on="0"/>
        <pt x="288" y="702" on="0"/>
        <pt x="307" y="713" on="0"/>
        <pt x="324" y="715" on="0"/>
        <pt x="326" y="715" on="1"/>
        <pt x="337" y="715" on="0"/>
        <pt x="366" y="700" on="0"/>
        <pt x="366" y="677" on="1"/>
        <pt x="366" y="672" on="0"/>
        <pt x="365" y="666" on="0"/>
        <pt x="361" y="655" on="1"/>
      </contour>
      <contour>
        <pt x="211" y="57" on="1"/>
        <pt x="211" y="34" on="0"/>
        <pt x="175" y="0" on="0"/>
        <pt x="152" y="0" on="1"/>
        <pt x="138" y="0" on="0"/>
        <pt x="112" y="20" on="0"/>
        <pt x="112" y="40" on="1"/>
        <pt x="112" y="62" on="0"/>
        <pt x="148" y="97" on="0"/>
        <pt x="171" y="97" on="1"/>
        <pt x="186" y="97" on="0"/>
        <pt x="211" y="78" on="0"/>
      </contour>
    </TTGlyph>
    <TTGlyph name="exclamdown" xMin="58" yMin="-215" xMax="312" yMax="500">
      <contour>
        <pt x="312" y="460" on="1"/>
        <pt x="312" y="438" on="0"/>
        <pt x="276" y="403" on="0"/>
        <pt x="253" y="403" on="1"/>
        <pt x="238" y="403" on="0"/>
        <pt x="213" y="422" on="0"/>
        <pt x="213" y="443" on="1"/>
        <pt x="213" y="466" on="0"/>
        <pt x="249" y="500" on="0"/>
        <pt x="272" y="500" on="1"/>
        <pt x="286" y="500" on="0"/>
        <pt x="312" y="480" on="0"/>
      </contour>
      <contour>
        <pt x="210" y="304" on="1"/>
        <pt x="214" y="315" on="0"/>
        <pt x="221" y="320" on="0"/>
        <pt x="227" y="320" on="1"/>
        <pt x="241" y="320" on="0"/>
        <pt x="241" y="309" on="1"/>
        <pt x="241" y="308" on="0"/>
        <pt x="241" y="304" on="0"/>
        <pt x="239" y="296" on="1"/>
        <pt x="158" y="-160" on="1"/>
        <pt x="155" y="-180" on="0"/>
        <pt x="136" y="-202" on="0"/>
        <pt x="117" y="-213" on="0"/>
        <pt x="100" y="-215" on="0"/>
        <pt x="98" y="-215" on="1"/>
        <pt x="87" y="-215" on="0"/>
        <pt x="58" y="-200" on="0"/>
        <pt x="58" y="-177" on="1"/>
        <pt x="58" y="-172" on="0"/>
        <pt x="59" y="-166" on="0"/>
        <pt x="63" y="-155" on="1"/>
      </contour>
    </TTGlyph>
    <TTGlyph name="f" xMin="-27" yMin="-204" xMax="446" yMax="704">
      <contour>
        <pt x="210" y="83" on="1"/>
        <pt x="198" y="23" on="0"/>
        <pt x="169" y="-82" on="0"/>
        <pt x="130" y="-160" on="0"/>
        <pt x="81" y="-204" on="0"/>
        <pt x="51" y="-204" on="1"/>
        <pt x="20" y="-204" on="0"/>
        <pt x="-27" y="-171" on="0"/>
        <pt x="-27" y="-142" on="1"/>
        <pt x="-27" y="-117" on="0"/>
        <pt x="2" y="-91" on="0"/>
        <pt x="19" y="-91" on="1"/>
        <pt x="32" y="-91" on="0"/>
        <pt x="50" y="-106" on="0"/>
        <pt x="50" y="-120" on="1"/>
        <pt x="50" y="-123" on="0"/>
        <pt x="48" y="-136" on="0"/>
        <pt x="39" y="-150" on="0"/>
        <pt x="23" y="-162" on="0"/>
        <pt x="9" y="-165" on="1"/>
        <pt x="19" y="-179" on="0"/>
        <pt x="48" y="-184" on="0"/>
        <pt x="51" y="-184" on="1"/>
        <pt x="65" y="-184" on="0"/>
        <pt x="83" y="-168" on="0"/>
        <pt x="97" y="-143" on="0"/>
        <pt x="106" y="-111" on="0"/>
        <pt x="110" y="-95" on="1"/>
        <pt x="116" y="-72" on="0"/>
        <pt x="124" y="-43" on="0"/>
        <pt x="130" y="-17" on="0"/>
        <pt x="136" y="13" on="0"/>
        <pt x="140" y="35" on="1"/>
        <pt x="211" y="402" on="1"/>
        <pt x="152" y="402" on="1"/>
        <pt x="140" y="402" on="0"/>
        <pt x="128" y="404" on="0"/>
        <pt x="128" y="412" on="1"/>
        <pt x="128" y="426" on="0"/>
        <pt x="141" y="431" on="0"/>
        <pt x="154" y="431" on="1"/>
        <pt x="217" y="431" on="1"/>
        <pt x="238" y="540" on="1"/>
        <pt x="241" y="553" on="0"/>
        <pt x="254" y="607" on="0"/>
        <pt x="283" y="662" on="0"/>
        <pt x="330" y="704" on="0"/>
        <pt x="366" y="704" on="1"/>
        <pt x="397" y="704" on="0"/>
        <pt x="446" y="671" on="0"/>
        <pt x="446" y="642" on="1"/>
        <pt x="446" y="617" on="0"/>
        <pt x="417" y="591" on="0"/>
        <pt x="400" y="591" on="1"/>
        <pt x="387" y="591" on="0"/>
        <pt x="369" y="606" on="0"/>
        <pt x="369" y="620" on="1"/>
        <pt x="369" y="624" on="0"/>
        <pt x="372" y="637" on="0"/>
        <pt x="381" y="651" on="0"/>
        <pt x="396" y="662" on="0"/>
        <pt x="409" y="665" on="1"/>
        <pt x="398" y="679" on="0"/>
        <pt x="368" y="684" on="0"/>
        <pt x="366" y="684" on="1"/>
        <pt x="352" y="684" on="0"/>
        <pt x="333" y="667" on="0"/>
        <pt x="321" y="640" on="0"/>
        <pt x="312" y="607" on="0"/>
        <pt x="309" y="590" on="1"/>
        <pt x="303" y="560" on="0"/>
        <pt x="294" y="515" on="0"/>
        <pt x="286" y="478" on="0"/>
        <pt x="280" y="447" on="0"/>
        <pt x="277" y="431" on="1"/>
        <pt x="353" y="431" on="1"/>
        <pt x="366" y="431" on="0"/>
        <pt x="377" y="428" on="0"/>
        <pt x="377" y="420" on="1"/>
        <pt x="377" y="406" on="0"/>
        <pt x="363" y="402" on="0"/>
        <pt x="350" y="402" on="1"/>
        <pt x="272" y="402" on="1"/>
      </contour>
    </TTGlyph>
</ttFont>
